{"glyphs":{"0":{"ha":0,"x_min":0,"x_max":0,"o":"b 66 645 81 458 67 572 b NaN NaN -46 644 -271 NaN b NaN NaN NaN NaN NaN NaN "},"1":{"ha":-185,"x_min":0,"x_max":0,"o":"m 500 982 l 308 982 l 65 827 l 65 647 l 290 788 l 296 788 l 296 0 l 500 0 z "},"2":{"ha":0,"x_min":0,"x_max":0,"o":"l 12 77 b 286 334 12 279 195 334 b 320 230 398 334 320 284 b NaN NaN 320 138 233 NaN l NaN NaN "},"3":{"ha":0,"x_min":0,"x_max":0,"o":""},"4":{"ha":0,"x_min":0,"x_max":0,"o":""},"5":{"ha":35,"x_min":0,"x_max":0,"o":"m 438 -14 l 605 -14 l 605 -618 z "},"6":{"ha":56,"x_min":0,"x_max":0,"o":"m 457 -14 b 829 328 679 -14 829 129 b 521 646 829 513 698 646 b 270 507 412 646 315 595 l 260 507 b 465 821 262 701 332 821 b 617 709 545 821 601 778 l 818 709 b 465 996 798 871 663 996 b 61 468 220 996 62 800 b 457 -14 60 109 254 -13 z m 281 323 b 458 498 282 418 358 497 b 631 323 558 497 631 421 b 456 148 631 224 557 147 b 281 323 355 147 282 227 z "},"7":{"ha":-37,"x_min":0,"x_max":0,"o":"m 115 0 l 327 0 l 741 812 l 741 982 l 47 982 l 47 815 l 529 815 l 529 808 z "},"8":{"ha":58,"x_min":0,"x_max":0,"o":"m 446 -14 b 831 264 670 -14 831 104 b 616 507 831 388 735 488 l 616 514 b 795 731 719 534 794 623 b 446 996 794 884 647 996 b 99 731 245 996 98 884 b 278 514 98 623 172 534 l 278 507 b 61 264 156 488 61 388 b 446 -14 61 104 222 -14 z m 274 285 b 446 433 273 370 347 432 b 618 285 546 432 619 370 b 446 142 619 201 550 142 b 274 285 342 142 273 201 z m 298 711 b 446 841 298 787 358 841 b 595 711 534 841 595 787 b 446 576 595 632 532 577 b 298 711 359 577 298 632 z "},"9":{"ha":56,"x_min":0,"x_max":0,"o":"m 435 996 b 64 655 214 996 64 852 b 372 339 65 472 195 339 b 624 477 481 339 578 391 l 632 477 b 427 161 631 281 561 161 b 275 277 349 161 292 204 l 75 277 b 427 -14 94 111 230 -14 b 831 517 674 -14 832 183 b 435 996 831 873 639 995 z m 263 661 b 437 836 262 758 336 835 b 612 662 537 835 610 755 b 435 488 612 568 535 488 b 263 661 334 488 263 564 z "}," ":{"ha":-516,"x_min":0,"x_max":0,"o":""}," ":{"ha":-516,"x_min":0,"x_max":0,"o":""},"A":{"ha":161,"x_min":0,"x_max":0,"o":""},"Á":{"ha":0,"x_min":0,"x_max":0,"o":""},"Ă":{"ha":161,"x_min":0,"x_max":0,"o":""},"Ắ":{"ha":161,"x_min":0,"x_max":0,"o":"m 233 1215 "},"Ặ":{"ha":0,"x_min":0,"x_max":0,"o":""},"Ằ":{"ha":161,"x_min":0,"x_max":0,"o":"m 233 1215 z "},"Ẳ":{"ha":0,"x_min":0,"x_max":0,"o":""},"Ẵ":{"ha":161,"x_min":0,"x_max":0,"o":""},"Ǎ":{"ha":161,"x_min":0,"x_max":0,"o":""},"Â":{"ha":161,"x_min":0,"x_max":0,"o":""},"Ấ":{"ha":0,"x_min":0,"x_max":0,"o":""},"Ậ":{"ha":0,"x_min":0,"x_max":0,"o":""},"Ầ":{"ha":161,"x_min":0,"x_max":0,"o":""},"Ẩ":{"ha":0,"x_min":0,"x_max":0,"o":""},"Ẫ":{"ha":161,"x_min":0,"x_max":0,"o":""},"Ȁ":{"ha":0,"x_min":0,"x_max":0,"o":""},"Ä":{"ha":0,"x_min":0,"x_max":0,"o":""},"Ǟ":{"ha":0,"x_min":0,"x_max":0,"o":""},"Ạ":{"ha":0,"x_min":0,"x_max":0,"o":""},"Ǡ":{"ha":0,"x_min":0,"x_max":0,"o":""},"À":{"ha":161,"x_min":0,"x_max":0,"o":""},"Ả":{"ha":0,"x_min":0,"x_max":0,"o":""},"Ȃ":{"ha":161,"x_min":0,"x_max":0,"o":""},"Ā":{"ha":161,"x_min":0,"x_max":0,"o":""},"Ą":{"ha":-34,"x_min":0,"x_max":0,"o":"l 161 0 l 161 2 "},"Å":{"ha":0,"x_min":0,"x_max":0,"o":""},"Ǻ":{"ha":161,"x_min":0,"x_max":0,"o":"m 22 -798 l 345 385 l 468 761 l 475 761 l 597 385 z m 406 1183 z m 406 1364 z "},"Ḁ":{"ha":0,"x_min":0,"x_max":0,"o":""},"Ã":{"ha":161,"x_min":0,"x_max":0,"o":""},"Æ":{"ha":545,"x_min":0,"x_max":0,"o":""},"Ǽ":{"ha":0,"x_min":0,"x_max":0,"o":""},"Ǣ":{"ha":0,"x_min":0,"x_max":0,"o":""},"B":{"ha":48,"x_min":0,"x_max":0,"o":""},"Ḃ":{"ha":0,"x_min":0,"x_max":0,"o":""},"Ḅ":{"ha":0,"x_min":0,"x_max":0,"o":""},"Ɓ":{"ha":323,"x_min":0,"x_max":0,"o":"m 323 815 l 323 850 l -492 850 l -492 1267 l -920 1267 l -920 1449 l -863 1449 b -766 1571 -863 1507 -846 1570 "},"Ḇ":{"ha":48,"x_min":0,"x_max":0,"o":"m 83 0 l 499 0 l 499 -391 "},"Ƃ":{"ha":0,"x_min":0,"x_max":0,"o":""},"C":{"ha":169,"x_min":0,"x_max":0,"o":""},"Ć":{"ha":0,"x_min":0,"x_max":0,"o":""},"Č":{"ha":0,"x_min":0,"x_max":0,"o":""},"Ç":{"ha":0,"x_min":0,"x_max":0,"o":""},"Ḉ":{"ha":0,"x_min":0,"x_max":0,"o":""},"Ĉ":{"ha":0,"x_min":0,"x_max":0,"o":""},"Ċ":{"ha":0,"x_min":0,"x_max":0,"o":""},"Ƈ":{"ha":283,"x_min":0,"x_max":0,"o":"m 945 640 l 945 724 b 1077 846 946 816 1016 846 l 1135 844 l 1135 1005 b 1039 1012 1101 1011 1072 1011 b 801 908 943 1011 854 976 "},"D":{"ha":138,"x_min":0,"x_max":0,"o":""},"Ǳ":{"ha":1026,"x_min":0,"x_max":0,"o":"m 623 639 l 1116 639 l 624 -53 l 624 -175 l 1373 -175 l 1373 -7 l 880 -7 l 1371 685 l 1371 807 l 623 807 z "},"Ð":{"ha":0,"x_min":0,"x_max":0,"o":""},"Ɖ":{"ha":0,"x_min":0,"x_max":0,"o":""},"Ď":{"ha":0,"x_min":0,"x_max":0,"o":""},"Ḑ":{"ha":0,"x_min":0,"x_max":0,"o":""},"Ḓ":{"ha":0,"x_min":0,"x_max":0,"o":""},"Đ":{"ha":0,"x_min":0,"x_max":0,"o":""},"Ḋ":{"ha":0,"x_min":0,"x_max":0,"o":""},"Ḍ":{"ha":0,"x_min":0,"x_max":0,"o":""},"Ɗ":{"ha":417,"x_min":0,"x_max":0,"o":"m 45 731 l 45 636 l 227 636 l 227 693 b 323 807 226 751 243 807 l 362 807 l 362 0 l 708 0 l 317 0 b 41 -251 146 0 40 -98 "},"Ḏ":{"ha":0,"x_min":0,"x_max":0,"o":""},"Ƌ":{"ha":58,"x_min":0,"x_max":0,"o":"m 453 0 l 819 0 l 819 978 l 171 978 l 171 810 l 613 810 l 613 618 l 453 618 b 76 313 221 619 76 497 b 453 0 76 129 221 0 z m 283 315 b 453 454 283 393 339 455 l 613 454 l 613 164 l 453 164 b 283 315 339 165 283 233 z "},"ǲ":{"ha":899,"x_min":0,"x_max":0,"o":"m 627 -175 z "},"ǅ":{"ha":899,"x_min":0,"x_max":0,"o":"m 627 -175 "},"E":{"ha":-18,"x_min":0,"x_max":0,"o":""},"É":{"ha":0,"x_min":0,"x_max":0,"o":""},"Ĕ":{"ha":0,"x_min":0,"x_max":0,"o":""},"Ě":{"ha":0,"x_min":0,"x_max":0,"o":""},"Ḝ":{"ha":0,"x_min":0,"x_max":0,"o":""},"Ê":{"ha":0,"x_min":0,"x_max":0,"o":""},"Ế":{"ha":0,"x_min":0,"x_max":0,"o":""},"Ḙ":{"ha":0,"x_min":0,"x_max":0,"o":""},"Ệ":{"ha":0,"x_min":0,"x_max":0,"o":""},"Ề":{"ha":-18,"x_min":0,"x_max":0,"o":""},"Ể":{"ha":0,"x_min":0,"x_max":0,"o":""},"Ễ":{"ha":-18,"x_min":0,"x_max":0,"o":""},"Ȅ":{"ha":0,"x_min":0,"x_max":0,"o":""},"Ë":{"ha":0,"x_min":0,"x_max":0,"o":""},"Ė":{"ha":0,"x_min":0,"x_max":0,"o":""},"Ẹ":{"ha":0,"x_min":0,"x_max":0,"o":""},"È":{"ha":0,"x_min":0,"x_max":0,"o":""},"Ẻ":{"ha":0,"x_min":0,"x_max":0,"o":""},"Ȇ":{"ha":0,"x_min":0,"x_max":0,"o":""},"Ē":{"ha":0,"x_min":0,"x_max":0,"o":""},"Ḗ":{"ha":0,"x_min":0,"x_max":0,"o":""},"Ḕ":{"ha":0,"x_min":0,"x_max":0,"o":""},"Ę":{"ha":-18,"x_min":0,"x_max":0,"o":"m 83 0 l 527 0 l 493 -43 l 481 -98 l 491 -149 l 490 -149 l 490 19 z "},"Ɛ":{"ha":59,"x_min":0,"x_max":0,"o":"m 72 271 b 450 -14 71 81 224 -14 b 823 267 661 -14 822 88 l 616 267 b 445 151 615 199 558 151 b 279 285 345 151 279 188 b 446 420 279 374 332 420 l 566 420 l 566 579 l 446 579 b 294 704 338 578 294 632 b 452 829 294 784 345 829 b 602 723 549 829 602 789 l 808 723 b 452 996 808 885 659 996 b 87 718 232 996 87 892 b 243 503 87 619 146 543 b 72 271 133 465 71 387 z "},"Ʃ":{"ha":60,"x_min":0,"x_max":0,"o":"m 795 170 l 379 170 l 609 484 l 609 494 l 379 808 l 780 808 l 780 978 l 94 978 l 94 876 l 391 488 l 94 100 l 94 0 l 795 0 z "},"Ẽ":{"ha":0,"x_min":0,"x_max":0,"o":""},"Ḛ":{"ha":0,"x_min":0,"x_max":0,"o":""},"Ǝ":{"ha":-18,"x_min":0,"x_max":0,"o":"m 735 982 l 75 982 l 75 814 l 532 814 l 532 575 l 110 575 l 110 407 l 532 407 l 532 168 l 76 168 l 76 0 l 735 0 z "},"Ə":{"ha":185,"x_min":0,"x_max":0,"o":"m 499 -14 b 936 427 764 -14 936 171 l 936 551 b 467 996 936 817 767 996 b 159 944 342 996 200 966 l 193 774 b 445 814 258 797 357 814 b 730 551 661 814 729 707 l 730 549 l 85 549 l 85 438 b 499 -14 86 157 246 -14 z m 292 362 l 292 382 l 727 382 b 499 167 713 255 640 166 b 292 362 368 166 292 240 z "},"Ʒ":{"ha":82,"x_min":0,"x_max":0,"o":""},"Ǯ":{"ha":0,"x_min":0,"x_max":0,"o":""},"Ƹ":{"ha":82,"x_min":0,"x_max":0,"o":"m 873 69 l 667 69 b 464 -118 661 -42 574 -119 b 258 132 335 -119 257 -12 b 496 392 257 292 357 392 l 602 392 l 602 540 l 326 803 l 326 811 l 819 811 l 819 982 l 71 982 l 71 836 l 392 532 l 392 522 b 46 134 185 506 46 351 b 463 -292 46 -113 218 -291 b 873 69 693 -291 867 -141 z "},"F":{"ha":-55,"x_min":0,"x_max":0,"o":""},"Ḟ":{"ha":0,"x_min":0,"x_max":0,"o":""},"Ƒ":{"ha":-25,"x_min":0,"x_max":0,"o":"m 111 982 l 111 -46 b 9 -119 111 -104 63 -119 b -33 -118 -3 -119 -20 -119 l -33 -271 b 50 -277 -3 -276 31 -276 b 315 -46 193 -276 315 -234 l 315 407 z "},"G":{"ha":181,"x_min":0,"x_max":0,"o":""},"Ǵ":{"ha":0,"x_min":0,"x_max":0,"o":""},"Ǥ":{"ha":181,"x_min":0,"x_max":0,"o":"m 997 317 l 944 317 b 951 401 949 344 951 372 l 951 524 l 541 524 l 541 370 l 754 370 b 747 317 753 351 751 334 l 541 317 l 541 243 l 711 243 b 528 275 673 195 610 168 b 378 NaN 527 349 471 376 l 585 NaN b 751 NaN 778 NaN 751 NaN b 1037 NaN 751 NaN 943 NaN b 1257 NaN 1199 NaN 1257 NaN l 1329 NaN z "},"Ğ":{"ha":0,"x_min":0,"x_max":0,"o":""},"Ǧ":{"ha":0,"x_min":0,"x_max":0,"o":""},"Ĝ":{"ha":0,"x_min":0,"x_max":0,"o":""},"Ģ":{"ha":0,"x_min":0,"x_max":0,"o":""},"Ġ":{"ha":0,"x_min":0,"x_max":0,"o":""},"Ɠ":{"ha":277,"x_min":0,"x_max":0,"o":"m 941 666 l 941 814 b 1067 910 941 893 1000 909 b 1123 905 1086 909 1105 907 l 1123 1065 b 1028 1076 1091 1073 1060 1076 b 762 933 911 1076 809 1026 b 629 992 802 866 720 888 b 488 NaN 629 1065 576 1095 l 488 NaN z "},"Ḡ":{"ha":0,"x_min":0,"x_max":0,"o":""},"Ȝ":{"ha":58,"x_min":0,"x_max":0,"o":"m 152 365 l 152 210 b 560 357 322 250 458 299 b 608 235 595 337 608 298 b 152 -125 608 41 438 -69 l 152 -288 b 815 228 544 -233 814 -62 b 691 452 814 333 768 409 b 800 707 764 524 800 609 b 439 996 800 900 659 996 b 80 723 229 996 79 885 l 285 723 b 439 830 286 788 345 830 b 595 680 543 830 595 782 b 152 365 595 534 481 462 z "},"H":{"ha":163,"x_min":0,"x_max":0,"o":""},"Ħ":{"ha":248,"x_min":0,"x_max":0,"o":"m 1040 811 l 960 811 l 960 982 l 755 982 l 755 811 l 330 811 l 330 982 l 126 982 l 126 811 l 45 811 l 45 696 l 126 696 l 126 0 l 330 0 l 330 407 l 755 407 l 755 0 l 960 0 l 960 696 l 1040 696 z m 330 575 l 330 696 l 755 696 l 755 575 z "},"Ḫ":{"ha":0,"x_min":0,"x_max":0,"o":""},"Ḩ":{"ha":163,"x_min":0,"x_max":0,"o":"m 83 0 l 139 0 l 119 -95 b 214 -160 186 -102 216 -121 l 222 -121 z "},"Ĥ":{"ha":0,"x_min":0,"x_max":0,"o":""},"Ḧ":{"ha":0,"x_min":0,"x_max":0,"o":""},"Ḣ":{"ha":0,"x_min":0,"x_max":0,"o":""},"Ḥ":{"ha":0,"x_min":0,"x_max":0,"o":""},"I":{"ha":-467,"x_min":0,"x_max":0,"o":""},"Ĳ":{"ha":0,"x_min":0,"x_max":0,"o":""},"Í":{"ha":0,"x_min":0,"x_max":0,"o":""},"Ĭ":{"ha":0,"x_min":0,"x_max":0,"o":""},"Ǐ":{"ha":0,"x_min":0,"x_max":0,"o":""},"Î":{"ha":0,"x_min":0,"x_max":0,"o":""},"Ȉ":{"ha":0,"x_min":0,"x_max":0,"o":""},"Ï":{"ha":0,"x_min":0,"x_max":0,"o":""},"Ḯ":{"ha":0,"x_min":0,"x_max":0,"o":""},"İ":{"ha":0,"x_min":0,"x_max":0,"o":""},"Ị":{"ha":0,"x_min":0,"x_max":0,"o":""},"Ì":{"ha":0,"x_min":0,"x_max":0,"o":""},"Ỉ":{"ha":0,"x_min":0,"x_max":0,"o":""},"Ȋ":{"ha":-467,"x_min":0,"x_max":0,"o":""},"Ī":{"ha":0,"x_min":0,"x_max":0,"o":""},"Į":{"ha":-467,"x_min":0,"x_max":0,"o":"m 286 982 l 83 982 l 83 15 b 34 -149 39 -29 23 -92 l 33 -149 z "},"Ɩ":{"ha":-401,"x_min":0,"x_max":0,"o":""},"Ɨ":{"ha":-467,"x_min":0,"x_max":0,"o":"m 286 982 l 83 982 z "},"Ĩ":{"ha":-248,"x_min":0,"x_max":0,"o":"m 395 982 "},"Ḭ":{"ha":0,"x_min":0,"x_max":0,"o":""},"J":{"ha":0,"x_min":0,"x_max":0,"o":""},"Ĵ":{"ha":-77,"x_min":0,"x_max":0,"o":"m 475 982 l 475 297 l 1160 297 "},"K":{"ha":85,"x_min":0,"x_max":0,"o":""},"Ḱ":{"ha":0,"x_min":0,"x_max":0,"o":""},"Ǩ":{"ha":0,"x_min":0,"x_max":0,"o":""},"Ķ":{"ha":0,"x_min":0,"x_max":0,"o":""},"Ḳ":{"ha":0,"x_min":0,"x_max":0,"o":""},"Ƙ":{"ha":136,"x_min":0,"x_max":0,"o":"m 83 0 l 286 0 l 286 255 l 407 385 l 699 0 l 943 0 l 537 529 l 770 773 b 902 806 815 819 849 834 l 968 951 b 625 902 846 1023 725 1006 l 300 557 l 286 557 l 286 982 l 83 982 z "},"Ḵ":{"ha":0,"x_min":0,"x_max":0,"o":""},"L":{"ha":-78,"x_min":0,"x_max":0,"o":""},"Ǉ":{"ha":0,"x_min":0,"x_max":0,"o":""},"Ĺ":{"ha":0,"x_min":0,"x_max":0,"o":""},"Ƚ":{"ha":-78,"x_min":0,"x_max":0,"o":"m 83 0 l 709 0 l 709 168 l 286 168 l 286 458 l 690 458 l 690 255 l 286 255 l 286 118 l 167 118 l 167 255 z "},"Ľ":{"ha":0,"x_min":0,"x_max":0,"o":""},"Ḽ":{"ha":0,"x_min":0,"x_max":0,"o":""},"Ļ":{"ha":0,"x_min":0,"x_max":0,"o":""},"Ŀ":{"ha":-63,"x_min":0,"x_max":0,"o":"m 85 0 l 712 0 l 712 168 l 289 168 l 289 982 l 85 982 z m 382 594 z "},"Ḷ":{"ha":0,"x_min":0,"x_max":0,"o":""},"Ḹ":{"ha":0,"x_min":0,"x_max":0,"o":""},"ǈ":{"ha":0,"x_min":0,"x_max":0,"o":""},"Ḻ":{"ha":0,"x_min":0,"x_max":0,"o":""},"Ł":{"ha":-55,"x_min":0,"x_max":0,"o":"m 458 633 l 326 596 l 326 982 l 122 982 l 122 540 l 15 510 l 15 399 l 122 428 l 122 0 l 749 0 l 749 168 l 326 168 l 326 484 l 458 521 z "},"M":{"ha":390,"x_min":0,"x_max":0,"o":""},"Ḿ":{"ha":0,"x_min":0,"x_max":0,"o":""},"Ṁ":{"ha":0,"x_min":0,"x_max":0,"o":""},"Ṃ":{"ha":0,"x_min":0,"x_max":0,"o":""},"N":{"ha":149,"x_min":0,"x_max":0,"o":""},"Ǌ":{"ha":0,"x_min":0,"x_max":0,"o":""},"Ń":{"ha":0,"x_min":0,"x_max":0,"o":""},"Ň":{"ha":0,"x_min":0,"x_max":0,"o":""},"Ṋ":{"ha":0,"x_min":0,"x_max":0,"o":""},"Ņ":{"ha":0,"x_min":0,"x_max":0,"o":""},"Ṅ":{"ha":0,"x_min":0,"x_max":0,"o":""},"Ṇ":{"ha":0,"x_min":0,"x_max":0,"o":""},"Ɲ":{"ha":172,"x_min":0,"x_max":0,"o":"m 104 0 l 104 -46 b 3 -119 105 -104 57 -119 b -38 -118 -9 -119 -26 -119 l -38 -271 b 56 -277 -14 -276 31 -276 b 309 -46 182 -276 309 -234 l 309 624 l 317 624 l 749 0 l 925 0 l 925 982 z "},"ǋ":{"ha":0,"x_min":0,"x_max":0,"o":""},"Ṉ":{"ha":0,"x_min":0,"x_max":0,"o":""},"Ñ":{"ha":0,"x_min":0,"x_max":0,"o":""},"Ŋ":{"ha":149,"x_min":0,"x_max":0,"o":"m 726 0 l 726 -43 b 613 -136 725 -107 680 -136 b 543 -129 587 -136 562 -132 l 543 -281 b 617 -290 565 -288 593 -291 b 902 -41 788 -291 902 -226 l 902 982 l 700 982 l 700 358 l 690 358 l 262 982 l 83 982 l 83 0 l 286 0 l 286 624 l 294 624 z "},"O":{"ha":210,"x_min":0,"x_max":0,"o":""},"Ƣ":{"ha":413,"x_min":0,"x_max":0,"o":"m 867 123 l 867 701 l 970 746 l 970 -277 l 1166 -277 l 1166 982 l 1017 982 l 829 897 b 507 996 763 951 648 996 b 64 530 228 996 64 825 l 64 452 b 503 -14 64 161 226 -14 b 867 123 676 -14 811 54 z m 273 452 l 273 530 b 513 830 273 724 336 830 b 669 784 574 830 634 814 l 669 199 b 511 151 637 171 580 151 b 273 452 339 151 273 267 z "},"Ó":{"ha":0,"x_min":0,"x_max":0,"o":""},"Ɵ":{"ha":0,"x_min":0,"x_max":0,"o":""},"Ŏ":{"ha":0,"x_min":0,"x_max":0,"o":""},"Ǒ":{"ha":0,"x_min":0,"x_max":0,"o":""},"Ô":{"ha":0,"x_min":0,"x_max":0,"o":""},"Ố":{"ha":0,"x_min":0,"x_max":0,"o":""},"Ộ":{"ha":210,"x_min":0,"x_max":0,"o":"m 16 -586 "},"Ồ":{"ha":210,"x_min":0,"x_max":0,"o":"m 58 -836 z "},"Ổ":{"ha":0,"x_min":0,"x_max":0,"o":""},"Ỗ":{"ha":210,"x_min":0,"x_max":0,"o":""},"Ȍ":{"ha":210,"x_min":0,"x_max":0,"o":"m -109 -804 "},"Ö":{"ha":0,"x_min":0,"x_max":0,"o":""},"Ọ":{"ha":0,"x_min":0,"x_max":0,"o":""},"Ò":{"ha":0,"x_min":0,"x_max":0,"o":""},"Ỏ":{"ha":0,"x_min":0,"x_max":0,"o":""},"Ơ":{"ha":252,"x_min":0,"x_max":0,"o":""},"Ớ":{"ha":0,"x_min":0,"x_max":0,"o":""},"Ợ":{"ha":0,"x_min":0,"x_max":0,"o":""},"Ờ":{"ha":0,"x_min":0,"x_max":0,"o":""},"Ở":{"ha":0,"x_min":0,"x_max":0,"o":""},"Ỡ":{"ha":0,"x_min":0,"x_max":0,"o":""},"Ő":{"ha":0,"x_min":0,"x_max":0,"o":""},"Ȏ":{"ha":210,"x_min":0,"x_max":0,"o":""},"Ō":{"ha":0,"x_min":0,"x_max":0,"o":""},"Ṓ":{"ha":0,"x_min":0,"x_max":0,"o":""},"Ṑ":{"ha":0,"x_min":0,"x_max":0,"o":""},"Ǫ":{"ha":210,"x_min":0,"x_max":0,"o":""},"Ǭ":{"ha":0,"x_min":0,"x_max":0,"o":""},"Ɔ":{"ha":169,"x_min":0,"x_max":0,"o":""},"Ø":{"ha":210,"x_min":0,"x_max":0,"o":""},"Ǿ":{"ha":0,"x_min":0,"x_max":0,"o":""},"Õ":{"ha":0,"x_min":0,"x_max":0,"o":""},"Ṍ":{"ha":0,"x_min":0,"x_max":0,"o":""},"Ṏ":{"ha":210,"x_min":0,"x_max":0,"o":"m 41 -251 "},"Œ":{"ha":527,"x_min":0,"x_max":0,"o":"m 510 0 l 1289 0 l 1289 168 l 511 168 b 65 -324 255 168 65 -5 b 511 -814 65 -640 255 -814 z m 270 -324 b 511 0 270 -102 370 0 l 629 0 l 629 -646 l 511 -646 b 270 -324 370 -645 270 -547 z "},"P":{"ha":0,"x_min":0,"x_max":0,"o":""},"Ṕ":{"ha":29,"x_min":0,"x_max":0,"o":"m 83 0 "},"Ṗ":{"ha":29,"x_min":0,"x_max":0,"o":"m 83 0 "},"Ƥ":{"ha":304,"x_min":0,"x_max":0,"o":"m 227 636 l 227 693 b 323 815 226 751 243 814 l 358 815 l 358 0 l 562 0 l 562 320 l 738 320 b 1095 651 964 320 1095 455 l 1095 229 z "},"Þ":{"ha":0,"x_min":0,"x_max":0,"o":""},"Q":{"ha":211,"x_min":0,"x_max":0,"o":"m 452 340 l 580 173 b 524 167 562 169 543 167 b 776 491 524 377 623 490 b 1027 167 927 490 1027 377 b 954 -79 1027 58 1000 -25 l 879 16 b 1088 -486 879 -547 1029 -486 b 1118 NaN 1098 -486 1118 -433 l 1196 NaN l 1388 NaN l 1248 NaN b 1404 NaN 1344 NaN 1404 NaN b 945 NaN 1404 NaN 1205 NaN z "},"Ɋ":{"ha":272,"x_min":0,"x_max":0,"o":"m 960 -46 l 960 982 l 761 982 l 761 838 l 751 838 b 476 996 704 928 609 996 b 64 492 239 996 64 778 b 476 -15 64 205 237 -14 b 751 145 608 -14 704 52 l 760 145 l 760 -46 b 1009 -277 760 -225 871 -276 b 1112 -270 1054 -276 1089 -273 l 1112 -115 b 1063 -119 1097 -118 1080 -119 b 960 -46 1010 -119 960 -104 z m 271 492 b 517 817 272 690 363 817 b 761 492 679 817 760 685 b 515 167 760 296 683 168 b 271 492 366 168 272 287 z "},"R":{"ha":41,"x_min":0,"x_max":0,"o":""},"Ŕ":{"ha":0,"x_min":0,"x_max":0,"o":""},"Ř":{"ha":0,"x_min":0,"x_max":0,"o":""},"Ŗ":{"ha":0,"x_min":0,"x_max":0,"o":""},"Ȑ":{"ha":0,"x_min":0,"x_max":0,"o":""},"Ṙ":{"ha":0,"x_min":0,"x_max":0,"o":""},"Ṛ":{"ha":0,"x_min":0,"x_max":0,"o":""},"Ṝ":{"ha":0,"x_min":0,"x_max":0,"o":""},"Ȓ":{"ha":0,"x_min":0,"x_max":0,"o":""},"Ṟ":{"ha":0,"x_min":0,"x_max":0,"o":""},"S":{"ha":39,"x_min":0,"x_max":0,"o":""},"Ś":{"ha":0,"x_min":0,"x_max":0,"o":""},"Ṥ":{"ha":39,"x_min":0,"x_max":0,"o":"m 171 -164 l -222 -164 l -222 378 l -113 378 l 22 548 l -126 548 z "},"Š":{"ha":0,"x_min":0,"x_max":0,"o":""},"Ṧ":{"ha":39,"x_min":0,"x_max":0,"o":""},"Ş":{"ha":0,"x_min":0,"x_max":0,"o":"b 172 313 39 616 44 422 b NaN NaN 377 298 360 216 l NaN NaN b NaN NaN NaN NaN NaN NaN l NaN NaN "},"Ŝ":{"ha":0,"x_min":0,"x_max":0,"o":""},"Ș":{"ha":0,"x_min":0,"x_max":0,"o":""},"Ṡ":{"ha":0,"x_min":0,"x_max":0,"o":""},"Ṣ":{"ha":0,"x_min":0,"x_max":0,"o":""},"Ṩ":{"ha":0,"x_min":0,"x_max":0,"o":""},"ẞ":{"ha":121,"x_min":0,"x_max":0,"o":"m 83 647 l 83 0 l 286 0 l 286 647 b 430 834 287 752 328 833 b 609 773 503 833 564 807 l 429 567 l 429 444 l 518 444 b 708 285 597 443 707 412 b 545 148 707 200 648 147 b 400 179 494 147 443 161 l 343 26 b 559 -14 405 1 488 -14 b 907 283 762 -14 907 102 b 635 568 907 436 801 548 l 853 827 b 429 996 732 923 571 996 b 83 647 216 996 83 863 z "},"T":{"ha":56,"x_min":0,"x_max":0,"o":""},"Ŧ":{"ha":56,"x_min":0,"x_max":0,"o":"m 45 814 l 346 814 l 346 530 l -65 530 l -65 732 l 346 732 l 346 1016 l 647 1016 l 647 1184 l -157 1184 z "},"Ť":{"ha":0,"x_min":0,"x_max":0,"o":""},"Ṱ":{"ha":0,"x_min":0,"x_max":0,"o":""},"Ţ":{"ha":56,"x_min":0,"x_max":0,"o":"m 45 814 l 346 814 l 346 0 l 401 0 l 381 -94 b 476 -159 448 -101 478 -120 l 484 -121 l 536 -121 l 536 693 l 837 693 l 837 861 l 33 861 z "},"Ṫ":{"ha":0,"x_min":0,"x_max":0,"o":""},"Ṭ":{"ha":0,"x_min":0,"x_max":0,"o":""},"Ƭ":{"ha":104,"x_min":0,"x_max":0,"o":"m 895 982 l 311 982 b 45 731 138 982 44 886 l 45 637 l 214 637 l 214 694 b 311 814 214 753 232 814 l 393 814 l 393 0 l 594 0 l 594 814 l 895 814 z "},"Ṯ":{"ha":0,"x_min":0,"x_max":0,"o":""},"Ƽ":{"ha":12,"x_min":0,"x_max":0,"o":"m 776 982 l 43 982 l 43 815 l 155 815 l 118 416 l 302 416 b 457 499 332 471 383 499 b 633 321 560 498 634 426 b 460 148 634 219 562 147 b 300 277 374 147 304 200 l 102 277 b 460 -14 105 107 255 -14 z "},"Ƅ":{"ha":238,"x_min":0,"x_max":0,"o":"m 486 982 l 45 982 l 45 814 l 281 814 l 281 0 l 118 0 z m 118 -453 z "},"Ƨ":{"ha":39,"x_min":0,"x_max":0,"o":"m 64 701 l 260 701 b 430 825 268 779 330 825 b 590 712 532 825 589 777 b 433 590 591 641 517 609 l 345 568 b 50 281 176 530 51 444 b 431 -14 51 101 192 -14 b 825 307 668 -14 819 96 l 627 307 b 433 157 621 208 541 157 b 256 281 326 157 257 208 b 425 406 257 348 317 379 l 532 431 b 799 699 697 472 799 555 b 429 996 800 877 642 996 b 64 701 210 996 67 875 z "},"Ʈ":{"ha":56,"x_min":0,"x_max":0,"o":"m 547 -46 l 547 0 l 548 0 l 548 814 l -312 814 b -58 583 -313 626 -186 584 l 35 583 l 35 742 l -5 742 b -111 814 -58 742 -111 755 z "},"U":{"ha":142,"x_min":0,"x_max":0,"o":""},"Ú":{"ha":0,"x_min":0,"x_max":0,"o":""},"Ŭ":{"ha":0,"x_min":0,"x_max":0,"o":""},"Ǔ":{"ha":0,"x_min":0,"x_max":0,"o":""},"Û":{"ha":0,"x_min":0,"x_max":0,"o":""},"Ṷ":{"ha":0,"x_min":0,"x_max":0,"o":""},"Ȕ":{"ha":0,"x_min":0,"x_max":0,"o":""},"Ü":{"ha":0,"x_min":0,"x_max":0,"o":""},"Ǘ":{"ha":0,"x_min":0,"x_max":0,"o":""},"Ṳ":{"ha":142,"x_min":0,"x_max":0,"o":"m 342 0 z "},"Ǚ":{"ha":0,"x_min":0,"x_max":0,"o":""},"Ǜ":{"ha":142,"x_min":0,"x_max":0,"o":"m 72 195 l -572 380 l -452 252 l -345 252 l -431 380 "},"Ǖ":{"ha":0,"x_min":0,"x_max":0,"o":""},"Ụ":{"ha":0,"x_min":0,"x_max":0,"o":""},"Ù":{"ha":0,"x_min":0,"x_max":0,"o":""},"Ủ":{"ha":0,"x_min":0,"x_max":0,"o":""},"Ư":{"ha":330,"x_min":0,"x_max":0,"o":""},"Ứ":{"ha":0,"x_min":0,"x_max":0,"o":""},"Ự":{"ha":0,"x_min":0,"x_max":0,"o":""},"Ừ":{"ha":0,"x_min":0,"x_max":0,"o":""},"Ử":{"ha":0,"x_min":0,"x_max":0,"o":""},"Ữ":{"ha":0,"x_min":0,"x_max":0,"o":""},"Ű":{"ha":0,"x_min":0,"x_max":0,"o":""},"Ȗ":{"ha":142,"x_min":0,"x_max":0,"o":""},"Ū":{"ha":0,"x_min":0,"x_max":0,"o":""},"Ṻ":{"ha":142,"x_min":0,"x_max":0,"o":"m 4 -250 l -640 -250 l -640 99 l -172 99 l -172 210 l -640 210 z m -351 349 b -259 271 -352 304 -315 271 b -167 349 -205 271 -168 304 b -259 426 -168 391 -204 427 b -351 349 -315 427 -352 392 z "},"Ų":{"ha":142,"x_min":0,"x_max":0,"o":"m 690 982 b 998 632 690 798 810 665 b 904 593 998 602 956 593 b 864 677 913 593 864 637 b NaN 736 864 708 922 736 b NaN 1082 NaN 775 NaN 904 l NaN 1719 z "},"Ʊ":{"ha":205,"x_min":0,"x_max":0,"o":"m 57 450 b 521 -14 58 179 250 -14 b 985 450 792 -14 985 179 b 800 806 985 614 913 734 l 800 814 l 985 814 l 985 982 l 597 982 l 597 770 b 779 465 701 728 779 610 b 521 168 779 296 672 169 b 263 465 370 169 263 296 b 445 770 263 610 341 728 l 445 982 l 57 982 l 57 814 l 241 814 l 241 806 b 57 450 129 734 58 614 z "},"Ů":{"ha":142,"x_min":0,"x_max":0,"o":"m 83 0 "},"Ũ":{"ha":0,"x_min":0,"x_max":0,"o":""},"Ṹ":{"ha":0,"x_min":0,"x_max":0,"o":""},"Ṵ":{"ha":0,"x_min":0,"x_max":0,"o":""},"V":{"ha":161,"x_min":0,"x_max":0,"o":""},"Ɣ":{"ha":154,"x_min":0,"x_max":0,"o":"m 38 982 l 394 256 b 252 -109 281 8 253 -54 b 495 -292 253 -223 349 -292 b 732 -113 639 -292 732 -218 b 597 255 732 -49 684 64 l 952 982 l 719 982 l 495 480 l 270 982 z m 456 -100 b 496 44 455 -64 471 -15 b 534 -99 521 -15 535 -62 b 495 -149 535 -130 520 -149 b 456 -100 470 -149 455 -131 z "},"Ʋ":{"ha":55,"x_min":0,"x_max":0,"o":"m 446 -14 b 827 330 667 -14 827 107 l 827 727 b 566 996 827 900 727 996 b 468 985 530 996 500 991 l 468 821 b 526 826 489 824 510 826 b 617 727 593 826 618 802 l 617 330 b 446 151 618 213 562 151 b 273 330 331 151 273 213 l 273 982 l 66 982 l 66 330 b 446 -14 66 106 225 -14 z "},"Ṿ":{"ha":0,"x_min":0,"x_max":0,"o":""},"Ṽ":{"ha":0,"x_min":0,"x_max":0,"o":""},"W":{"ha":551,"x_min":0,"x_max":0,"o":""},"Ẃ":{"ha":0,"x_min":0,"x_max":0,"o":""},"Ŵ":{"ha":0,"x_min":0,"x_max":0,"o":""},"Ẅ":{"ha":0,"x_min":0,"x_max":0,"o":""},"Ẇ":{"ha":0,"x_min":0,"x_max":0,"o":""},"Ẉ":{"ha":0,"x_min":0,"x_max":0,"o":""},"Ẁ":{"ha":0,"x_min":0,"x_max":0,"o":""},"X":{"ha":0,"x_min":0,"x_max":0,"o":""},"Ẍ":{"ha":0,"x_min":0,"x_max":0,"o":""},"Ẋ":{"ha":0,"x_min":0,"x_max":0,"o":""},"Y":{"ha":130,"x_min":0,"x_max":0,"o":""},"Ʀ":{"ha":182,"x_min":0,"x_max":0,"o":"m 62 1050 l 62 0 l 270 0 l 270 370 l 418 370 l 735 -232 l 958 -232 l 958 -222 l 612 418 b 798 692 725 465 797 545 b 431 982 797 881 658 983 l 269 982 l 269 1050 z m 270 536 l 270 817 l 431 817 b 591 674 539 817 591 762 b 431 536 591 591 536 535 z "},"Ý":{"ha":0,"x_min":0,"x_max":0,"o":""},"Ŷ":{"ha":0,"x_min":0,"x_max":0,"o":""},"Ÿ":{"ha":0,"x_min":0,"x_max":0,"o":""},"Ẏ":{"ha":0,"x_min":0,"x_max":0,"o":""},"Ỵ":{"ha":0,"x_min":0,"x_max":0,"o":""},"Ỳ":{"ha":0,"x_min":0,"x_max":0,"o":""},"Ƴ":{"ha":216,"x_min":0,"x_max":0,"o":"m 31 982 l 411 381 l 411 0 l 614 0 l 614 381 l 857 764 b 993 818 895 823 929 838 l 1038 971 b 701 861 917 1017 783 998 l 519 559 l 506 559 l 254 982 z "},"Ỷ":{"ha":0,"x_min":0,"x_max":0,"o":""},"Ỹ":{"ha":0,"x_min":0,"x_max":0,"o":""},"Z":{"ha":54,"x_min":0,"x_max":0,"o":""},"Ź":{"ha":0,"x_min":0,"x_max":0,"o":""},"Ƶ":{"ha":54,"x_min":0,"x_max":0,"o":"m 71 0 l 819 0 l 819 168 l 327 168 l 533 458 l 697 458 l 697 578 l 618 578 l 818 860 l 650 624 l 476 624 l 476 505 l 565 505 l 326 168 z "},"Ž":{"ha":0,"x_min":0,"x_max":0,"o":""},"Ẑ":{"ha":0,"x_min":0,"x_max":0,"o":""},"Ż":{"ha":0,"x_min":0,"x_max":0,"o":""},"Ẓ":{"ha":0,"x_min":0,"x_max":0,"o":""},"Ẕ":{"ha":0,"x_min":0,"x_max":0,"o":""},"Ɯ":{"ha":440,"x_min":0,"x_max":0,"o":"m 102 281 b 346 -14 102 66 185 -14 b 572 103 450 -14 526 30 b 783 -14 612 20 686 -14 b 987 77 872 -14 940 20 l 996 0 l 1176 0 l 1176 982 l 977 982 l 977 220 b 841 146 953 175 910 146 b 736 281 779 146 736 184 l 736 982 l 540 982 l 540 281 b 542 224 540 260 541 242 b 403 146 519 176 475 146 b 300 281 342 146 299 184 l 300 982 l 102 982 z "},"Ƕ":{"ha":672,"x_min":0,"x_max":0,"o":"m 1072 -14 b 1430 330 1290 -14 1430 111 l 1430 718 l 1225 718 l 1225 330 b 1072 159 1225 217 1169 159 b 917 330 975 159 916 217 l 917 982 l 712 982 l 712 0 l 916 0 l 916 407 l 1341 407 l 1341 330 b 1701 -14 1341 113 1482 -14 z "},"Ƿ":{"ha":158,"x_min":0,"x_max":0,"o":"m 312 982 l 106 982 l 106 -277 l 312 -277 l 312 -98 b 890 526 677 16 889 245 l 890 562 b 483 996 890 846 722 996 b 312 960 413 996 356 982 z m 312 73 l 312 762 b 484 830 353 804 411 830 b 680 563 639 830 680 710 l 680 526 b 312 73 679 334 559 166 z "},"Ǹ":{"ha":0,"x_min":0,"x_max":0,"o":""},"Ț":{"ha":0,"x_min":0,"x_max":0,"o":""},"Ȟ":{"ha":0,"x_min":0,"x_max":0,"o":""},"Ƞ":{"ha":59,"x_min":0,"x_max":0,"o":"m 811 -274 l 811 699 b 480 996 811 886 663 996 b 285 949 410 996 344 979 l 285 982 l 85 982 l 85 0 l 285 0 l 285 787 b 453 837 338 819 394 837 b 610 699 553 837 610 793 l 610 -274 z "},"Ȣ":{"ha":58,"x_min":0,"x_max":0,"o":"m 441 463 l 454 463 b 620 307 556 462 620 408 b 454 151 620 203 556 151 l 441 151 b 274 305 340 151 273 204 b 441 463 273 406 339 462 z m 64 305 b 441 -14 64 104 219 -14 l 454 -14 b 830 307 675 -14 829 104 b 718 538 829 408 789 486 b 831 739 789 578 832 644 b 541 996 831 903 718 995 l 541 837 b 623 739 597 824 623 795 b 457 629 623 647 558 630 l 437 629 b 274 739 337 630 274 646 b 354 837 273 796 298 824 l 354 996 b 64 739 178 994 64 904 b 176 538 64 644 105 578 b 64 305 104 487 64 408 z "},"Ȥ":{"ha":54,"x_min":0,"x_max":0,"o":"m 69 814 l 567 814 l 71 122 l 71 0 l 568 0 b 666 -118 649 0 666 -56 l 666 -168 l 834 -168 l 834 -81 b 568 168 835 73 739 169 l 321 168 l 818 860 l 818 982 l 69 982 z "},"Ȧ":{"ha":0,"x_min":0,"x_max":0,"o":""},"Ȩ":{"ha":-18,"x_min":0,"x_max":0,"o":""},"Ȫ":{"ha":0,"x_min":0,"x_max":0,"o":""},"Ȭ":{"ha":210,"x_min":0,"x_max":0,"o":"m 37 -308 l 54 498 l -28 521 b -75 465 -28 489 -50 465 b -233 509 -130 465 -174 509 b -343 388 -298 509 -343 450 z "},"Ȯ":{"ha":0,"x_min":0,"x_max":0,"o":""},"Ȱ":{"ha":0,"x_min":0,"x_max":0,"o":""},"Ȳ":{"ha":0,"x_min":0,"x_max":0,"o":""},"Ⱥ":{"ha":161,"x_min":0,"x_max":0,"o":"m 817 1107 l 692 1107 l 641 1107 l 641 949 l 629 949 l 629 982 l 849 982 l 923 1208 l 1008 1208 l 894 857 l 1020 857 l 1134 1208 l 1278 1208 l 1352 982 l 1571 982 l 1308 1745 z m 975 1367 l 1097 1743 l 1104 1743 l 1143 1624 l 1059 1367 z m 1185 1367 l 1206 1431 l 1227 1367 z "},"Ȼ":{"ha":169,"x_min":0,"x_max":0,"o":"m 243 -125 l 369 -125 l 409 -1 b 521 -14 444 -9 482 -14 b NaN NaN NaN NaN NaN NaN b NaN NaN NaN NaN NaN NaN l NaN NaN b NaN NaN NaN NaN NaN NaN l NaN NaN b NaN NaN NaN NaN NaN NaN l NaN NaN l NaN NaN l NaN NaN b NaN NaN NaN NaN NaN NaN b NaN NaN NaN NaN NaN NaN b NaN NaN NaN NaN NaN NaN z m NaN NaN b NaN NaN NaN NaN NaN NaN b NaN NaN NaN NaN NaN NaN l NaN NaN b NaN NaN NaN NaN NaN NaN z "},"Ⱦ":{"ha":56,"x_min":0,"x_max":0,"o":"m 201 -125 l 326 -125 l 366 0 l 548 0 l 548 560 l 631 814 l 849 814 l 849 982 l 685 982 l 726 1107 l 600 1107 l 559 982 l 45 982 l 45 814 l 346 814 l 346 323 z "},"Ɂ":{"ha":-70,"x_min":0,"x_max":0,"o":"m 370 336 l 275 336 l 275 0 l 483 0 l 483 184 b 715 529 635 230 715 365 l 715 632 b 368 996 715 836 591 996 b 50 705 187 996 52 880 l 248 705 b 370 826 249 774 290 827 b 506 632 489 827 507 715 l 506 529 b 370 336 507 421 481 337 z "},"Ƀ":{"ha":132,"x_min":0,"x_max":0,"o":"m 167 0 l 583 0 l 583 -391 l -39 -391 l -39 -532 l -159 -532 l -159 -391 z m 45 -463 z "},"Ʉ":{"ha":180,"x_min":0,"x_max":0,"o":"m 1027 559 l 918 559 l 918 982 l 713 982 l 713 559 l 309 559 l 309 982 l 106 982 l 106 559 l -11 559 l -11 441 l 106 441 l 106 345 b 511 -14 106 130 267 -14 b 918 345 755 -14 918 130 l 918 441 l 1027 441 z m 309 361 z "},"Ʌ":{"ha":182,"x_min":0,"x_max":0,"o":"m 731 0 l 960 0 l 616 982 l 401 982 l 58 0 l 288 0 l 509 737 z "},"Ɇ":{"ha":-18,"x_min":0,"x_max":0,"o":"m 673 1107 l 563 1107 l 527 982 l 83 982 l 83 0 l 245 0 l 209 -125 l 317 -125 l 353 0 l 743 0 l 743 168 l 402 168 l 471 407 l 708 407 l 708 575 l 519 575 l 588 814 l 742 814 l 742 982 l 637 982 z m 286 168 l 286 407 l 361 407 l 293 168 z m 286 575 l 286 814 l 479 814 l 410 575 z "},"Ɉ":{"ha":-77,"x_min":0,"x_max":0,"o":"m 475 982 l 475 647 l 335 647 l 335 528 l 475 528 l 475 297 l 705 297 l 705 431 l 825 431 l 825 297 l 1160 297 z "},"Ɍ":{"ha":67,"x_min":0,"x_max":0,"o":"m 104 0 l 308 0 l 308 349 l 463 349 b -14 731 463 536 115 731 b -111 NaN 112 731 -111 NaN l -496 NaN l -496 NaN l -594 NaN l -594 NaN l -496 NaN "},"Ɏ":{"ha":131,"x_min":0,"x_max":0,"o":"m 960 777 l 827 777 l 943 982 l 713 982 l 604 777 l 362 777 l 252 982 l 23 982 l 139 777 l 7 777 l 7 673 l 198 673 l 381 350 l 564 673 l 757 673 z m 214 673 l 345 673 l 285 559 l 275 559 z "},"Ỻ":{"ha":398,"x_min":0,"x_max":0,"o":"m 118 0 l 1061 0 l 1061 168 l 637 168 l 637 982 l 434 982 l 434 168 l 321 168 l 321 982 l 118 982 z "},"Ỽ":{"ha":29,"x_min":0,"x_max":0,"o":"m 537 640 l 449 498 b 578 294 526 458 578 393 b 438 152 578 204 524 152 b 293 345 346 152 294 223 l 293 414 b 608 810 294 671 425 778 l 586 972 b 84 412 285 935 85 726 l 84 372 b 444 -14 85 140 227 -14 b 783 308 648 -14 783 105 b 537 640 783 463 673 585 z "},"Ỿ":{"ha":180,"x_min":0,"x_max":0,"o":"m 338 982 l 117 982 l 361 519 b 311 524 345 522 328 524 b 37 254 159 524 37 401 b 311 -14 37 106 160 -14 b 562 152 424 -14 522 55 l 990 982 l 769 982 l 555 530 z m 212 256 b 311 357 212 322 254 357 b 408 256 365 357 408 322 b 311 155 408 191 365 155 b 212 256 254 155 212 191 z "},"Ɀ":{"ha":54,"x_min":0,"x_max":0,"o":"m 711 -288 b 826 -267 756 -288 798 -279 l 826 -107 b 730 -121 796 -117 766 -121 b 313 144 594 -121 516 81 l 812 869 l 812 982 l 68 982 l 68 817 l 556 817 l 69 114 l 69 0 l 134 0 b 711 -288 407 0 468 -288 z "},"Ａ":{"ha":466,"x_min":0,"x_max":0,"o":"m 400 0 l 60 -982 z "},"Ｂ":{"ha":466,"x_min":0,"x_max":0,"o":""},"Ｃ":{"ha":466,"x_min":0,"x_max":0,"o":"m 888 640 l 1095 640 "},"Ｄ":{"ha":466,"x_min":0,"x_max":0,"o":"m 593 0 l 243 0 l 243 -982 "},"Ｅ":{"ha":466,"x_min":0,"x_max":0,"o":"m 326 0 l 986 0 l 986 168 z "},"Ｆ":{"ha":0,"x_min":0,"x_max":0,"o":""},"Ｇ":{"ha":466,"x_min":0,"x_max":0,"o":"m 878 666 l 1084 666 b 885 882 1277 639 1107 775 b 736 NaN 884 956 828 984 z "},"Ｈ":{"ha":466,"x_min":0,"x_max":0,"o":"m 235 0 z "},"Ｉ":{"ha":466,"x_min":0,"x_max":0,"o":"m 753 982 z "},"Ｊ":{"ha":466,"x_min":0,"x_max":0,"o":"m 746 982 l 746 297 l 1431 297 z "},"Ｋ":{"ha":466,"x_min":0,"x_max":0,"o":"m 274 0 l 477 0 l 477 281 l 581 406 l 853 0 l 1097 0 l 727 543 l 1093 982 l 848 982 l 491 547 l 477 547 l 477 982 l 274 982 z "},"Ｌ":{"ha":466,"x_min":0,"x_max":0,"o":""},"Ｍ":{"ha":466,"x_min":0,"x_max":0,"o":"m 122 982 l 122 0 l 320 0 l 320 646 l 328 646 l 585 4 l 720 4 l 977 643 l 985 643 l 985 0 l 1183 0 l 1183 982 l 930 982 l 658 316 l 647 316 l 374 982 z "},"Ｎ":{"ha":466,"x_min":0,"x_max":0,"o":"m 1061 982 l 1264 982 l 1264 1606 l 1272 1606 l 1704 982 l 1880 982 z "},"Ｏ":{"ha":466,"x_min":0,"x_max":0,"o":"m 1111 491 z m 400 491 z "},"Ｐ":{"ha":466,"x_min":0,"x_max":0,"o":"m 301 0 z "},"Ｑ":{"ha":466,"x_min":0,"x_max":0,"o":"m 579 340 l 707 173 b 651 167 690 169 671 167 b 903 491 651 377 751 490 b 1154 167 1055 490 1155 377 b 1081 -79 1155 58 1128 -25 l 1006 16 b 1215 -486 1006 -547 1157 -486 b 1245 NaN 1225 -486 1245 -433 l 1324 NaN l 1515 NaN l 1375 NaN b 1531 NaN 1472 NaN 1531 NaN b 1073 NaN 1531 NaN 1333 NaN z "},"Ｒ":{"ha":466,"x_min":0,"x_max":0,"o":"m 296 0 l 499 0 l 499 349 l 654 349 b 178 731 654 536 306 731 b 80 NaN 303 731 80 NaN l -305 NaN "},"Ｓ":{"ha":466,"x_min":0,"x_max":0,"o":"m 830 701 l 1025 701 b 662 996 1023 875 880 996 b 290 699 447 996 290 877 l 397 673 b 566 548 505 646 566 615 b 389 425 566 475 496 425 b 195 574 281 425 202 475 l -3 574 "},"Ｔ":{"ha":466,"x_min":0,"x_max":0,"o":"m 250 814 l 551 814 l 551 0 l 753 0 l 753 814 l 1054 814 l 1054 982 l 250 982 z "},"Ｕ":{"ha":466,"x_min":0,"x_max":0,"o":"m 853 982 l 853 1619 z "},"Ｖ":{"ha":466,"x_min":0,"x_max":0,"o":"m 408 982 l 180 982 z "},"Ｗ":{"ha":466,"x_min":0,"x_max":0,"o":""},"Ｘ":{"ha":466,"x_min":0,"x_max":0,"o":"m 446 982 l 214 982 l 517 491 l 209 0 z "},"Ｙ":{"ha":466,"x_min":0,"x_max":0,"o":"m 191 982 l 549 350 l 907 982 l 678 982 l 453 559 l 444 559 l 217 982 z "},"Ｚ":{"ha":466,"x_min":0,"x_max":0,"o":"m 277 0 l 1025 0 l 1025 168 l 533 168 l 1024 860 l 532 168 z "},"ɢ":{"ha":60,"x_min":0,"x_max":0,"o":"m 796 107 l 796 387 l 460 387 l 460 252 l 612 252 l 612 174 b 463 146 589 160 554 146 b 293 305 355 146 293 214 l 293 414 b 452 571 293 505 355 570 b 597 475 539 570 584 543 l 791 475 b 452 727 773 644 657 727 b 98 412 245 727 97 600 l 98 305 b 463 -12 97 117 248 -12 b 796 107 664 -12 750 56 z "},"ʛ":{"ha":162,"x_min":0,"x_max":0,"o":"m 799 475 l 799 567 b 891 661 799 636 833 660 b 941 655 908 660 925 657 l 941 787 b 857 798 913 793 887 797 b 664 686 764 797 696 758 b 460 727 611 713 543 727 b 104 412 252 727 104 600 l 104 305 b 471 -12 104 117 255 -12 b 803 107 671 -12 758 56 l 803 387 l 468 387 l 468 252 l 620 252 l 620 174 b 471 146 596 160 561 146 b 300 305 363 146 300 214 l 300 414 b 460 571 300 505 362 570 b 604 475 547 570 591 543 z "},"ɪ":{"ha":-219,"x_min":0,"x_max":0,"o":"m 510 713 l 107 713 l 107 555 l 208 555 l 208 160 l 107 160 l 107 0 l 510 0 l 510 160 l 407 160 l 407 555 l 510 555 z "},"ʟ":{"ha":-196,"x_min":0,"x_max":0,"o":"m 583 157 l 258 157 l 258 713 l 57 713 l 57 0 l 583 0 z "},"ɴ":{"ha":-5,"x_min":0,"x_max":0,"o":"m 753 736 l 555 736 l 555 319 l 545 319 l 245 736 l 79 736 l 79 0 l 274 0 l 274 397 l 281 397 l 566 0 l 753 0 z "},"ɶ":{"ha":340,"x_min":0,"x_max":0,"o":"m 1097 157 l 749 157 l 749 279 l 1039 279 l 1039 438 l 749 438 l 749 556 l 1097 556 l 1097 713 l 684 713 b 425 727 555 713 507 727 b 77 365 204 727 77 571 l 77 349 b 427 -14 77 143 204 -14 b 684 0 507 -14 553 0 l 1097 0 z m 277 349 l 277 365 b 425 568 277 473 317 568 b 549 561 467 568 503 564 l 549 153 b 427 146 503 150 467 146 b 277 349 316 146 277 237 z "},"ʀ":{"ha":62,"x_min":0,"x_max":0,"o":"m 444 713 l 119 713 l 119 0 l 316 0 l 316 244 l 439 244 l 578 0 l 780 0 l 621 279 b 757 473 707 318 756 388 b 444 713 756 612 637 713 z m 316 381 l 316 556 l 444 556 b 559 468 522 556 559 513 b 446 381 559 422 522 380 z "},"ʁ":{"ha":62,"x_min":0,"x_max":0,"o":"m 444 0 b 757 241 637 0 756 102 b 621 435 756 326 707 396 l 780 713 l 578 713 l 439 469 l 316 469 l 316 713 l 119 713 l 119 0 z m 316 157 l 316 332 l 446 332 b 559 247 522 333 559 288 b 444 157 559 205 521 157 z "},"ʏ":{"ha":-77,"x_min":0,"x_max":0,"o":"m 228 713 l 11 713 l 279 234 l 279 0 l 476 0 l 476 224 l 749 713 l 534 713 l 381 396 z "},"a":{"ha":-62,"x_min":0,"x_max":0,"o":""},"á":{"ha":-62,"x_min":0,"x_max":0,"o":""},"ă":{"ha":-62,"x_min":0,"x_max":0,"o":"m 632 993 l 492 993 z "},"ắ":{"ha":-62,"x_min":0,"x_max":0,"o":"m 632 970 l 503 970 "},"ặ":{"ha":-62,"x_min":0,"x_max":0,"o":"m 632 993 l 492 993 "},"ằ":{"ha":-62,"x_min":0,"x_max":0,"o":"m 632 970 l 503 970 "},"ẳ":{"ha":0,"x_min":0,"x_max":0,"o":""},"ẵ":{"ha":0,"x_min":0,"x_max":0,"o":""},"ǎ":{"ha":-62,"x_min":0,"x_max":0,"o":""},"â":{"ha":-62,"x_min":0,"x_max":0,"o":""},"ấ":{"ha":0,"x_min":0,"x_max":0,"o":""},"ậ":{"ha":0,"x_min":0,"x_max":0,"o":""},"ầ":{"ha":-62,"x_min":0,"x_max":0,"o":""},"ẩ":{"ha":0,"x_min":0,"x_max":0,"o":""},"ẫ":{"ha":0,"x_min":0,"x_max":0,"o":""},"ȁ":{"ha":0,"x_min":0,"x_max":0,"o":""},"ä":{"ha":0,"x_min":0,"x_max":0,"o":""},"ǟ":{"ha":0,"x_min":0,"x_max":0,"o":""},"ạ":{"ha":-62,"x_min":0,"x_max":0,"o":""},"ǡ":{"ha":0,"x_min":0,"x_max":0,"o":""},"à":{"ha":-62,"x_min":0,"x_max":0,"o":""},"ả":{"ha":-62,"x_min":0,"x_max":0,"o":""},"ȃ":{"ha":-62,"x_min":0,"x_max":0,"o":""},"ā":{"ha":-62,"x_min":0,"x_max":0,"o":""},"ą":{"ha":-62,"x_min":0,"x_max":0,"o":"m 608 -275 l 606 -275 l 606 221 b 852 1 607 75 711 1 b 1067 117 961 1 1031 49 l 1073 117 l 1073 42 "},"ẚ":{"ha":-62,"x_min":0,"x_max":0,"o":""},"å":{"ha":0,"x_min":0,"x_max":0,"o":"l -62 0 l -62 -102 l 128 -102 l 128 395 "},"ǻ":{"ha":-62,"x_min":0,"x_max":0,"o":"m 332 1119 "},"ḁ":{"ha":0,"x_min":0,"x_max":0,"o":""},"ɑ":{"ha":35,"x_min":0,"x_max":0,"o":""},"ɒ":{"ha":58,"x_min":0,"x_max":0,"o":"m 812 359 l 812 381 b 538 746 814 600 712 746 b 339 633 446 746 382 704 b 168 746 309 709 250 746 b 83 730 138 746 111 743 l 99 582 b 113 583 104 582 107 584 b 161 496 145 584 161 560 l 161 0 l 335 0 l 350 86 b 536 -15 392 23 452 -15 b 812 359 713 -14 813 142 z m 360 525 b 476 587 382 564 419 588 b 613 381 585 588 613 494 l 613 359 b 476 145 614 241 576 145 b 361 210 420 145 384 170 l 361 498 b 360 525 361 507 361 516 z "},"ã":{"ha":-62,"x_min":0,"x_max":0,"o":""},"ɐ":{"ha":-62,"x_min":0,"x_max":0,"o":"m 75 240 b 387 -9 74 62 226 -9 b 705 218 582 -9 693 91 l 514 218 b 392 137 503 168 460 138 b 274 235 317 138 275 173 l 274 294 b 457 304 305 296 404 300 b 731 530 599 313 730 366 b 486 750 730 676 627 751 b 270 635 376 751 306 703 l 264 635 l 264 736 l 75 736 z m 274 420 l 274 473 b 429 612 273 551 337 611 b 538 525 493 611 538 581 b 425 429 538 468 494 435 b 274 420 391 426 304 421 z "},"æ":{"ha":0,"x_min":0,"x_max":0,"o":""},"ǽ":{"ha":0,"x_min":0,"x_max":0,"o":""},"ǣ":{"ha":0,"x_min":0,"x_max":0,"o":""},"b":{"ha":13,"x_min":0,"x_max":0,"o":""},"ɤ":{"ha":83,"x_min":0,"x_max":0,"o":"m 35 646 l 132 529 b 205 571 152 551 180 571 b 356 420 248 571 280 535 b 353 414 355 418 354 416 b 250 149 298 320 249 230 b 460 -14 249 43 334 -14 b 670 149 585 -14 669 41 b 571 406 669 231 621 321 l 566 415 b 715 571 639 532 667 571 b 788 529 739 571 766 551 l 887 646 b 690 746 840 699 780 746 b 459 585 601 746 536 694 b 231 746 383 694 319 746 b 35 646 142 746 80 699 z m 427 159 b 459 246 427 178 437 206 b 491 159 480 206 491 178 b 460 127 491 145 484 127 b 427 159 433 127 427 145 z "},"ƀ":{"ha":13,"x_min":0,"x_max":0,"o":"m 83 0 l 258 0 l 258 75 l 57 75 l 57 0 l -83 0 l -83 -119 l 57 -119 "},"ḃ":{"ha":0,"x_min":0,"x_max":0,"o":""},"ḅ":{"ha":0,"x_min":0,"x_max":0,"o":""},"ɓ":{"ha":13,"x_min":0,"x_max":0,"o":"m 499 -12 l 652 -12 b 762 61 652 45 708 60 b 811 57 779 60 794 58 l 811 210 b 708 217 785 214 754 217 b 452 -12 583 217 452 178 l 452 -779 l 650 -779 l 650 -661 l 658 -661 b 868 -791 687 -722 748 -791 "},"ḇ":{"ha":13,"x_min":0,"x_max":0,"o":"m 83 0 l 452 0 l 452 -201 "},"ƃ":{"ha":13,"x_min":0,"x_max":0,"o":"m 693 982 l 83 982 l 83 0 l 307 0 l 307 410 "},"ʘ":{"ha":210,"x_min":0,"x_max":0,"o":"m 138 0 z "},"c":{"ha":-54,"x_min":0,"x_max":0,"o":""},"ć":{"ha":0,"x_min":0,"x_max":0,"o":""},"č":{"ha":0,"x_min":0,"x_max":0,"o":""},"ç":{"ha":0,"x_min":0,"x_max":0,"o":""},"ḉ":{"ha":0,"x_min":0,"x_max":0,"o":""},"ĉ":{"ha":0,"x_min":0,"x_max":0,"o":""},"ɕ":{"ha":-51,"x_min":0,"x_max":0,"o":"m 412 -15 b 732 214 621 -14 733 87 b 524 384 732 321 651 385 b 264 274 421 385 338 341 b 284 302 256 274 284 270 b -93 199 284 337 62 199 b -418 140 -317 199 -418 226 b NaN NaN -418 189 -482 NaN b NaN NaN NaN NaN NaN NaN l NaN NaN b NaN NaN NaN NaN NaN NaN b NaN NaN NaN NaN NaN NaN z m NaN NaN b NaN NaN NaN NaN NaN NaN b NaN NaN NaN NaN NaN NaN b NaN NaN NaN NaN NaN NaN b NaN NaN NaN NaN NaN NaN z "},"ċ":{"ha":0,"x_min":0,"x_max":0,"o":""},"ƈ":{"ha":21,"x_min":0,"x_max":0,"o":"m 739 467 l 739 576 b 826 670 739 644 769 669 b 876 665 844 669 860 667 l 876 798 b 792 808 848 805 820 808 b 587 707 703 808 628 772 z "},"ʗ":{"ha":-71,"x_min":0,"x_max":0,"o":"m 397 -133 b 260 69 277 -133 260 -23 l 260 385 b 396 587 260 477 277 588 b 518 465 475 588 516 532 l 705 465 b 677 NaN 879 465 677 465 l 677 NaN b 1018 NaN 678 NaN 791 NaN b 1323 NaN 1187 NaN 1322 NaN l 1136 NaN b 1015 NaN 1134 NaN 1085 NaN z "},"d":{"ha":13,"x_min":0,"x_max":0,"o":""},"ð":{"ha":-36,"x_min":0,"x_max":0,"o":"m 624 925 l 610 1017 l 436 928 b 187 1036 359 978 273 1015 l 165 929 b 300 859 212 909 258 886 l 163 789 l 176 699 l 380 802 b 549 594 456 740 515 668 l 540 594 b 347 682 501 640 438 682 b 49 338 170 682 48 533 b 397 -15 48 128 187 -16 b 753 377 616 -16 752 138 b 515 870 752 585 655 753 z m 240 350 b 403 556 240 469 294 555 b 566 346 515 555 566 460 b 403 138 566 222 506 139 b 240 350 295 139 240 229 z "},"ď":{"ha":0,"x_min":0,"x_max":0,"o":""},"ḑ":{"ha":0,"x_min":0,"x_max":0,"o":""},"ḓ":{"ha":0,"x_min":0,"x_max":0,"o":""},"đ":{"ha":0,"x_min":0,"x_max":0,"o":""},"ḋ":{"ha":0,"x_min":0,"x_max":0,"o":""},"ḍ":{"ha":0,"x_min":0,"x_max":0,"o":""},"ƍ":{"ha":32,"x_min":0,"x_max":0,"o":"m 696 -247 l 696 -145 b 487 53 650 -96 547 1 b 510 53 496 52 505 52 b 781 385 664 77 781 205 l 781 399 b 434 746 781 606 656 746 b 88 376 212 746 88 596 l 88 362 b 317 -1 88 220 182 106 b 437 -91 370 -42 418 -74 l 160 -91 l 160 -247 z m 286 362 l 286 376 b 434 587 286 498 323 588 b 583 376 551 588 583 491 l 583 362 b 431 155 583 248 541 155 b 393 160 416 155 404 155 b 286 362 336 193 286 263 z "},"ɗ":{"ha":39,"x_min":0,"x_max":0,"o":"m 350 -12 b 559 118 471 -12 531 57 l 568 118 l 568 0 l 766 0 l 766 762 b 882 838 766 836 836 838 b 930 833 897 838 912 837 l 930 986 b 829 997 909 991 867 996 b 566 762 711 996 566 955 l 566 613 l 559 613 "},"ḏ":{"ha":0,"x_min":0,"x_max":0,"o":""},"ɖ":{"ha":9,"x_min":0,"x_max":0,"o":"m 815 -277 b 918 -270 859 -276 896 -273 l 918 -115 b 868 -119 903 -118 886 -119 b 765 -46 817 -119 766 -104 l 765 0 l 766 0 l 766 982 l 566 982 l 566 613 l 559 613 l 567 613 l 567 449 b 815 218 566 270 677 219 "},"ƌ":{"ha":13,"x_min":0,"x_max":0,"o":"m 155 982 l 155 837 l 566 837 l 566 613 l 559 613 l 568 613 l 568 495 l 766 495 l 766 1477 "},"ʤ":{"ha":498,"x_min":0,"x_max":0,"o":"m 741 0 l 741 578 l 1043 578 l 811 300 l 811 176 l 903 176 b 1093 15 1015 176 1094 126 b 925 -137 1094 -77 1032 -136 b 745 -45 821 -136 767 -97 l 551 -45 b 929 -292 595 -243 759 -292 b 1287 1 1139 -292 1288 -186 b 1017 300 1288 166 1191 273 l 1271 606 l 1270 736 l 741 736 l 741 982 l 540 982 l 540 651 l 532 651 b 350 746 507 703 444 746 b 50 368 189 746 50 620 b 350 -12 50 120 184 -12 b 532 83 444 -12 507 30 l 543 83 l 543 0 z m 241 369 b 406 586 241 502 296 586 b 560 369 518 586 559 491 b 406 148 559 247 519 149 b 241 369 296 149 241 234 z "},"ǳ":{"ha":660,"x_min":0,"x_max":0,"o":"m 552 -369 z "},"ʣ":{"ha":660,"x_min":0,"x_max":0,"o":"m 808 0 l 1426 0 l 1426 160 l 1072 160 l 1072 165 l 1413 605 l 1413 736 l 766 736 l 766 982 l 566 982 l 566 613 l 559 613 l 1135 613 l 1135 1017 l 1130 1017 l 768 567 "},"ǆ":{"ha":660,"x_min":0,"x_max":0,"o":"m 552 -369 "},"ʥ":{"ha":0,"x_min":0,"x_max":0,"o":"l 843 0 l 843 576 l 1242 576 l 886 119 l 886 0 l 1121 0 b 1101 -296 1057 -90 1183 -173 b NaN NaN 935 NaN NaN NaN l NaN NaN l NaN NaN l NaN NaN l NaN NaN l NaN NaN l NaN NaN l NaN NaN l NaN NaN "},"e":{"ha":-39,"x_min":0,"x_max":0,"o":""},"é":{"ha":0,"x_min":0,"x_max":0,"o":""},"ĕ":{"ha":0,"x_min":0,"x_max":0,"o":""},"ě":{"ha":0,"x_min":0,"x_max":0,"o":""},"ḝ":{"ha":-39,"x_min":0,"x_max":0,"o":"m 635 993 l 495 993 "},"ê":{"ha":0,"x_min":0,"x_max":0,"o":""},"ế":{"ha":0,"x_min":0,"x_max":0,"o":""},"ḙ":{"ha":0,"x_min":0,"x_max":0,"o":""},"ệ":{"ha":0,"x_min":0,"x_max":0,"o":""},"ề":{"ha":0,"x_min":0,"x_max":0,"o":""},"ể":{"ha":0,"x_min":0,"x_max":0,"o":""},"ễ":{"ha":0,"x_min":0,"x_max":0,"o":""},"ȅ":{"ha":0,"x_min":0,"x_max":0,"o":""},"ë":{"ha":0,"x_min":0,"x_max":0,"o":""},"ė":{"ha":0,"x_min":0,"x_max":0,"o":""},"ẹ":{"ha":0,"x_min":0,"x_max":0,"o":""},"è":{"ha":0,"x_min":0,"x_max":0,"o":""},"ẻ":{"ha":0,"x_min":0,"x_max":0,"o":""},"ȇ":{"ha":0,"x_min":0,"x_max":0,"o":""},"ē":{"ha":0,"x_min":0,"x_max":0,"o":""},"ḗ":{"ha":0,"x_min":0,"x_max":0,"o":""},"ḕ":{"ha":0,"x_min":0,"x_max":0,"o":"l -39 -264 l 1204 -400 l 1409 NaN "},"ę":{"ha":-39,"x_min":0,"x_max":0,"o":"m 481 -256 b 555 -165 481 -218 511 -191 "},"ɛ":{"ha":0,"x_min":0,"x_max":0,"o":""},"ɜ":{"ha":-52,"x_min":0,"x_max":0,"o":"m 274 445 l 274 309 l 378 309 b 518 220 452 309 518 280 b 378 134 518 174 468 134 b 236 213 287 134 243 161 l 43 213 b 369 -14 50 64 199 -14 b 711 201 561 -14 709 69 b 546 372 709 279 660 346 b 699 534 650 401 698 467 "},"ɞ":{"ha":-58,"x_min":0,"x_max":0,"o":"m 389 -14 b 716 201 577 -14 715 69 b 562 372 715 279 671 346 b 703 534 660 402 702 467 b 391 746 702 670 576 746 b 50 377 199 746 50 628 b 389 -14 50 114 205 -14 z m 240 377 b 403 600 241 543 313 600 b 510 518 477 600 510 562 b 399 442 510 473 474 442 l 357 442 l 357 311 l 399 311 b 522 220 473 311 522 279 b 401 136 522 174 482 136 b 240 377 300 136 241 212 z "},"ɝ":{"ha":248,"x_min":0,"x_max":0,"o":"m 277 445 l 277 309 l 381 309 b 521 220 454 309 521 280 b 381 134 521 174 471 134 b 239 213 290 134 246 161 l 46 213 b 372 -14 53 64 201 -14 b 713 201 564 -14 712 69 b 549 372 712 279 663 346 b 680 462 614 391 657 424 l 723 472 b 906 273 748 362 778 273 b 1012 298 943 273 981 282 l 986 423 b 947 420 975 420 964 421 b 845 632 871 421 866 500 l 689 600 "},"ʚ":{"ha":-56,"x_min":0,"x_max":0,"o":"m 389 -14 b 730 377 574 -14 730 114 b 388 746 730 628 581 746 b 77 534 203 746 77 670 b 218 373 77 467 119 402 b 64 201 108 346 64 279 b 389 -14 64 69 202 -14 z m 258 220 b 381 311 258 279 307 311 l 423 311 l 423 442 l 381 442 b 269 518 305 442 269 473 b 376 600 269 562 302 600 b 538 377 467 600 538 543 b 378 136 538 212 480 136 b 258 220 297 136 258 174 z "},"ɘ":{"ha":-73,"x_min":0,"x_max":0,"o":"m 353 -14 b 716 343 579 -14 717 142 l 716 369 b 369 746 717 583 594 746 b 49 387 171 746 48 613 l 49 302 l 514 302 b 335 146 501 203 437 146 b 161 224 274 146 208 168 l 64 115 b 353 -14 118 42 218 -14 z m 243 435 l 243 445 b 372 587 247 540 297 588 b 513 435 464 588 501 517 z "},"ʃ":{"ha":-197,"x_min":0,"x_max":0,"o":"m 218 774 "},"ʆ":{"ha":-77,"x_min":0,"x_max":0,"o":"m 536 -2 l 536 774 b 648 867 536 836 581 867 b 708 861 673 867 693 865 l 711 1013 b 610 1027 677 1021 644 1026 b 342 774 444 1026 342 939 l 342 161 l 342 76 b 260 81 317 79 290 81 b 37 -99 118 81 37 12 b 278 -285 37 -209 119 -285 b 508 -170 404 -285 474 -239 l 625 -270 l 716 -149 z m 212 -104 b 283 -54 212 -72 240 -54 b 342 -64 303 -54 322 -57 l 342 -83 b 274 -157 342 -127 323 -157 b 212 -104 241 -157 212 -141 z "},"ƪ":{"ha":29,"x_min":0,"x_max":0,"o":"m 83 758 b 357 490 84 610 205 490 b 431 500 382 490 408 493 l 431 -16 b 684 -285 432 -191 525 -285 b 783 -274 718 -285 753 -282 l 783 -119 b 723 -125 760 -123 741 -125 b 631 -16 664 -125 631 -91 l 631 758 b 357 1027 631 905 506 1027 b 83 758 205 1027 83 905 z m 258 761 b 358 860 258 825 299 859 b 454 761 409 859 454 826 b 358 659 454 692 410 659 b 258 761 299 659 258 692 z "},"ʅ":{"ha":-196,"x_min":0,"x_max":0,"o":"m 420 -39 l 420 494 b 149 746 420 656 317 746 b 49 734 116 746 81 741 l 50 581 b 110 587 66 585 85 587 b 221 494 180 587 221 553 l 221 -39 b 490 -292 221 -204 324 -292 b 591 -279 528 -292 562 -286 l 591 -126 b 529 -133 573 -131 555 -132 b 420 -39 460 -132 420 -100 z "},"ẽ":{"ha":0,"x_min":0,"x_max":0,"o":""},"ḛ":{"ha":0,"x_min":0,"x_max":0,"o":""},"ǝ":{"ha":0,"x_min":0,"x_max":0,"o":""},"ə":{"ha":0,"x_min":0,"x_max":0,"o":""},"ɚ":{"ha":283,"x_min":0,"x_max":0,"o":"m 372 727 b 85 600 227 727 130 661 l 182 490 b 359 568 223 543 286 568 b 517 477 433 568 489 534 l 71 376 l 71 338 b 395 -14 69 127 182 -14 b 736 355 606 -14 736 143 l 736 380 l 736 390 l 761 396 b 943 194 784 285 815 195 b 1050 222 981 195 1017 205 l 1024 345 b 983 343 1012 345 1000 342 b 882 556 908 342 904 420 l 709 519 b 372 727 660 641 542 727 z m 264 274 l 264 286 l 538 346 b 395 146 536 246 501 146 b 264 274 300 146 264 201 z "},"ʒ":{"ha":0,"x_min":0,"x_max":0,"o":""},"ǯ":{"ha":0,"x_min":0,"x_max":0,"o":""},"ʓ":{"ha":74,"x_min":0,"x_max":0,"o":"m 115 736 l 115 572 l 525 572 l 525 564 l 301 334 l 301 191 l 419 191 b 590 52 523 191 590 130 b 588 24 590 42 589 33 b 315 117 520 73 428 117 b 66 -71 163 117 66 45 b 380 -285 67 -219 235 -285 b 663 -199 503 -285 597 -252 l 761 -273 l 844 -168 l 745 -94 b 770 27 762 -56 770 -15 b 505 313 770 179 672 294 l 505 321 l 776 600 l 774 736 z m 241 -64 b 321 -15 242 -35 271 -16 b 518 -91 395 -16 467 -51 l 520 -92 b 399 -126 490 -113 450 -126 b 241 -64 309 -126 241 -104 z "},"ƹ":{"ha":41,"x_min":0,"x_max":0,"o":"m 815 31 l 609 31 b 442 -91 604 -44 533 -90 b 278 47 347 -90 279 -38 b 465 191 279 129 342 191 l 571 191 l 571 334 l 353 563 l 353 570 l 766 570 l 766 736 l 100 736 l 100 590 l 365 321 l 365 313 b 66 34 159 294 66 166 b 444 -259 66 -140 228 -259 b 815 31 657 -259 809 -144 z "},"ƺ":{"ha":-70,"x_min":0,"x_max":0,"o":"m 102 736 l 102 578 l 397 578 l 218 426 l 218 311 l 377 311 b 479 244 443 311 479 286 b 339 155 479 191 434 172 b 65 -69 152 119 65 51 b 376 -292 65 -201 186 -292 b 693 -52 581 -292 692 -168 l 505 -52 b 369 -152 500 -130 435 -152 b 258 -81 304 -152 258 -129 b 395 9 258 -45 289 -14 b 670 235 547 43 669 102 b 480 437 669 330 600 409 l 696 623 l 696 736 z "},"f":{"ha":-326,"x_min":0,"x_max":0,"o":""},"ḟ":{"ha":0,"x_min":0,"x_max":0,"o":""},"ʩ":{"ha":395,"x_min":0,"x_max":0,"o":"m 8 -586 l 209 -586 l 209 -160 l 209 -586 l 208 -586 l 208 -628 b 119 -707 208 -684 174 -706 b 60 -699 96 -706 77 -703 l 46 -863 b 148 -871 79 -869 113 -870 b 408 -628 303 -870 408 -789 l 911 -628 z "},"ʪ":{"ha":153,"x_min":0,"x_max":0,"o":"m 719 198 b 585 130 718 154 682 130 b 260 227 508 130 382 153 l 260 982 l 60 982 l 60 0 l 260 0 l 260 53 b 585 -14 371 3 477 -14 b 911 206 790 -14 911 79 b 646 429 911 334 818 395 b 498 513 547 447 497 465 b 601 590 497 557 538 589 b 712 496 676 589 711 551 l 909 496 b 602 727 909 630 793 727 b 309 503 418 727 309 623 b 570 286 309 377 424 319 b 719 198 682 262 718 243 z "},"ʭ":{"ha":-168,"x_min":0,"x_max":0,"o":"m 612 385 l 57 385 l 57 0 l 202 0 l 202 273 l 467 273 l 467 0 l 612 0 z m 57 576 l 202 576 l 202 846 l 467 846 l 467 576 l 612 576 l 612 960 l 57 960 z "},"g":{"ha":9,"x_min":0,"x_max":0,"o":""},"ǵ":{"ha":0,"x_min":0,"x_max":0,"o":""},"ɣ":{"ha":44,"x_min":0,"x_max":0,"o":"m 441 -292 b 677 -113 588 -292 677 -232 b 628 56 676 -69 663 -10 l 544 213 l 826 736 l 621 736 l 441 405 l 263 736 l 58 736 l 340 219 l 248 50 b 199 -111 216 -8 199 -66 b 441 -292 201 -232 294 -292 z m 401 -107 b 444 23 401 -73 417 -31 b 480 -107 467 -28 480 -71 b 441 -152 480 -137 466 -151 b 401 -107 413 -151 401 -135 z "},"ǥ":{"ha":-14,"x_min":0,"x_max":0,"o":"b 418 625 9 0 418 326 b 348 509 418 426 295 509 b 199 NaN 291 509 199 525 l 63 NaN l 63 NaN l 201 NaN "},"ğ":{"ha":0,"x_min":0,"x_max":0,"o":""},"ǧ":{"ha":0,"x_min":0,"x_max":0,"o":""},"ĝ":{"ha":0,"x_min":0,"x_max":0,"o":""},"ģ":{"ha":9,"x_min":0,"x_max":0,"o":"m 79 468 l 231 468 "},"ɡ":{"ha":9,"x_min":0,"x_max":0,"o":""},"ġ":{"ha":0,"x_min":0,"x_max":0,"o":""},"ɠ":{"ha":31,"x_min":0,"x_max":0,"o":"m 412 -292 b 770 -8 622 -292 770 -196 l 770 736 l 769 736 l 769 766 b 878 840 769 824 824 839 b 928 836 895 839 898 838 l 928 989 b 823 996 901 992 871 996 b 570 766 699 996 570 954 "},"ʔ":{"ha":-71,"x_min":0,"x_max":0,"o":"m 372 372 z "},"ʡ":{"ha":-71,"x_min":0,"x_max":0,"o":"m 616 210 l 480 210 l 480 229 l 389 229 l 389 68 l 251 68 l 251 -54 l 389 -54 l 389 -142 l 589 -142 l 589 -54 l 724 -54 z "},"ƾ":{"ha":-70,"x_min":0,"x_max":0,"o":"m 505 198 b 392 126 505 153 462 127 b 258 228 330 127 262 151 l 69 228 b 388 -14 71 113 182 -14 b 697 206 577 -14 698 79 b 456 538 698 421 456 353 l 456 571 l 581 571 l 581 713 l 456 713 l 456 891 l 255 891 l 255 713 l 151 713 l 151 571 l 255 571 l 255 540 b 505 198 256 285 505 308 z "},"ʢ":{"ha":-71,"x_min":0,"x_max":0,"o":"m 293 0 l 293 199 l 358 199 l 358 388 l 316 388 l 316 248 l 197 248 l 197 388 z "},"ʖ":{"ha":-71,"x_min":0,"x_max":0,"o":"m 274 643 l 371 643 b 506 441 489 642 507 535 l 506 347 b 369 146 507 258 488 146 b 247 267 290 146 250 201 l 60 267 b 366 -14 62 94 188 -14 b 705 347 593 -14 705 146 l 705 441 b 473 788 705 608 629 745 l 473 982 l 274 982 z "},"ʕ":{"ha":-71,"x_min":0,"x_max":0,"o":"m 293 0 z "},"ḡ":{"ha":9,"x_min":0,"x_max":0,"o":"m -229 1164 l 237 1164 l 237 1274 l -229 1274 "},"ȝ":{"ha":-68,"x_min":0,"x_max":0,"o":"m 157 247 l 157 103 b 469 222 284 136 388 176 b 491 136 483 200 491 171 b 157 -141 490 14 405 -60 l 157 -288 b 690 123 511 -218 690 -80 b 587 311 690 211 655 275 b 677 517 647 372 677 440 b 385 746 677 665 574 746 b 77 507 193 746 77 656 l 277 507 b 381 598 275 564 315 597 b 479 499 446 597 478 565 b 157 247 478 391 383 317 z "},"h":{"ha":-3,"x_min":0,"x_max":0,"o":""},"ħ":{"ha":0,"x_min":0,"x_max":0,"o":""},"ḫ":{"ha":0,"x_min":0,"x_max":0,"o":""},"ḩ":{"ha":0,"x_min":0,"x_max":0,"o":"l -3 0 l -3 279 l 50 279 l 31 186 b 125 121 97 178 127 159 l 133 159 l 185 159 "},"ĥ":{"ha":0,"x_min":0,"x_max":0,"o":""},"ḧ":{"ha":0,"x_min":0,"x_max":0,"o":""},"ḣ":{"ha":0,"x_min":0,"x_max":0,"o":""},"ḥ":{"ha":0,"x_min":0,"x_max":0,"o":""},"ɧ":{"ha":-6,"x_min":0,"x_max":0,"o":"m 552 0 l 552 -46 b 450 -119 552 -104 501 -119 b 400 -115 431 -119 415 -118 l 400 -270 b 503 -277 424 -273 456 -276 b 753 -46 640 -276 753 -225 l 1268 -46 l 1268 114 b 1377 186 1268 172 1324 185 b 1427 182 1395 185 1411 183 l 1427 335 b 1324 342 1402 338 1371 342 b 1077 114 1199 342 1077 300 l 1077 -654 l 1278 -654 l 1278 -228 l 1278 -662 z "},"ɦ":{"ha":-6,"x_min":0,"x_max":0,"o":"m 270 608 l 270 768 b 378 840 270 825 326 839 b 429 836 397 839 412 837 l 429 989 b 326 996 404 992 372 996 b 79 768 201 996 79 954 l 79 0 l 279 0 l 279 426 z "},"ẖ":{"ha":0,"x_min":0,"x_max":0,"o":""},"ɥ":{"ha":-3,"x_min":0,"x_max":0,"o":"m 553 311 b 410 157 553 214 494 157 b 277 302 326 157 277 211 l 277 736 l 76 736 l 76 267 b 331 -9 76 94 177 -9 b 551 129 443 -9 517 43 l 559 129 l 559 -245 l 754 -245 l 754 736 l 553 736 z "},"ʯ":{"ha":0,"x_min":0,"x_max":0,"o":"l 123 0 l 123 -176 b 370 -407 123 -355 232 -406 b 474 -400 417 -406 448 -404 l 474 -245 b 424 -250 459 -248 439 -250 b 318 -176 371 -250 318 -235 l 318 606 l 117 606 l 117 180 b -26 27 117 83 58 27 b -159 172 -111 27 -160 81 l -159 387 b -410 616 -160 565 -272 616 b -513 609 -456 616 -488 613 "},"ʮ":{"ha":0,"x_min":0,"x_max":0,"o":"l 104 0 l 104 -407 l 299 -407 l 299 606 l 98 606 l 98 180 b -45 27 98 83 39 27 b -178 172 -130 27 -179 81 l -178 387 b -429 616 -179 565 -291 616 b -532 609 -475 616 -507 613 "},"ƕ":{"ha":481,"x_min":0,"x_max":0,"o":"m 79 0 l 279 0 l 279 426 l 279 279 b 575 -22 279 87 388 -22 b 962 647 837 -22 962 195 l 962 728 l 761 728 l 761 647 b 582 145 761 307 696 144 b 480 279 532 144 480 176 l 662 279 l 662 654 l 467 654 z "},"i":{"ha":-479,"x_min":0,"x_max":0,"o":""},"ı":{"ha":-479,"x_min":0,"x_max":0,"o":""},"í":{"ha":0,"x_min":0,"x_max":0,"o":""},"ɨ":{"ha":0,"x_min":0,"x_max":0,"o":""},"ĭ":{"ha":0,"x_min":0,"x_max":0,"o":""},"ǐ":{"ha":0,"x_min":0,"x_max":0,"o":""},"î":{"ha":0,"x_min":0,"x_max":0,"o":""},"ȉ":{"ha":0,"x_min":0,"x_max":0,"o":""},"ï":{"ha":0,"x_min":0,"x_max":0,"o":""},"ḯ":{"ha":0,"x_min":0,"x_max":0,"o":""},"ị":{"ha":0,"x_min":0,"x_max":0,"o":""},"ì":{"ha":0,"x_min":0,"x_max":0,"o":""},"ỉ":{"ha":0,"x_min":0,"x_max":0,"o":""},"ȋ":{"ha":-479,"x_min":0,"x_max":0,"o":""},"ĳ":{"ha":0,"x_min":0,"x_max":0,"o":""},"ī":{"ha":0,"x_min":0,"x_max":0,"o":""},"į":{"ha":-470,"x_min":0,"x_max":0,"o":"m 176 -275 l 176 461 l -24 461 l -24 -256 "},"ĩ":{"ha":-455,"x_min":0,"x_max":0,"o":"m 91 0 "},"ḭ":{"ha":0,"x_min":0,"x_max":0,"o":""},"j":{"ha":0,"x_min":0,"x_max":0,"o":""},"ȷ":{"ha":-479,"x_min":0,"x_max":0,"o":"m 79 736 l 79 -34 l 852 -34 z "},"ǰ":{"ha":-479,"x_min":0,"x_max":0,"o":"m 79 736 l 79 -34 l 852 -34 "},"ĵ":{"ha":-479,"x_min":0,"x_max":0,"o":"m 79 736 l 79 -34 l 852 -34 "},"ʝ":{"ha":-215,"x_min":0,"x_max":0,"o":"m 254 -285 b 509 -56 440 -285 503 -175 l 686 -56 l 686 83 l 511 83 l 511 736 l 311 736 l 311 164 l 309 164 l 309 83 l 240 83 b 14 -100 96 83 13 10 b 254 -285 14 -208 93 -285 z m 187 -107 b 258 -56 188 -70 221 -55 l 309 -56 l 309 -80 b 250 -157 310 -120 300 -157 b 187 -107 216 -157 187 -142 "},"ɟ":{"ha":0,"x_min":0,"x_max":0,"o":""},"ʄ":{"ha":-197,"x_min":0,"x_max":0,"o":"m 218 774 "},"k":{"ha":-62,"x_min":0,"x_max":0,"o":""},"ḱ":{"ha":0,"x_min":0,"x_max":0,"o":""},"ǩ":{"ha":0,"x_min":0,"x_max":0,"o":""},"ķ":{"ha":0,"x_min":0,"x_max":0,"o":""},"ḳ":{"ha":0,"x_min":0,"x_max":0,"o":""},"ĸ":{"ha":0,"x_min":0,"x_max":0,"o":""},"ƙ":{"ha":-68,"x_min":0,"x_max":0,"o":"m 548 0 l 768 0 l 472 422 l 750 736 l 515 736 l 289 476 l 279 476 l 279 766 b 382 840 279 824 330 839 b 431 836 399 839 416 837 l 431 989 b 330 996 407 992 371 996 b 79 766 205 996 79 954 l 79 0 l 279 0 l 279 201 l 350 278 z "},"ḵ":{"ha":0,"x_min":0,"x_max":0,"o":""},"ʞ":{"ha":-62,"x_min":0,"x_max":0,"o":"m 696 736 l 495 736 l 495 500 l 439 437 l 236 736 l 0 736 l 290 319 l 15 0 l 245 0 l 484 282 l 495 282 l 495 -245 l 696 -245 z "},"l":{"ha":-479,"x_min":0,"x_max":0,"o":""},"ĺ":{"ha":0,"x_min":0,"x_max":0,"o":""},"ƛ":{"ha":55,"x_min":0,"x_max":0,"o":"m 545 917 l 452 886 l 446 899 b 260 1013 416 972 360 1013 b 151 1001 232 1013 179 1008 l 155 852 b 194 853 171 853 184 853 b 264 826 225 853 248 844 l 134 784 l 134 654 l 319 714 l 326 699 l 68 0 l 282 0 l 430 432 l 540 137 b 746 -12 577 41 635 -13 b 819 -8 777 -13 802 -12 l 819 148 l 796 148 b 726 221 760 148 740 184 l 498 772 l 545 788 z "},"ƚ":{"ha":-479,"x_min":0,"x_max":0,"o":"m 279 982 l 79 982 l 79 570 l -372 570 l -372 770 l 79 770 z "},"ɬ":{"ha":-170,"x_min":0,"x_max":0,"o":"m 237 365 l 312 365 l 312 0 l 513 0 l 513 365 l 656 365 l 656 500 l 513 500 l 513 982 l 312 982 l 312 743 b 258 746 295 745 277 746 b 19 548 98 746 18 655 b 237 365 18 439 96 364 z m 191 552 b 255 604 191 579 218 604 b 312 529 295 604 312 574 l 312 500 l 256 500 b 191 552 214 500 191 526 z "},"ľ":{"ha":0,"x_min":0,"x_max":0,"o":""},"ḽ":{"ha":0,"x_min":0,"x_max":0,"o":""},"ļ":{"ha":0,"x_min":0,"x_max":0,"o":""},"ȴ":{"ha":-280,"x_min":0,"x_max":0,"o":"m 68 982 l 68 5 b -4 -42 43 -9 18 -26 l -113 -134 l -14 -248 l 102 -149 b 335 -277 151 -233 245 -276 b 551 -79 467 -276 550 -180 b 351 107 550 22 469 107 b 269 96 326 107 298 103 l 269 982 z m 269 -62 l 269 -42 b 331 -33 289 -36 309 -33 b 388 -83 366 -32 387 -59 b 336 -138 387 -113 366 -138 b 269 -62 292 -138 269 -107 z "},"ŀ":{"ha":-294,"x_min":0,"x_max":0,"o":"m 283 982 "},"ḷ":{"ha":0,"x_min":0,"x_max":0,"o":""},"ḹ":{"ha":0,"x_min":0,"x_max":0,"o":""},"ǉ":{"ha":0,"x_min":0,"x_max":0,"o":""},"ḻ":{"ha":0,"x_min":0,"x_max":0,"o":""},"ɫ":{"ha":-397,"x_min":0,"x_max":0,"o":"m 324 982 l 123 982 l 123 604 l 113 604 b 186 NaN 156 627 184 663 l 186 NaN l 387 NaN l 387 NaN l 393 NaN b 336 NaN 392 NaN 372 NaN z "},"ɭ":{"ha":-409,"x_min":0,"x_max":0,"o":"m 279 -46 l 279 982 l 79 982 l 79 -46 z "},"ł":{"ha":-479,"x_min":0,"x_max":0,"o":"m 370 639 l 279 609 l 279 982 l 79 982 l 79 544 l -14 514 l -14 403 l 79 433 l 79 0 l 279 0 l 279 497 l 370 526 z "},"ɮ":{"ha":111,"x_min":0,"x_max":0,"o":"m 83 982 l 83 31 l 273 31 l 273 572 l 624 572 l 624 564 l 400 334 l 400 191 l 518 191 b 689 37 627 191 689 133 b 528 -123 689 -64 623 -123 b 391 -72 469 -123 421 -104 l 244 -195 b 525 -292 311 -256 409 -292 b 901 20 745 -292 900 -168 b 604 313 903 167 809 289 l 604 321 l 873 600 l 873 736 l 273 736 l 273 982 z "},"m":{"ha":385,"x_min":0,"x_max":0,"o":""},"ḿ":{"ha":0,"x_min":0,"x_max":0,"o":""},"ṁ":{"ha":0,"x_min":0,"x_max":0,"o":""},"ṃ":{"ha":0,"x_min":0,"x_max":0,"o":""},"ɱ":{"ha":385,"x_min":0,"x_max":0,"o":"m 944 456 l 944 -46 b 841 -119 944 -104 894 -119 b 791 -115 823 -119 808 -118 l 791 -270 b 894 -277 817 -273 848 -276 b 1145 -46 1032 -276 1145 -225 l 1145 495 b 913 746 1145 656 1049 746 b 690 608 805 746 721 691 l 684 608 b 483 746 659 692 584 746 b 278 608 384 746 309 694 l 270 608 l 270 736 l 79 736 l 79 0 l 279 0 l 279 442 b 400 581 279 526 332 581 b 514 461 469 581 515 534 l 514 0 l 709 0 l 709 450 b 829 581 709 528 753 581 b 944 456 895 581 945 540 z "},"ɯ":{"ha":385,"x_min":0,"x_max":0,"o":"m 1142 736 l 1013 736 l 1013 928 z "},"ɰ":{"ha":385,"x_min":0,"x_max":0,"o":"m 951 -277 l 1142 -277 l 1142 736 z "},"n":{"ha":-6,"x_min":0,"x_max":0,"o":""},"ń":{"ha":0,"x_min":0,"x_max":0,"o":""},"ň":{"ha":0,"x_min":0,"x_max":0,"o":""},"ṋ":{"ha":0,"x_min":0,"x_max":0,"o":""},"ņ":{"ha":0,"x_min":0,"x_max":0,"o":""},"ȵ":{"ha":235,"x_min":0,"x_max":0,"o":"m 279 426 l 279 97 b 224 41 261 81 243 63 l 114 -77 l 216 -168 l 294 -79 b 521 -212 328 -167 415 -212 b 761 -14 669 -212 761 -130 b 549 182 760 101 669 182 b 479 180 525 182 502 181 l 479 461 b 225 738 479 633 379 738 b 4 600 116 738 37 684 l -4 600 l -4 728 l -195 728 l -195 -8 l 5 -8 z m 479 -3 l 479 48 b 534 56 500 54 520 56 b 598 -4 570 55 598 33 b 543 -65 598 -41 576 -66 b 479 -3 507 -66 479 -39 z "},"ṅ":{"ha":0,"x_min":0,"x_max":0,"o":""},"ṇ":{"ha":0,"x_min":0,"x_max":0,"o":""},"ǌ":{"ha":0,"x_min":0,"x_max":0,"o":""},"ƞ":{"ha":-6,"x_min":0,"x_max":0,"o":""},"ɲ":{"ha":39,"x_min":0,"x_max":0,"o":"m 123 0 l 123 -42 b 35 -121 123 -98 90 -121 b -24 -114 12 -121 -7 -118 l -38 -277 b 64 -285 -5 -284 28 -285 b 324 -42 219 -285 324 -203 l 324 0 l 326 0 l 326 426 z "},"ṉ":{"ha":0,"x_min":0,"x_max":0,"o":""},"ɳ":{"ha":24,"x_min":0,"x_max":0,"o":"m 753 -46 l 1268 -46 l 1268 -783 l 1469 -783 l 1469 -357 l 1469 -791 l 1468 -791 l 1468 -837 b 1717 -1067 1468 -1016 1579 -1067 b 1822 -1061 1765 -1067 1795 -1064 l 1822 -906 b 1771 -910 1792 -909 1788 -910 b 1668 -837 1718 -910 1668 -895 z "},"ñ":{"ha":0,"x_min":0,"x_max":0,"o":""},"ŋ":{"ha":-5,"x_min":0,"x_max":0,"o":"m 552 8 l 552 -34 b 464 -113 552 -90 519 -112 b 404 -104 441 -112 422 -109 l 391 -269 b 492 -277 424 -275 458 -276 b 753 -34 648 -276 753 -195 l 753 469 b 499 746 753 641 653 746 b 278 608 390 746 311 692 l 270 608 l 270 736 l 79 736 l 79 0 l 279 0 l 279 426 l 279 0 z "},"o":{"ha":-17,"x_min":0,"x_max":0,"o":""},"ó":{"ha":0,"x_min":0,"x_max":0,"o":""},"ɵ":{"ha":-17,"x_min":0,"x_max":0,"o":""},"ŏ":{"ha":-17,"x_min":0,"x_max":0,"o":""},"ǒ":{"ha":-17,"x_min":0,"x_max":0,"o":""},"ô":{"ha":-17,"x_min":0,"x_max":0,"o":""},"ố":{"ha":0,"x_min":0,"x_max":0,"o":""},"ộ":{"ha":0,"x_min":0,"x_max":0,"o":""},"ồ":{"ha":-17,"x_min":0,"x_max":0,"o":""},"ổ":{"ha":0,"x_min":0,"x_max":0,"o":""},"ỗ":{"ha":-17,"x_min":0,"x_max":0,"o":""},"ȍ":{"ha":0,"x_min":0,"x_max":0,"o":""},"ö":{"ha":0,"x_min":0,"x_max":0,"o":""},"ọ":{"ha":0,"x_min":0,"x_max":0,"o":""},"ò":{"ha":0,"x_min":0,"x_max":0,"o":""},"ỏ":{"ha":0,"x_min":0,"x_max":0,"o":""},"ơ":{"ha":6,"x_min":0,"x_max":0,"o":""},"ớ":{"ha":0,"x_min":0,"x_max":0,"o":""},"ợ":{"ha":0,"x_min":0,"x_max":0,"o":""},"ờ":{"ha":0,"x_min":0,"x_max":0,"o":""},"ở":{"ha":0,"x_min":0,"x_max":0,"o":""},"ỡ":{"ha":6,"x_min":0,"x_max":0,"o":""},"ő":{"ha":0,"x_min":0,"x_max":0,"o":""},"ƣ":{"ha":153,"x_min":0,"x_max":0,"o":"m 385 146 b 247 347 277 146 246 236 l 247 366 b 381 587 247 486 268 588 b 473 549 425 588 452 574 l 473 176 b 385 146 453 157 424 146 z m 49 347 b 385 -14 49 144 162 -14 b 673 133 541 -14 623 52 l 673 485 l 742 513 l 742 -277 l 940 -277 l 940 736 l 804 736 l 618 654 b 388 746 565 705 487 746 b 49 366 161 746 49 587 z "},"ȏ":{"ha":-17,"x_min":0,"x_max":0,"o":""},"ō":{"ha":-17,"x_min":0,"x_max":0,"o":""},"ṓ":{"ha":0,"x_min":0,"x_max":0,"o":""},"ṑ":{"ha":-197,"x_min":0,"x_max":0,"o":"l -17 -251 l 1225 -387 l 1430 NaN "},"ɷ":{"ha":410,"x_min":0,"x_max":0,"o":"m 624 587 b 943 319 859 588 943 463 b 837 146 942 220 911 146 b 728 327 777 146 729 195 l 728 452 l 519 452 l 519 327 b 411 146 519 195 472 146 b 307 319 337 146 307 220 b 624 587 306 463 390 588 z m 109 319 b 393 -14 109 152 186 -14 b 624 127 502 -14 580 35 b 854 -14 668 35 746 -14 b 1139 319 1061 -14 1139 152 b 624 746 1140 575 951 746 b 109 319 297 746 109 575 z "},"ǫ":{"ha":-17,"x_min":0,"x_max":0,"o":""},"ǭ":{"ha":0,"x_min":0,"x_max":0,"o":""},"ɔ":{"ha":0,"x_min":0,"x_max":0,"o":""},"ø":{"ha":-17,"x_min":0,"x_max":0,"o":""},"ǿ":{"ha":0,"x_min":0,"x_max":0,"o":""},"õ":{"ha":-17,"x_min":0,"x_max":0,"o":""},"ṍ":{"ha":0,"x_min":0,"x_max":0,"o":""},"ṏ":{"ha":0,"x_min":0,"x_max":0,"o":""},"œ":{"ha":475,"x_min":0,"x_max":0,"o":"m 412 -15 b 675 90 524 -15 613 23 b 572 244 675 153 608 244 b 685 427 686 244 685 426 b 909 577 685 549 773 577 b 651 472 802 577 713 538 b 515 NaN 718 409 627 448 "},"p":{"ha":9,"x_min":0,"x_max":0,"o":""},"ṕ":{"ha":0,"x_min":0,"x_max":0,"o":""},"ṗ":{"ha":0,"x_min":0,"x_max":0,"o":""},"ɸ":{"ha":157,"x_min":0,"x_max":0,"o":"m 96 374 l 96 358 b 399 -6 96 130 224 21 l 399 -260 l 595 -260 l 595 -6 b 897 358 780 22 897 137 l 897 374 b 595 739 897 596 780 711 l 595 982 l 399 982 l 399 739 b 96 374 214 711 96 596 z m 296 358 l 296 374 b 399 570 296 484 338 543 l 399 163 b 296 358 338 189 296 248 z m 595 164 l 595 570 b 697 374 658 543 697 481 l 697 358 b 595 164 697 248 656 190 z "},"ƥ":{"ha":9,"x_min":0,"x_max":0,"o":"m 79 736 l 79 -277 l 279 -277 l 279 118 l 285 118 b 365 176 284 157 311 177 b 430 167 391 175 418 170 l 430 301 b 327 313 411 306 374 313 b 87 118 162 313 87 256 "},"þ":{"ha":0,"x_min":0,"x_max":0,"o":""},"q":{"ha":9,"x_min":0,"x_max":0,"o":"m 566 -277 l 766 -277 l 766 736 l 568 736 l 568 613 l 559 613 l 566 613 "},"ʠ":{"ha":100,"x_min":0,"x_max":0,"o":"m 568 736 l 568 613 l 559 613 l 566 613 l 566 218 l 766 218 l 766 1232 b 846 1290 766 1271 792 1290 b 911 1280 873 1289 900 1283 l 911 1415 b 808 1427 892 1419 856 1426 b 568 1232 644 1426 568 1369 "},"ɋ":{"ha":78,"x_min":0,"x_max":0,"o":"m 815 -277 b 920 -270 859 -276 897 -273 l 920 -115 b 869 -119 903 -118 886 -119 b 766 -46 817 -119 766 -104 l 766 736 l 568 736 l 568 613 l 559 613 l 566 613 l 566 449 b 815 218 566 270 677 219 "},"r":{"ha":-295,"x_min":0,"x_max":0,"o":""},"ŕ":{"ha":0,"x_min":0,"x_max":0,"o":""},"ř":{"ha":0,"x_min":0,"x_max":0,"o":""},"ŗ":{"ha":0,"x_min":0,"x_max":0,"o":""},"ȑ":{"ha":0,"x_min":0,"x_max":0,"o":""},"ṙ":{"ha":0,"x_min":0,"x_max":0,"o":""},"ṛ":{"ha":-295,"x_min":0,"x_max":0,"o":"m 0 -909 z "},"ṝ":{"ha":0,"x_min":0,"x_max":0,"o":""},"ɾ":{"ha":-340,"x_min":0,"x_max":0,"o":"m 270 0 l 270 517 b 388 606 269 588 331 606 b 437 602 405 606 420 604 l 437 736 b 332 746 408 743 374 746 b 75 518 207 746 74 707 l 75 0 z "},"ɿ":{"ha":-341,"x_min":0,"x_max":0,"o":"m 422 -275 l 422 518 b 163 746 421 707 288 746 b 60 736 121 746 87 743 l 60 602 b 109 606 73 604 94 606 b 227 517 164 606 227 588 l 227 -275 z "},"ȓ":{"ha":0,"x_min":0,"x_max":0,"o":""},"ṟ":{"ha":0,"x_min":0,"x_max":0,"o":""},"ɹ":{"ha":-295,"x_min":0,"x_max":0,"o":"m 463 736 l 262 736 l 262 317 b 104 164 262 227 195 164 b 19 175 77 164 38 169 l 19 -4 b 83 -11 37 -8 62 -11 b 260 127 165 -11 234 37 l 269 127 l 269 0 l 463 0 z "},"ɺ":{"ha":-325,"x_min":0,"x_max":0,"o":"m 49 186 l 47 -5 b 107 -14 62 -11 87 -14 b 272 85 180 -14 235 24 l 277 0 l 465 0 l 465 1013 l 267 1013 l 267 254 b 121 180 245 205 198 180 b 49 186 101 180 69 183 z "},"ɻ":{"ha":-230,"x_min":0,"x_max":0,"o":"m 522 -288 b 627 -279 563 -288 596 -285 l 627 -146 b 576 -151 610 -149 595 -151 b 463 -52 500 -151 463 -119 l 463 736 l 262 736 l 262 317 b 104 164 262 227 195 164 b 19 175 77 164 38 169 l 19 -4 b 83 -11 37 -8 62 -11 b 260 127 165 -11 234 37 l 269 127 l 269 -60 b 522 -288 269 -240 383 -288 z "},"s":{"ha":-87,"x_min":0,"x_max":0,"o":""},"ś":{"ha":0,"x_min":0,"x_max":0,"o":""},"ṥ":{"ha":-87,"x_min":0,"x_max":0,"o":"m 7 -359 l -213 -359 l -213 298 l -50 298 l 137 503 l -79 503 z "},"š":{"ha":0,"x_min":0,"x_max":0,"o":""},"ṧ":{"ha":-87,"x_min":0,"x_max":0,"o":"m -388 498 l -487 590 l -656 590 "},"ş":{"ha":170,"x_min":0,"x_max":0,"o":"b -304 284 -87 16 -219 115 b NaN NaN -319 267 -399 NaN l NaN NaN b NaN NaN NaN NaN NaN NaN l NaN NaN "},"ŝ":{"ha":0,"x_min":0,"x_max":0,"o":""},"ș":{"ha":0,"x_min":0,"x_max":0,"o":""},"ṡ":{"ha":0,"x_min":0,"x_max":0,"o":""},"ṣ":{"ha":0,"x_min":0,"x_max":0,"o":""},"ṩ":{"ha":0,"x_min":0,"x_max":0,"o":""},"ß":{"ha":43,"x_min":0,"x_max":0,"o":"m 83 723 l 83 0 l 283 0 l 283 694 b 425 827 283 775 340 827 b 562 701 511 827 562 774 b 445 575 561 633 515 576 l 393 575 l 393 419 l 469 419 b 629 289 568 418 629 367 b 487 164 631 214 574 164 l 389 164 l 389 0 l 518 0 b 833 270 704 0 832 99 b 624 515 833 408 751 507 l 624 526 b 766 730 712 551 766 628 b 419 996 766 905 608 996 b 83 723 216 996 83 892 z "},"ẛ":{"ha":0,"x_min":0,"x_max":0,"o":""},"ẜ":{"ha":-340,"x_min":0,"x_max":0,"o":"m 19 430 l 110 461 l 110 0 l 311 0 l 311 530 l 441 574 l 441 736 l 311 692 l 311 781 l 311 614 l 220 583 z "},"ʂ":{"ha":-87,"x_min":0,"x_max":0,"o":"m 45 212 l 45 -39 b 273 -264 45 -181 136 -264 b 357 -255 303 -264 329 -262 l 357 -122 b 305 -126 340 -125 323 -126 b 197 -28 243 -126 197 -99 l 197 18 b 377 -15 246 -3 307 -15 l 175 -15 l 176 -22 z "},"ſ":{"ha":-359,"x_min":0,"x_max":0,"o":"m 278 0 l 278 774 b 378 868 278 836 313 868 b 444 863 407 868 423 866 l 458 1013 b 351 1027 422 1021 386 1027 b 79 774 179 1027 78 939 l 79 0 z "},"t":{"ha":-322,"x_min":0,"x_max":0,"o":""},"ŧ":{"ha":-322,"x_min":0,"x_max":0,"o":"m 26 370 l 26 472 l -146 472 l -146 616 l -8 616 l -8 713 l -146 713 l -146 831 l -8 831 l -8 982 l -146 982 l -146 1158 l -347 1158 l -347 982 l -449 982 l -449 831 l -347 831 l -347 713 l -449 713 z "},"ť":{"ha":0,"x_min":0,"x_max":0,"o":""},"ʨ":{"ha":0,"x_min":0,"x_max":0,"o":"l 347 0 l 347 -378 b 573 -594 346 -521 427 -595 b 798 -527 664 -594 737 -566 b 1030 -601 858 -574 936 -601 b 1346 -358 1224 -600 1347 -488 b 1139 -190 1346 -256 1272 -190 b 875 -278 1049 -190 963 -219 b 890 -259 871 -278 890 -279 b 512 -374 890 -237 667 -374 b 215 -425 287 -374 215 -361 b NaN NaN 215 -399 160 NaN b NaN NaN NaN NaN NaN NaN b NaN NaN NaN NaN NaN NaN l NaN NaN l NaN NaN m NaN NaN b NaN NaN NaN NaN NaN NaN b NaN NaN NaN NaN NaN NaN b NaN NaN NaN NaN NaN NaN b NaN NaN NaN NaN NaN NaN z "},"ţ":{"ha":0,"x_min":0,"x_max":0,"o":"b -146 -202 -322 -119 -253 -184 l -165 -292 b -70 -357 -98 -299 -68 -318 l -64 -328 l -64 -292 l -64 -292 l -64 -264 l -60 -264 l -60 -247 l -58 -247 l -58 113 l 81 113 "},"ṱ":{"ha":0,"x_min":0,"x_max":0,"o":""},"ț":{"ha":0,"x_min":0,"x_max":0,"o":""},"ȶ":{"ha":-132,"x_min":0,"x_max":0,"o":"m 183 913 l 183 736 l 81 736 l 81 586 l 183 586 l 183 257 b 26 117 133 220 80 174 l 115 5 b 212 100 149 41 182 73 b 435 -15 256 18 344 -16 b 667 184 606 -16 667 90 b 465 369 667 290 590 368 b 384 358 439 369 412 366 l 384 586 l 524 586 l 524 736 l 384 736 l 384 913 z m 384 186 l 384 214 b 446 229 408 224 429 229 b 505 178 487 229 505 206 b 449 122 505 142 480 123 b 384 186 412 123 384 149 z "},"ẗ":{"ha":0,"x_min":0,"x_max":0,"o":""},"ṫ":{"ha":0,"x_min":0,"x_max":0,"o":""},"ṭ":{"ha":0,"x_min":0,"x_max":0,"o":""},"ʧ":{"ha":127,"x_min":0,"x_max":0,"o":"m 170 891 l 170 713 l 64 713 l 64 571 l 170 571 l 170 225 b 385 -14 170 81 214 -14 b 557 12 451 -14 517 1 l 557 -24 b 449 -117 557 -83 519 -117 b 389 -111 422 -117 404 -115 l 388 -263 b 487 -277 415 -270 450 -276 b 758 -24 652 -276 758 -187 l 758 774 b 868 868 758 836 799 868 b 928 863 893 868 911 866 l 929 1015 b 829 1027 901 1021 867 1027 b 557 774 663 1027 557 939 l 557 713 l 368 713 l 368 891 z m 368 225 l 368 571 l 557 571 l 557 161 b 446 149 530 156 484 149 b 368 225 389 149 368 168 z "},"ƭ":{"ha":-224,"x_min":0,"x_max":0,"o":"m 503 713 l 377 713 l 377 796 b 491 890 377 871 438 890 b 540 884 510 890 528 888 l 540 1016 b 437 1027 511 1023 481 1027 b 179 796 298 1027 180 980 l 179 713 l 73 713 l 73 571 l 179 571 l 179 203 b 391 -14 180 50 262 -14 b 511 4 437 -14 476 -8 l 511 153 b 453 149 496 151 477 149 b 377 225 404 149 377 165 l 377 571 l 503 571 z "},"ṯ":{"ha":0,"x_min":0,"x_max":0,"o":""},"ƽ":{"ha":32,"x_min":0,"x_max":0,"o":"m 349 304 b 458 338 367 323 401 338 b 579 244 536 338 579 300 b 461 149 579 186 542 149 b 335 221 387 149 340 173 l 140 213 b 461 -11 139 56 298 -12 b 777 232 686 -12 777 92 b 514 469 777 382 680 471 b 368 438 452 469 397 454 l 385 557 l 728 557 l 728 713 l 91 713 l 91 557 l 202 557 l 170 313 z "},"ƅ":{"ha":215,"x_min":0,"x_max":0,"o":"m 285 0 l 654 0 l 654 -441 l 486 -441 l 486 -201 "},"ƨ":{"ha":-87,"x_min":0,"x_max":0,"o":"m 61 518 l 250 518 b 370 604 258 570 303 603 b 484 528 435 603 485 572 b 389 454 485 494 459 469 l 258 427 b 45 228 115 397 45 334 b 372 -15 45 83 176 -14 b 704 218 570 -14 687 75 l 502 218 b 372 130 492 161 446 131 b 250 208 298 131 250 160 b 350 283 250 245 281 269 l 472 308 b 684 517 612 336 684 408 b 373 746 684 658 563 746 b 61 518 187 746 72 658 z "},"ƫ":{"ha":0,"x_min":0,"x_max":0,"o":"b -97 -207 -314 -134 -227 -199 l -97 -244 b -212 -334 -97 -318 -160 -334 b -262 -331 -233 -334 -248 -332 l -262 -464 b -177 -473 -235 -471 -208 -473 b 45 -244 -43 -473 45 -391 l 45 -28 l -39 -46 l -43 -46 b -112 28 -83 -45 -113 -31 l -112 388 l 26 388 "},"ʈ":{"ha":0,"x_min":0,"x_max":0,"o":"l -318 0 l -318 -659 b -74 -868 -319 -803 -219 -873 b 36 -849 -21 -865 16 -855 l 5 -699 b -47 -705 -5 -700 -27 -705 b -117 -632 -87 -705 -117 -690 l -117 0 l 22 0 "},"ʦ":{"ha":277,"x_min":0,"x_max":0,"o":"m 163 891 l 163 736 l 57 736 l 57 594 l 163 594 l 163 239 b 376 0 163 60 254 0 l 750 0 b 1061 209 938 0 1060 79 b 792 429 1060 332 969 395 b 647 524 704 446 647 461 b 749 609 647 576 687 609 b 860 496 822 609 859 564 l 1058 496 b 750 746 1057 649 939 746 b 658 736 717 746 686 743 l 362 736 l 362 891 z m 362 239 l 362 594 l 471 594 b 456 515 461 570 456 543 b 720 286 456 389 552 319 b 867 214 823 267 867 248 b 754 161 867 176 828 162 l 438 161 b 362 239 382 162 361 183 z "},"ʇ":{"ha":-322,"x_min":0,"x_max":0,"o":"m 47 0 l 186 0 l 186 -176 l 387 -176 l 387 0 l 488 0 l 488 151 l 387 151 l 387 538 b 144 746 388 682 289 747 b 37 739 94 747 58 743 l 37 581 b 117 585 61 583 96 585 b 186 510 157 583 186 569 l 186 151 l 47 151 z "},"u":{"ha":-7,"x_min":0,"x_max":0,"o":""},"ú":{"ha":0,"x_min":0,"x_max":0,"o":""},"ʉ":{"ha":58,"x_min":0,"x_max":0,"o":"m 899 483 l 784 483 l 784 736 l 583 736 l 583 483 l 312 483 l 312 736 l 111 736 l 111 483 l -4 483 l -4 365 l 111 365 l 111 267 b 359 -9 111 95 212 -9 b 583 133 471 -9 550 47 l 591 133 l 591 0 l 784 0 l 784 365 l 899 365 z m 312 302 l 312 365 l 583 365 l 583 313 z "},"ŭ":{"ha":0,"x_min":0,"x_max":0,"o":""},"ǔ":{"ha":0,"x_min":0,"x_max":0,"o":""},"û":{"ha":0,"x_min":0,"x_max":0,"o":""},"ṷ":{"ha":0,"x_min":0,"x_max":0,"o":""},"ȕ":{"ha":0,"x_min":0,"x_max":0,"o":""},"ü":{"ha":0,"x_min":0,"x_max":0,"o":""},"ǘ":{"ha":0,"x_min":0,"x_max":0,"o":""},"ṳ":{"ha":-7,"x_min":0,"x_max":0,"o":"m 342 0 z "},"ǚ":{"ha":0,"x_min":0,"x_max":0,"o":""},"ǜ":{"ha":0,"x_min":0,"x_max":0,"o":""},"ǖ":{"ha":0,"x_min":0,"x_max":0,"o":""},"ụ":{"ha":0,"x_min":0,"x_max":0,"o":""},"ù":{"ha":0,"x_min":0,"x_max":0,"o":""},"ủ":{"ha":0,"x_min":0,"x_max":0,"o":""},"ư":{"ha":108,"x_min":0,"x_max":0,"o":""},"ứ":{"ha":0,"x_min":0,"x_max":0,"o":""},"ự":{"ha":0,"x_min":0,"x_max":0,"o":""},"ừ":{"ha":0,"x_min":0,"x_max":0,"o":""},"ử":{"ha":0,"x_min":0,"x_max":0,"o":""},"ữ":{"ha":0,"x_min":0,"x_max":0,"o":""},"ű":{"ha":0,"x_min":0,"x_max":0,"o":""},"ȗ":{"ha":0,"x_min":0,"x_max":0,"o":""},"ū":{"ha":0,"x_min":0,"x_max":0,"o":""},"ṻ":{"ha":0,"x_min":0,"x_max":0,"o":""},"ǹ":{"ha":0,"x_min":0,"x_max":0,"o":""},"ȟ":{"ha":0,"x_min":0,"x_max":0,"o":""},"ȡ":{"ha":125,"x_min":0,"x_max":0,"o":"m 353 -12 l 355 -12 l 355 -141 l 186 -281 l 274 -400 l 391 -305 b 623 -407 429 -367 501 -406 b 863 -235 781 -406 863 -340 b 617 -50 863 -125 772 -50 b 560 -54 597 -50 578 -51 l 560 852 l 359 852 l 359 483 l 353 483 z m 859 34 l 859 -60 l 1240 -60 l 1240 -36 b 1302 -22 1263 -26 1283 -20 b 1373 -80 1351 -22 1373 -47 b 1310 -134 1373 -112 1347 -135 b 1240 -60 1273 -135 1240 -111 z "},"ȣ":{"ha":56,"x_min":0,"x_max":0,"o":"m 439 456 l 454 456 b 625 302 563 456 625 397 b 454 146 625 205 563 146 l 439 146 b 269 301 333 146 269 205 b 439 456 269 397 333 456 z m 68 301 b 439 -14 68 95 224 -14 l 454 -14 b 825 302 668 -14 825 95 b 711 533 825 409 782 485 b 825 754 782 576 825 648 b 540 1027 825 933 706 1025 l 540 875 b 627 750 590 857 627 822 b 456 614 627 650 562 615 l 437 614 b 269 750 333 615 269 650 b 353 875 269 822 302 857 l 353 1027 b 68 754 186 1025 68 931 b 181 533 68 648 111 576 b 68 301 111 485 68 409 z "},"ȧ":{"ha":-62,"x_min":0,"x_max":0,"o":""},"ȩ":{"ha":0,"x_min":0,"x_max":0,"o":""},"ȫ":{"ha":0,"x_min":0,"x_max":0,"o":""},"ȭ":{"ha":-17,"x_min":0,"x_max":0,"o":"m -256 853 z m -232 1114 l 236 1114 l 236 1226 l -232 1226 z "},"ȯ":{"ha":0,"x_min":0,"x_max":0,"o":""},"ȱ":{"ha":0,"x_min":0,"x_max":0,"o":""},"ȳ":{"ha":0,"x_min":0,"x_max":0,"o":""},"ȸ":{"ha":437,"x_min":0,"x_max":0,"o":"m 1200 358 l 1200 372 b 917 746 1200 597 1093 746 b 736 668 840 746 781 718 l 736 982 l 537 982 l 537 668 b 522 659 537 718 493 659 b 528 753 444 659 528 720 b NaN NaN 528 810 573 NaN l NaN NaN z m NaN NaN l NaN NaN l NaN NaN l NaN NaN b NaN NaN NaN NaN NaN NaN b NaN NaN NaN NaN NaN NaN l NaN NaN b NaN NaN NaN NaN NaN NaN b NaN NaN NaN NaN NaN NaN z m NaN NaN l NaN NaN b NaN NaN NaN NaN NaN NaN b NaN NaN NaN NaN NaN NaN l NaN NaN b NaN NaN NaN NaN NaN NaN b NaN NaN NaN NaN NaN NaN z "},"ȹ":{"ha":437,"x_min":0,"x_max":0,"o":"m 537 -274 l 537 -75 l 876 -75 l 876 -61 b 592 313 876 165 768 313 b 405 228 511 313 450 282 l 397 304 l 235 304 l 222 223 b 211 218 222 280 178 218 b 205 305 127 218 205 277 b NaN NaN 205 355 249 NaN z m NaN NaN l NaN NaN b NaN NaN NaN NaN NaN NaN b NaN NaN NaN NaN NaN NaN l NaN NaN b NaN NaN NaN NaN NaN NaN b NaN NaN NaN NaN NaN NaN z m NaN NaN l NaN NaN b NaN NaN NaN NaN NaN NaN b NaN NaN NaN NaN NaN NaN l NaN NaN b NaN NaN NaN NaN NaN NaN b NaN NaN NaN NaN NaN NaN z "},"ȼ":{"ha":-54,"x_min":0,"x_max":0,"o":"m 674 982 l 557 982 l 474 741 b 433 722 477 721 456 722 b 95 795 278 787 156 901 l -210 NaN l -93 NaN l 0 NaN b 78 NaN 24 NaN 51 NaN b 405 NaN 273 NaN 396 NaN l 216 NaN b 81 NaN 203 NaN 151 NaN b 54 NaN 71 NaN 62 NaN l 189 NaN b 216 NaN 202 NaN 212 NaN l 405 NaN b 248 NaN 399 NaN 342 NaN z m -79 NaN b 81 NaN -79 NaN -16 NaN b 90 NaN 84 NaN 87 NaN l -41 NaN b -79 NaN -66 NaN -79 NaN z "},"ȿ":{"ha":0,"x_min":0,"x_max":0,"o":"b -178 52 -86 6 -136 23 b NaN NaN -214 159 -398 NaN l NaN NaN b NaN NaN NaN NaN NaN NaN b NaN NaN NaN NaN NaN NaN l NaN NaN b NaN NaN NaN NaN NaN NaN b NaN NaN NaN NaN NaN NaN b NaN NaN NaN NaN NaN NaN "},"ɀ":{"ha":7,"x_min":0,"x_max":0,"o":"m 340 160 l 340 145 l 221 145 l 221 361 b 624 84 412 361 414 85 b 814 170 707 85 770 129 l 747 301 b 642 251 724 281 683 251 b 269 521 521 251 505 520 z "},"ɂ":{"ha":-68,"x_min":0,"x_max":0,"o":"m 81 454 l 281 454 b 387 587 281 542 315 588 b 487 460 458 588 487 538 b 362 321 487 370 449 322 l 286 321 l 286 0 l 487 0 l 487 218 b 686 465 621 241 686 333 b 385 746 686 642 570 746 b 81 454 204 746 81 635 z "},"ɇ":{"ha":-39,"x_min":0,"x_max":0,"o":"m 674 982 l 557 982 l 474 741 b 404 746 452 744 428 746 b 49 365 189 746 48 592 b 227 27 48 205 113 86 l 122 -277 l 239 -277 l 332 -8 b 412 -15 357 -12 384 -15 b 745 210 594 -14 716 74 l 553 210 b 416 136 534 166 485 136 b 382 138 405 136 393 137 l 444 316 l 750 316 l 750 373 b 578 706 750 541 682 651 z m 247 316 l 327 316 l 285 193 b 247 316 260 224 247 266 z m 247 442 b 408 595 251 527 316 596 b 424 595 414 595 418 595 l 371 442 z m 488 442 l 524 547 b 560 442 547 519 560 484 z "},"ɉ":{"ha":-479,"x_min":0,"x_max":0,"o":"m 79 736 l 79 506 l -61 506 l -61 387 l 79 387 l 79 -34 l 502 -34 l 502 197 "},"ɍ":{"ha":-295,"x_min":0,"x_max":0,"o":"m 79 0 l 279 0 l 279 297 l 282 297 l 282 -23 z "},"ɏ":{"ha":-47,"x_min":0,"x_max":0,"o":"m 765 498 l 685 498 l 769 736 l 556 736 l 488 498 l 305 498 l 237 736 l 27 736 l 111 498 l 22 498 l 22 395 l 146 395 b NaN NaN 292 -20 459 456 l NaN NaN l NaN NaN z m NaN NaN l NaN NaN l NaN NaN l NaN NaN z "},"ʙ":{"ha":0,"x_min":0,"x_max":0,"o":""},"ʜ":{"ha":0,"x_min":0,"x_max":0,"o":"l -45 0 l -45 190 l 691 190 l 691 0 l 404 0 l 404 -256 "},"ʫ":{"ha":223,"x_min":0,"x_max":0,"o":"m 986 160 l 628 160 l 978 618 l 978 736 l 279 736 l 279 982 l 856 982 l 856 1428 l 505 970 l 505 851 l 1117 851 z "},"ʬ":{"ha":-96,"x_min":0,"x_max":0,"o":"m 210 962 l 73 962 l 180 575 l 292 575 l 372 791 l 449 575 l 559 575 l 667 962 l 530 962 l 489 765 l 422 962 l 319 962 l 252 762 z m 73 385 l 180 0 l 292 0 l 372 217 l 449 0 l 559 0 l 667 385 l 530 385 l 489 189 l 422 385 l 319 385 l 252 187 l 210 385 z "},"ẝ":{"ha":-328,"x_min":0,"x_max":0,"o":"m 323 0 l 323 682 l 468 682 l 468 804 l 327 804 b 434 868 338 846 376 867 b 492 861 456 867 477 866 l 495 1015 b 393 1027 467 1021 431 1027 b 125 804 238 1027 136 949 l 15 804 l 15 682 l 123 682 l 123 0 z "},"ẟ":{"ha":31,"x_min":0,"x_max":0,"o":"m 208 825 b 335 647 208 749 252 690 l 336 643 b 125 349 216 613 124 492 l 125 336 b 475 -14 124 132 259 -14 b 822 347 686 -14 821 136 l 822 359 b 502 741 821 543 720 667 b 397 822 420 769 397 797 b 502 876 397 857 431 876 b 665 846 563 876 626 862 l 665 997 b 487 1027 602 1017 549 1027 b 208 825 315 1027 207 947 z m 321 358 l 321 369 b 475 575 321 485 376 574 b 624 369 562 557 624 464 l 624 358 b 475 145 624 234 572 145 b 321 358 374 145 321 235 z "},"ỻ":{"ha":124,"x_min":0,"x_max":0,"o":"m 892 910 l 724 910 l 724 982 l 524 982 l 524 910 l 408 910 l 408 982 l 206 982 l 206 910 l 68 910 l 68 788 l 206 788 l 206 0 l 408 0 l 408 788 l 524 788 l 524 0 l 724 0 l 724 788 l 892 788 z "},"ỽ":{"ha":31,"x_min":0,"x_max":0,"o":"m 536 640 l 448 498 b 576 294 524 458 577 395 b 438 146 577 201 523 147 b 293 345 345 147 293 218 l 293 404 b 633 890 293 669 457 818 l 570 1040 b 92 412 288 956 93 726 l 92 372 b 442 -14 93 140 232 -14 b 776 308 644 -14 776 104 b 536 640 776 463 669 585 z "},"ỿ":{"ha":52,"x_min":0,"x_max":0,"o":"m 370 736 l 153 736 l 332 248 b 304 250 323 249 313 250 b 31 -20 153 250 31 127 b 301 -288 31 -167 153 -288 b 585 -52 439 -288 521 -224 l 865 736 l 651 736 l 505 270 l 499 302 z m 206 -20 b 307 83 205 47 250 83 b 403 -20 360 83 402 47 b 307 -119 402 -86 359 -119 b 206 -20 250 -119 205 -86 z "},"ↄ":{"ha":0,"x_min":0,"x_max":0,"o":""},"ų":{"ha":-7,"x_min":0,"x_max":0,"o":"m 551 313 l 444 313 l 444 260 l 399 260 l 399 241 l 331 241 l 331 252 l 269 252 l 269 989 l 68 989 z "},"ʊ":{"ha":58,"x_min":0,"x_max":0,"o":"m 448 145 b 274 292 309 145 275 224 b 349 594 275 396 349 481 b 90 746 349 682 294 746 l 90 595 b 145 549 118 595 145 582 b 77 240 145 465 77 393 b 448 -14 77 134 149 -14 b 819 240 746 -14 819 134 b 750 549 819 393 749 465 b 804 595 749 582 776 595 l 804 746 b 548 594 604 746 547 682 b 620 292 547 481 619 396 b 448 145 619 224 587 145 z "},"ů":{"ha":0,"x_min":0,"x_max":0,"o":""},"ũ":{"ha":0,"x_min":0,"x_max":0,"o":""},"ṹ":{"ha":0,"x_min":0,"x_max":0,"o":""},"ṵ":{"ha":0,"x_min":0,"x_max":0,"o":""},"v":{"ha":-55,"x_min":0,"x_max":0,"o":""},"ṿ":{"ha":0,"x_min":0,"x_max":0,"o":""},"ʋ":{"ha":-68,"x_min":0,"x_max":0,"o":"m 382 -14 b 701 281 570 -14 701 72 l 701 524 b 518 746 701 656 654 746 b 361 718 470 746 418 735 l 381 576 b 427 582 398 581 412 582 b 502 491 476 582 502 551 l 502 281 b 382 146 502 184 458 146 b 264 281 307 146 264 184 l 264 736 l 66 736 l 66 281 b 382 -14 66 72 195 -14 z "},"ṽ":{"ha":0,"x_min":0,"x_max":0,"o":""},"ʌ":{"ha":-55,"x_min":0,"x_max":0,"o":"m 19 0 l 232 0 l 387 529 l 395 529 l 549 0 l 761 0 l 503 736 l 278 736 z "},"w":{"ha":302,"x_min":0,"x_max":0,"o":""},"ẃ":{"ha":0,"x_min":0,"x_max":0,"o":""},"ŵ":{"ha":0,"x_min":0,"x_max":0,"o":""},"ẅ":{"ha":0,"x_min":0,"x_max":0,"o":""},"ẇ":{"ha":0,"x_min":0,"x_max":0,"o":""},"ẉ":{"ha":0,"x_min":0,"x_max":0,"o":""},"ẁ":{"ha":0,"x_min":0,"x_max":0,"o":""},"ẘ":{"ha":0,"x_min":0,"x_max":0,"o":""},"ʍ":{"ha":302,"x_min":0,"x_max":0,"o":"m 914 736 l 701 736 l 574 269 l 564 269 l 437 736 l 225 736 l 23 0 l 227 0 l 340 495 l 347 495 l 469 0 l 669 0 l 789 498 l 796 498 l 911 0 l 1115 0 z "},"ƿ":{"ha":63,"x_min":0,"x_max":0,"o":"m 118 -274 l 317 -274 l 317 -115 b 781 350 613 -33 782 91 l 781 385 b 495 746 782 601 680 746 b 311 664 414 746 355 715 l 304 736 l 118 736 z m 317 41 l 317 519 b 442 587 340 564 379 587 b 582 385 547 587 582 494 l 582 350 b 317 41 582 183 475 82 z "},"x":{"ha":-71,"x_min":0,"x_max":0,"o":""},"ẍ":{"ha":0,"x_min":0,"x_max":0,"o":""},"ẋ":{"ha":0,"x_min":0,"x_max":0,"o":""},"y":{"ha":-55,"x_min":0,"x_max":0,"o":""},"ý":{"ha":0,"x_min":0,"x_max":0,"o":""},"ŷ":{"ha":0,"x_min":0,"x_max":0,"o":""},"ÿ":{"ha":0,"x_min":0,"x_max":0,"o":""},"ẏ":{"ha":0,"x_min":0,"x_max":0,"o":""},"ỵ":{"ha":0,"x_min":0,"x_max":0,"o":""},"ỳ":{"ha":0,"x_min":0,"x_max":0,"o":""},"ƴ":{"ha":14,"x_min":0,"x_max":0,"o":"m 202 -277 b 480 -81 352 -276 440 -200 l 727 652 b 796 742 747 710 764 738 b 857 731 814 744 834 739 l 894 884 b 765 913 859 902 813 913 b 544 699 646 913 580 823 l 393 194 l 385 194 l 231 736 l 20 736 l 285 -20 l 273 -53 b 121 -104 245 -123 193 -127 l 76 -256 b 202 -277 104 -267 151 -276 z "},"ỷ":{"ha":0,"x_min":0,"x_max":0,"o":""},"ẙ":{"ha":0,"x_min":0,"x_max":0,"o":""},"ỹ":{"ha":0,"x_min":0,"x_max":0,"o":""},"ʎ":{"ha":-55,"x_min":0,"x_max":0,"o":"m 585 1013 b 307 818 429 1013 349 937 l 19 0 l 232 0 l 388 543 l 396 543 l 551 0 l 761 0 l 496 757 l 509 788 b 605 856 533 852 565 856 b 686 853 630 856 661 855 l 686 1009 b 585 1013 661 1012 624 1013 z "},"z":{"ha":-74,"x_min":0,"x_max":0,"o":""},"ź":{"ha":0,"x_min":0,"x_max":0,"o":""},"ƶ":{"ha":-74,"x_min":0,"x_max":0,"o":"m 73 0 l 690 0 l 690 160 l 338 160 l 338 165 l 451 312 l 616 312 l 616 431 l 544 431 l 678 605 l 678 736 l 85 736 l 85 576 l 437 576 l 437 571 l 324 431 l 140 431 l 140 312 l 228 312 l 73 121 z "},"ž":{"ha":0,"x_min":0,"x_max":0,"o":""},"ẑ":{"ha":0,"x_min":0,"x_max":0,"o":""},"ʑ":{"ha":109,"x_min":0,"x_max":0,"o":"m 77 0 l 311 0 b 291 -297 248 -90 373 -174 b NaN NaN 124 NaN NaN NaN "},"ż":{"ha":0,"x_min":0,"x_max":0,"o":""},"ẓ":{"ha":0,"x_min":0,"x_max":0,"o":""},"ȥ":{"ha":-81,"x_min":0,"x_max":0,"o":"m 548 -129 l 548 -178 l 715 -178 l 715 -91 b 449 160 715 63 619 159 l 323 160 l 677 618 l 677 736 l 83 736 l 83 576 l 429 576 l 75 119 l 75 0 l 449 0 b 548 -129 533 0 548 -69 z "},"ẕ":{"ha":0,"x_min":0,"x_max":0,"o":""},"ʐ":{"ha":14,"x_min":0,"x_max":0,"o":"m 549 0 l 549 -60 b 773 -288 549 -205 635 -288 b 856 -279 802 -288 827 -286 l 856 -145 b 804 -148 838 -147 823 -149 b 690 -60 751 -149 691 -131 l 690 160 l 338 160 l 338 165 l 338 45 z "},"ａ":{"ha":466,"x_min":0,"x_max":0,"o":""},"ｂ":{"ha":466,"x_min":0,"x_max":0,"o":"m 309 0 "},"ｃ":{"ha":466,"x_min":0,"x_max":0,"o":"m 670 -15 z "},"ｄ":{"ha":0,"x_min":0,"x_max":0,"o":""},"ｅ":{"ha":466,"x_min":0,"x_max":0,"o":"m 665 -15 b 997 210 846 -14 968 74 b 617 NaN 764 349 618 574 "},"ｆ":{"ha":466,"x_min":0,"x_max":0,"o":"m 867 736 l 720 736 l 720 781 l 720 726 l 616 726 l 616 575 l 720 575 l 720 -11 l 921 -11 l 921 575 l 1067 575 z "},"ｇ":{"ha":466,"x_min":0,"x_max":0,"o":"m 639 -292 b 997 -8 848 -292 996 -196 "},"ｈ":{"ha":466,"x_min":0,"x_max":0,"o":"m 514 426 l 80 426 l 80 627 l 549 627 l 549 1001 l 354 1001 l 354 19 l 555 19 z "},"ｉ":{"ha":466,"x_min":0,"x_max":0,"o":"m 552 0 "},"ｊ":{"ha":466,"x_min":0,"x_max":0,"o":"m 552 736 l 552 -34 l 1325 -34 "},"ｋ":{"ha":466,"x_min":0,"x_max":0,"o":""},"ｌ":{"ha":466,"x_min":0,"x_max":0,"o":"m 753 982 z "},"ｍ":{"ha":466,"x_min":0,"x_max":0,"o":"m 119 0 z "},"ｎ":{"ha":466,"x_min":0,"x_max":0,"o":"m 517 426 l 718 426 z "},"ｏ":{"ha":466,"x_min":0,"x_max":0,"o":"m 651 -15 b 1013 366 874 -14 1013 138 b 879 NaN 1240 366 1102 518 z "},"ｐ":{"ha":466,"x_min":0,"x_max":0,"o":"m 308 -277 l 509 -277 l 509 118 l 514 118 l 316 118 "},"ｑ":{"ha":466,"x_min":0,"x_max":0,"o":"m 795 -277 l 996 -277 l 996 736 l 798 736 l 798 613 l 788 613 l 795 613 "},"ｒ":{"ha":466,"x_min":0,"x_max":0,"o":"m 460 0 "},"ɼ":{"ha":-276,"x_min":0,"x_max":0,"o":"m 79 -277 l 279 -277 l 279 419 z "},"ɽ":{"ha":-276,"x_min":0,"x_max":0,"o":"m 330 -277 l 330 -231 l 330 -231 l 330 -199 l 795 -199 l 13 -199 z "},"ｓ":{"ha":466,"x_min":0,"x_max":0,"o":"m 777 518 z "},"ｔ":{"ha":466,"x_min":0,"x_max":0,"o":"m 861 736 l 861 586 z "},"ｕ":{"ha":466,"x_min":0,"x_max":0,"o":"m 788 313 l 1525 313 l 1525 113 z "},"ｖ":{"ha":466,"x_min":0,"x_max":0,"o":"m 1023 736 l 810 736 l 655 736 l 655 208 l 444 208 z "},"ｗ":{"ha":466,"x_min":0,"x_max":0,"o":"m 307 0 l 519 0 l 647 468 l 656 468 l 784 0 l 996 0 l 1198 736 l 994 736 l 880 241 l 873 241 l 751 736 l 552 736 l 431 239 l 425 239 l 309 736 l 106 736 z "},"ｘ":{"ha":466,"x_min":0,"x_max":0,"o":"m 515 736 l 296 368 z "},"ｙ":{"ha":466,"x_min":0,"x_max":0,"o":"m 457 -277 l 745 541 z "},"ｚ":{"ha":466,"x_min":0,"x_max":0,"o":"m 343 0 z "},"ₔ":{"ha":-195,"x_min":0,"x_max":0,"o":"m 301 260 b 87 165 195 260 121 212 l 164 81 b 293 140 197 119 243 139 b 427 38 360 139 413 100 l 73 38 l 73 -28 b 317 -288 74 -184 163 -288 b 575 -15 474 -288 574 -173 l 575 4 b 301 260 574 144 472 260 z m 218 -76 l 218 -64 l 427 -64 b 319 -165 416 -126 380 -166 b 218 -76 257 -166 219 -132 z "},"ₐ":{"ha":0,"x_min":0,"x_max":0,"o":""},"ₑ":{"ha":0,"x_min":0,"x_max":0,"o":""},"ᵢ":{"ha":0,"x_min":0,"x_max":0,"o":""},"ⱼ":{"ha":0,"x_min":0,"x_max":0,"o":""},"ₒ":{"ha":0,"x_min":0,"x_max":0,"o":""},"ᵣ":{"ha":0,"x_min":0,"x_max":0,"o":""},"ᵤ":{"ha":0,"x_min":0,"x_max":0,"o":""},"ᵥ":{"ha":0,"x_min":0,"x_max":0,"o":""},"ₓ":{"ha":0,"x_min":0,"x_max":0,"o":""},"ʶ":{"ha":-196,"x_min":0,"x_max":0,"o":"m 312 431 b 545 612 456 431 545 511 b 454 765 545 673 512 730 l 571 960 l 406 960 l 311 802 l 214 802 l 214 960 l 69 960 l 69 431 z m 214 555 l 214 680 l 319 680 b 401 617 374 679 401 652 b 316 555 401 580 372 555 z "},"ʵ":{"ha":-326,"x_min":0,"x_max":0,"o":"m 50 578 l 50 429 b 88 425 57 427 71 425 b 209 494 138 425 180 450 l 209 401 b 363 224 209 271 257 223 b 461 232 397 223 444 229 l 461 361 b 419 354 448 357 433 354 b 354 418 375 354 355 381 l 354 960 l 209 960 l 209 614 b 115 568 191 584 159 568 b 50 578 92 568 69 571 z "},"ʱ":{"ha":-193,"x_min":0,"x_max":0,"o":"m 235 997 b 298 1062 234 1036 254 1061 b 342 1055 313 1061 328 1060 l 342 1184 b 243 1192 325 1187 271 1192 b 90 1013 137 1192 89 1146 l 90 431 l 235 431 l 235 794 b 324 844 251 825 280 844 b 410 719 382 844 409 807 l 410 431 l 556 431 l 556 765 b 376 967 555 907 487 967 b 235 892 315 967 267 939 z "},"ʴ":{"ha":-452,"x_min":0,"x_max":0,"o":"m 39 578 l 39 429 b 79 425 46 427 61 425 b 208 509 133 425 178 456 l 229 431 l 345 431 l 345 960 l 198 960 l 198 612 b 106 568 180 583 149 568 b 39 578 77 568 56 572 z "},"ʰ":{"ha":0,"x_min":0,"x_max":0,"o":""},"ⁱ":{"ha":0,"x_min":0,"x_max":0,"o":""},"ʲ":{"ha":0,"x_min":0,"x_max":0,"o":""},"ˡ":{"ha":-599,"x_min":0,"x_max":0,"o":"m 190 1145 l 46 1145 l 46 491 l 190 491 z "},"ⁿ":{"ha":0,"x_min":0,"x_max":0,"o":""},"ʳ":{"ha":0,"x_min":0,"x_max":0,"o":""},"ˢ":{"ha":0,"x_min":0,"x_max":0,"o":""},"ʷ":{"ha":0,"x_min":0,"x_max":0,"o":""},"ˣ":{"ha":0,"x_min":0,"x_max":0,"o":""},"ʸ":{"ha":0,"x_min":0,"x_max":0,"o":""},"ǃ":{"ha":-410,"x_min":0,"x_max":0,"o":"m 317 982 l 109 982 l 126 294 l 300 294 "},"ǀ":{"ha":-443,"x_min":0,"x_max":0,"o":"m 256 966 l 137 966 l 137 0 l 256 0 z "},"ǁ":{"ha":-317,"x_min":0,"x_max":0,"o":"m 235 966 l 115 966 l 115 0 l 235 0 z m 292 0 l 411 0 l 411 966 l 292 966 z "},"ǂ":{"ha":-257,"x_min":0,"x_max":0,"o":"m 349 966 "},"ƻ":{"ha":0,"x_min":0,"x_max":0,"o":"l 12 77 b 163 228 76 136 125 184 l 315 228 l 315 347 l 243 347 b 268 464 261 387 268 424 b -82 754 268 634 128 754 b -431 439 -289 754 -431 631 l -237 439 b -85 591 -237 534 -177 592 b 71 450 5 592 71 538 b 37 347 71 412 60 380 l -161 347 l -161 228 l -73 228 l -422 -94 "},"ꟿ":{"ha":816,"x_min":0,"x_max":0,"o":"m 376 962 l 168 962 l 75 0 l 281 0 l 345 646 l 678 0 l 883 0 l 947 647 l 1279 0 l 1280 1 l 1280 0 l 1484 0 l 1579 962 l 1374 962 l 1311 314 l 978 962 l 773 962 l 709 313 z "},"ª":{"ha":0,"x_min":0,"x_max":0,"o":""},"º":{"ha":0,"x_min":0,"x_max":0,"o":""},"А":{"ha":161,"x_min":0,"x_max":0,"o":""},"Б":{"ha":0,"x_min":0,"x_max":0,"o":""},"В":{"ha":48,"x_min":0,"x_max":0,"o":""},"Г":{"ha":0,"x_min":0,"x_max":0,"o":""},"Ѓ":{"ha":0,"x_min":0,"x_max":0,"o":""},"Ґ":{"ha":-56,"x_min":0,"x_max":0,"o":"m 83 0 l 286 0 l 286 814 l 735 814 l 735 1219 l 541 1219 l 541 982 l 83 982 z "},"Ӷ":{"ha":-60,"x_min":0,"x_max":0,"o":"m 732 982 l 83 982 l 83 0 l 283 0 l 283 -237 l 479 -237 l 479 140 l 286 140 l 286 814 l 732 814 z "},"Ғ":{"ha":-60,"x_min":0,"x_max":0,"o":"m 732 982 l 83 982 l 83 1218 l 529 1218 z "},"Ҕ":{"ha":78,"x_min":0,"x_max":0,"o":"m 732 982 l 83 982 l 83 0 l 286 0 l 286 392 l 456 392 l 456 222 l 719 222 l 719 669 z "},"Д":{"ha":218,"x_min":0,"x_max":0,"o":"m 27 -237 l 224 -237 l 224 0 l 821 0 l 821 -236 l 1016 -236 l 1016 163 l 909 163 l 909 982 l 262 982 l 233 567 b 95 163 217 309 161 212 l 27 163 z m 330 163 b 430 567 380 245 417 372 l 445 814 l 712 814 l 712 163 z "},"Е":{"ha":-18,"x_min":0,"x_max":0,"o":""},"Ѐ":{"ha":0,"x_min":0,"x_max":0,"o":""},"Ё":{"ha":0,"x_min":0,"x_max":0,"o":""},"Ж":{"ha":614,"x_min":0,"x_max":0,"o":""},"З":{"ha":0,"x_min":0,"x_max":0,"o":""},"И":{"ha":149,"x_min":0,"x_max":0,"o":""},"Й":{"ha":0,"x_min":0,"x_max":0,"o":""},"Ѝ":{"ha":0,"x_min":0,"x_max":0,"o":""},"Ҋ":{"ha":0,"x_min":0,"x_max":0,"o":"l 149 0 l 149 83 l 297 83 l 297 -96 l -132 -720 l -140 -720 l -140 -96 "},"К":{"ha":108,"x_min":0,"x_max":0,"o":"m 677 0 l 929 0 l 528 507 l 911 982 l 658 982 l 346 589 l 288 589 l 288 982 l 83 982 l 83 0 l 288 0 l 288 420 l 347 420 z "},"Ќ":{"ha":0,"x_min":0,"x_max":0,"o":""},"Л":{"ha":0,"x_min":0,"x_max":0,"o":"l 140 0 l 140 198 l 1122 198 l 1122 -465 l 1106 -903 b 947 -1280 1096 -1178 1055 -1272 l 919 -1283 "},"М":{"ha":390,"x_min":0,"x_max":0,"o":""},"Н":{"ha":163,"x_min":0,"x_max":0,"o":""},"О":{"ha":210,"x_min":0,"x_max":0,"o":""},"П":{"ha":0,"x_min":0,"x_max":0,"o":""},"Р":{"ha":0,"x_min":0,"x_max":0,"o":""},"С":{"ha":169,"x_min":0,"x_max":0,"o":""},"Т":{"ha":56,"x_min":0,"x_max":0,"o":""},"У":{"ha":59,"x_min":0,"x_max":0,"o":""},"Ў":{"ha":0,"x_min":0,"x_max":0,"o":""},"Ф":{"ha":318,"x_min":0,"x_max":0,"o":"m 686 876 l 674 876 l 674 1000 l 480 1000 l 480 876 l 469 876 b 64 475 235 876 64 718 b 469 84 64 237 232 84 l 480 84 l 480 -41 l 674 -41 l 674 84 l 686 84 b 1089 475 921 84 1090 239 b 686 876 1090 718 921 876 z m 254 475 b 469 705 254 629 340 705 l 480 705 l 480 255 l 469 255 b 254 475 342 255 254 328 z m 674 255 l 674 705 l 688 705 b 899 475 814 705 899 627 b 688 255 899 330 814 255 z "},"Х":{"ha":0,"x_min":0,"x_max":0,"o":""},"Ч":{"ha":153,"x_min":0,"x_max":0,"o":""},"Ц":{"ha":226,"x_min":0,"x_max":0,"o":"m 1024 164 l 890 164 l 890 982 l 692 982 l 692 164 l 279 164 l 279 982 l 83 982 l 83 0 l 818 0 l 818 -232 l 1012 -232 z "},"Ш":{"ha":492,"x_min":0,"x_max":0,"o":"m 83 982 l 83 0 l 1245 0 l 1245 982 l 1047 982 l 1047 164 l 765 164 l 765 982 l 567 982 l 567 164 l 282 164 l 282 982 z "},"Щ":{"ha":589,"x_min":0,"x_max":0,"o":"m 1389 159 l 1245 159 l 1245 982 l 1047 982 l 1047 164 l 765 164 l 765 982 l 567 982 l 567 164 l 282 164 l 282 982 l 83 982 l 83 0 l 1190 0 l 1190 -231 l 1375 -231 z "},"Џ":{"ha":136,"x_min":0,"x_max":0,"o":"m 83 0 l 387 0 l 387 -237 l 586 -237 l 586 0 l 890 0 l 890 982 l 689 982 l 689 164 l 281 164 l 281 982 l 83 982 z "},"Ь":{"ha":40,"x_min":0,"x_max":0,"o":""},"Ы":{"ha":360,"x_min":0,"x_max":0,"o":""},"Ъ":{"ha":262,"x_min":0,"x_max":0,"o":"m 45 823 l 305 823 l 305 0 l -159 0 "},"Љ":{"ha":669,"x_min":0,"x_max":0,"o":"m 57 0 l 107 0 b 433 475 326 0 415 113 l 449 817 l 712 817 l 712 0 l 54 0 l 38 -438 b -121 -815 26 -750 -26 -811 l -146 -817 "},"Њ":{"ha":667,"x_min":0,"x_max":0,"o":"m 83 0 l 286 0 l 286 456 l 709 456 l 709 0 l 506 0 l 506 -365 l 83 -365 l 83 0 l -121 0 "},"Ѕ":{"ha":39,"x_min":0,"x_max":0,"o":""},"Є":{"ha":94,"x_min":0,"x_max":0,"o":"m 473 -14 b 871 321 707 -14 861 113 l 670 321 b 473 151 665 215 583 150 b 262 399 354 150 273 248 l 572 399 l 572 563 l 262 563 b 475 829 273 725 354 829 b 671 652 585 829 666 762 l 871 652 b 475 996 856 866 702 996 b 64 509 225 996 64 804 l 64 449 b 473 -14 64 168 224 -14 z "},"Э":{"ha":98,"x_min":0,"x_max":0,"o":""},"І":{"ha":-467,"x_min":0,"x_max":0,"o":""},"Ї":{"ha":0,"x_min":0,"x_max":0,"o":""},"Ј":{"ha":0,"x_min":0,"x_max":0,"o":""},"Ћ":{"ha":351,"x_min":0,"x_max":0,"o":"m 799 982 l 45 982 l 45 818 l 281 818 l 281 0 l 481 0 l 481 456 b 680 473 541 467 627 473 b 868 317 810 473 868 431 l 868 0 l 1066 0 l 1066 200 l 1383 200 z "},"Ю":{"ha":580,"x_min":0,"x_max":0,"o":"m 286 982 l 681 982 l 681 1135 b 1135 726 717 875 901 726 b 677 286 890 726 702 567 l 528 286 "},"Я":{"ha":79,"x_min":0,"x_max":0,"o":"m 833 0 l 833 982 l 449 982 b 96 662 225 982 97 857 b 270 382 97 528 159 430 l 61 0 l 288 0 l 474 349 l 629 349 l 629 0 z m 307 662 b 487 815 307 761 365 814 l 629 815 l 629 514 l 486 514 b 307 662 365 514 307 564 z "},"Ђ":{"ha":302,"x_min":0,"x_max":0,"o":"m 849 982 l 45 982 l 45 814 l 346 814 l 346 0 l 548 0 l 548 425 b 701 441 602 435 655 441 b 880 286 812 441 880 380 b 699 144 880 197 818 143 l 700 -12 b 1088 292 988 -18 1088 123 b 712 590 1088 495 928 590 b 548 572 654 590 599 583 l 548 814 l 849 814 z "},"Ѡ":{"ha":478,"x_min":0,"x_max":0,"o":"m 83 312 b 422 -14 83 100 226 -14 b 658 91 519 -14 603 22 b 891 -14 711 22 793 -14 b 1232 312 1084 -14 1231 100 l 1232 982 l 1027 982 l 1027 312 b 891 151 1027 206 977 151 b 758 312 805 151 758 206 l 758 982 l 556 982 l 556 312 l 1226 312 l 1226 109 z "},"Ѣ":{"ha":0,"x_min":0,"x_max":0,"o":""},"Ѥ":{"ha":515,"x_min":0,"x_max":0,"o":"m 929 570 l 640 570 b 876 814 661 738 753 814 b 1097 648 982 814 1067 758 l 1294 674 b 876 996 1243 880 1078 996 b 435 570 642 996 465 838 l 286 570 l 286 982 l 83 982 l 83 0 l 286 0 l 286 410 l 435 410 b 876 -14 465 142 642 -14 b 1293 304 1083 -14 1243 106 l 1093 330 b 876 168 1063 220 979 169 b 640 410 754 169 661 243 l 929 410 z "},"Ѧ":{"ha":151,"x_min":0,"x_max":0,"o":"m 732 0 l 949 0 l 602 982 l 387 982 l 39 0 l 256 0 l 347 275 l 404 275 l 404 0 l 575 0 l 575 275 l 642 275 z m 393 416 l 494 724 l 595 416 z "},"Ѩ":{"ha":542,"x_min":0,"x_max":0,"o":"m 277 982 l 552 982 l 552 1208 l 454 933 l 671 933 l 762 1208 l 819 1208 l 819 933 l 990 933 l 990 1208 l 1057 1208 l 1147 933 l 1364 933 l 1017 1915 l 802 1915 l 602 1350 l 326 1350 z m 808 1350 l 909 1657 l 1010 1350 z "},"Ѫ":{"ha":410,"x_min":0,"x_max":0,"o":"m 91 221 l 91 0 l 296 0 l 296 221 b 458 361 296 334 359 361 l 530 361 l 530 0 l 735 0 l 735 361 l 788 361 b 949 221 902 361 949 323 l 949 0 l 1156 0 l 1156 221 b 818 527 1156 444 1017 520 l 1086 982 l 184 982 l 451 528 b 91 221 205 526 90 429 z m 499 814 l 772 814 l 635 566 z "},"Ѭ":{"ha":816,"x_min":0,"x_max":0,"o":"m 87 0 l 290 0 l 290 361 l 522 361 b 499 221 507 321 499 275 l 499 0 l 704 0 l 704 221 b 867 361 705 334 767 361 l 939 361 l 939 0 l 1143 0 l 1143 361 l 1196 361 b 1358 221 1310 361 1357 323 l 1358 0 l 1564 0 l 1564 221 b 1226 527 1564 444 1426 520 l 1495 982 l 593 982 l 859 528 l 290 528 l 290 982 l 87 982 z m 907 814 l 1180 814 l 1043 566 z "},"Ѯ":{"ha":-74,"x_min":0,"x_max":0,"o":"m 319 982 l 142 982 l 142 818 l 319 818 b 473 704 425 818 473 779 b 323 578 473 630 427 578 l 221 578 l 221 414 l 319 414 b 505 285 438 413 505 374 b 349 151 505 200 445 151 l 305 151 b 64 -47 155 151 64 85 b 286 -296 64 -182 153 -267 l 342 -178 b 245 -75 291 -155 245 -125 b 320 -14 245 -39 269 -14 l 361 -14 b 703 266 568 -14 703 95 b 512 498 703 384 635 462 b 673 734 616 541 672 623 b 319 982 672 899 546 982 z m 161 1256 l 370 1070 l 494 1070 l 700 1256 l 700 1263 l 536 1263 l 433 1169 l 328 1263 l 161 1263 z "},"Ѱ":{"ha":0,"x_min":0,"x_max":0,"o":""},"Ѳ":{"ha":0,"x_min":0,"x_max":0,"o":""},"Ѵ":{"ha":181,"x_min":0,"x_max":0,"o":""},"Ѷ":{"ha":0,"x_min":0,"x_max":0,"o":""},"Ѹ":{"ha":0,"x_min":0,"x_max":0,"o":""},"Җ":{"ha":-221,"x_min":0,"x_max":0,"o":"l 614 0 l 614 134 l 376 134 l 376 330 l 753 330 l 753 161 "},"Ҙ":{"ha":51,"x_min":0,"x_max":0,"o":"m 66 277 b 398 -12 71 117 205 3 l 381 -94 b 476 -159 448 -101 478 -120 l 481 -132 z "},"Қ":{"ha":153,"x_min":0,"x_max":0,"o":"m 677 0 l 754 0 l 754 -231 l 949 -231 l 949 146 l 813 146 l 528 507 l 911 982 l 658 982 l 346 589 l 288 589 l 288 982 l 83 982 l 83 0 l 288 0 l 288 420 l 347 420 z "},"Ҝ":{"ha":113,"x_min":0,"x_max":0,"o":"m 345 746 l 345 576 l 285 576 l 285 982 l 83 982 l 83 0 l 285 0 l 285 385 l 345 385 l 345 237 l 458 237 l 458 385 l 496 385 l 690 0 l 935 0 l 654 518 l 910 982 l 670 982 l 481 576 l 458 576 l 458 746 z "},"Ҡ":{"ha":295,"x_min":0,"x_max":0,"o":"m 445 982 l 16 982 l 16 823 l 240 823 l 240 0 l 445 0 l 445 420 l 505 420 l 834 0 l 1086 0 l 685 507 l 1069 982 l 815 982 l 503 589 l 445 589 z "},"Ң":{"ha":307,"x_min":0,"x_max":0,"o":"m 83 0 l 286 0 l 286 407 l 712 407 l 712 0 l 911 0 l 911 -190 l 1754 -190 l 1754 -395 z "},"Ҥ":{"ha":513,"x_min":0,"x_max":0,"o":"m 1305 982 l 712 982 l 712 575 l 286 575 l 286 982 l 693 982 l 693 1408 l 286 1408 l 286 1613 l 1100 1613 l 1100 2001 z "},"Ҧ":{"ha":691,"x_min":0,"x_max":0,"o":"m 886 982 l 81 982 l 81 0 l 283 0 l 283 815 l 684 815 l 684 0 l 886 0 l 886 391 l 1016 391 l 1016 260 z "},"Ҩ":{"ha":310,"x_min":0,"x_max":0,"o":"m 1069 -8 l 1069 149 b 953 159 1027 149 989 153 b 1062 471 1023 243 1062 351 l 1062 598 b 747 996 1063 831 935 996 b 456 633 572 996 456 838 l 456 487 b 590 160 456 357 504 245 b 555 159 578 159 567 159 b 289 434 392 159 288 275 l 289 601 b 435 823 288 728 348 824 l 435 997 b 77 600 222 996 77 823 l 77 434 b 555 -14 77 182 269 -14 b 793 37 643 -14 724 5 b 1069 -8 873 7 966 -8 z m 643 486 l 643 635 b 753 823 644 751 688 824 b 861 624 817 824 861 749 l 861 471 b 766 237 861 376 827 294 b 643 486 686 298 644 386 z "},"Ҫ":{"ha":0,"x_min":0,"x_max":0,"o":""},"Ҭ":{"ha":56,"x_min":0,"x_max":0,"o":"m 45 814 l 346 814 l 346 0 l 540 0 l 540 -187 l 1214 -187 l 1214 114 l 1382 114 l 1382 -690 z "},"Ү":{"ha":130,"x_min":0,"x_max":0,"o":""},"Ұ":{"ha":130,"x_min":0,"x_max":0,"o":"m 23 982 l 330 441 l 244 441 l 244 321 l 381 321 l 381 0 l 585 0 l 585 321 l 720 321 l 720 441 l 636 441 z "},"Ҳ":{"ha":-219,"x_min":0,"x_max":0,"o":"l 116 0 l 116 102 l -33 102 "},"Ҵ":{"ha":413,"x_min":0,"x_max":0,"o":"m 696 982 l 45 982 l 45 823 l 271 823 l 271 0 l 1006 0 l 1006 -232 l 1200 -232 l 1213 164 l 1078 164 l 1078 982 l 880 982 l 880 164 l 468 164 l 468 823 l 696 823 z "},"Ҷ":{"ha":0,"x_min":0,"x_max":0,"o":""},"Ҹ":{"ha":153,"x_min":0,"x_max":0,"o":"m 553 703 l 439 703 l 439 513 b 319 665 357 528 319 573 l 319 982 l 121 982 l 121 665 b 439 347 121 464 243 365 l 439 194 l 553 194 l 553 346 b 705 364 602 349 661 355 l 705 0 l 906 0 l 906 982 l 705 982 l 705 526 b 553 510 661 518 602 512 z "},"Һ":{"ha":153,"x_min":0,"x_max":0,"o":"m 868 0 l 868 364 l 1324 364 b 1522 382 1383 376 1470 382 b 1710 226 1652 382 1710 340 l 1710 -92 z "},"Ҽ":{"ha":0,"x_min":0,"x_max":0,"o":"b -412 479 0 309 -257 479 b -129 NaN -130 479 -129 NaN b 155 NaN -25 NaN 95 NaN l 121 NaN b -122 NaN 44 NaN -53 NaN b -384 NaN -293 NaN -383 NaN l -384 NaN l 210 NaN l 210 NaN b -175 NaN 210 NaN 66 NaN b -582 NaN -416 NaN -581 NaN b -663 NaN -634 NaN -663 NaN m -384 NaN b -175 NaN -382 NaN -299 NaN b 11 NaN -58 NaN 12 NaN l 11 NaN z "},"Ҿ":{"ha":0,"x_min":0,"x_max":0,"o":"b -359 429 0 309 -215 429 b -195 NaN -155 429 -195 NaN l -195 NaN l 0 NaN l 0 NaN b 217 NaN 85 NaN 170 NaN l 183 NaN b -60 NaN 106 NaN 9 NaN b -321 NaN -231 NaN -321 NaN l -321 NaN l 273 NaN l 273 NaN b -113 NaN 272 NaN 129 NaN b -519 NaN -353 NaN -518 NaN b -601 NaN -572 NaN -601 NaN m -321 NaN b -113 NaN -319 NaN -237 NaN b 73 NaN 4 NaN 74 NaN l 73 NaN z "},"Ӏ":{"ha":-467,"x_min":0,"x_max":0,"o":""},"Ӂ":{"ha":0,"x_min":0,"x_max":0,"o":""},"Ӄ":{"ha":92,"x_min":0,"x_max":0,"o":"m 281 393 l 465 393 b 677 152 598 393 679 302 b 499 -77 675 10 608 -77 l 500 -233 b 876 161 734 -233 876 -84 b 549 533 875 369 754 505 l 872 982 l 631 982 l 351 576 l 281 576 l 281 982 l 83 982 l 83 0 l 281 0 z "},"Ӆ":{"ha":0,"x_min":0,"x_max":0,"o":"l 140 0 l 140 142 l -18 142 l -18 1013 l -682 1013 l -698 574 b -857 197 -708 300 -749 206 l -885 195 "},"Ӈ":{"ha":163,"x_min":0,"x_max":0,"o":"m 712 407 l 712 -37 b 591 -126 711 -109 652 -125 b 534 -122 575 -125 549 -123 l 534 -285 b 609 -290 544 -287 579 -291 b 916 -49 879 -291 916 -142 l 916 0 l 917 0 l 917 982 l 712 982 l 712 0 l 916 0 l 916 407 z "},"Ӊ":{"ha":279,"x_min":0,"x_max":0,"o":"m 83 0 l 286 0 l 286 407 l 712 407 l 712 0 l 862 0 l 862 -205 z "},"Ӌ":{"ha":0,"x_min":0,"x_max":0,"o":""},"Ӎ":{"ha":0,"x_min":0,"x_max":0,"o":"l 474 0 l 474 83 l 617 83 l 617 -170 l 345 -836 l 334 -836 l 61 -170 "},"Ӑ":{"ha":161,"x_min":0,"x_max":0,"o":""},"Ӓ":{"ha":0,"x_min":0,"x_max":0,"o":""},"Ӕ":{"ha":545,"x_min":0,"x_max":0,"o":""},"Ӗ":{"ha":0,"x_min":0,"x_max":0,"o":""},"Ә":{"ha":111,"x_min":0,"x_max":0,"o":""},"Ӛ":{"ha":0,"x_min":0,"x_max":0,"o":""},"Ӝ":{"ha":0,"x_min":0,"x_max":0,"o":""},"Ӟ":{"ha":0,"x_min":0,"x_max":0,"o":""},"Ӡ":{"ha":0,"x_min":0,"x_max":0,"o":""},"Ӣ":{"ha":0,"x_min":0,"x_max":0,"o":""},"Ӥ":{"ha":0,"x_min":0,"x_max":0,"o":""},"Ӧ":{"ha":0,"x_min":0,"x_max":0,"o":""},"Ө":{"ha":0,"x_min":0,"x_max":0,"o":""},"Ӫ":{"ha":0,"x_min":0,"x_max":0,"o":""},"Ӭ":{"ha":0,"x_min":0,"x_max":0,"o":""},"Ӯ":{"ha":0,"x_min":0,"x_max":0,"o":""},"Ӱ":{"ha":0,"x_min":0,"x_max":0,"o":""},"Ӳ":{"ha":0,"x_min":0,"x_max":0,"o":""},"Ӵ":{"ha":0,"x_min":0,"x_max":0,"o":""},"Ӹ":{"ha":420,"x_min":0,"x_max":0,"o":"m 458 617 l 294 617 l 294 982 l 91 982 l 91 0 l 458 0 b 834 313 690 0 834 127 b 458 617 834 498 690 617 z "},"Ӻ":{"ha":-60,"x_min":0,"x_max":0,"o":"m 732 982 l 732 332 l 932 332 l 932 529 l 742 529 l 742 810 l 978 810 l 978 1256 z "},"Ӽ":{"ha":0,"x_min":0,"x_max":0,"o":"l 116 0 l 116 122 l 97 122 l 97 -69 "},"Ӿ":{"ha":116,"x_min":0,"x_max":0,"o":"m 271 982 l 39 982 l 302 555 l 236 555 l 236 435 l 307 435 l 34 0 l -238 435 l -172 435 l -172 555 l -234 555 "},"Ҁ":{"ha":56,"x_min":0,"x_max":0,"o":"m 586 151 l 452 151 b 277 381 338 151 277 243 l 277 601 b 454 830 277 743 324 830 b 616 661 552 830 616 779 l 822 661 b 456 996 823 878 673 996 b 72 600 209 996 72 838 l 72 381 b 381 -8 72 172 191 21 l 381 -236 l 586 -236 z "},"Ҍ":{"ha":0,"x_min":0,"x_max":0,"o":""},"Ҏ":{"ha":47,"x_min":0,"x_max":0,"o":"m 498 644 l 411 589 l 477 488 b 434 484 463 486 449 484 l 290 484 l 290 815 l 434 815 b 613 651 555 814 614 749 b 570 532 613 602 600 562 z m 87 0 l 290 0 l 290 320 l 467 320 b 577 332 507 320 543 324 l 652 216 l 739 273 l 675 371 b 823 651 771 427 823 527 b 472 982 823 844 695 982 l 87 982 z "},"а":{"ha":-62,"x_min":0,"x_max":0,"o":""},"б":{"ha":-21,"x_min":0,"x_max":0,"o":"m 747 876 l 686 1008 b 453 982 642 976 564 984 b 49 457 187 980 48 812 l 49 397 b 408 -15 48 129 186 -14 b 768 354 630 -14 767 129 b 453 699 767 570 641 699 b 212 559 336 699 256 648 l 203 559 b 460 817 221 739 290 814 b 747 876 610 819 685 825 z m 252 347 b 408 547 254 475 312 547 b 563 347 505 547 564 475 b 410 141 564 220 505 142 b 252 347 311 142 252 220 z "},"в":{"ha":0,"x_min":0,"x_max":0,"o":""},"г":{"ha":-216,"x_min":0,"x_max":0,"o":""},"ѓ":{"ha":0,"x_min":0,"x_max":0,"o":""},"ґ":{"ha":-193,"x_min":0,"x_max":0,"o":"m 604 922 l 419 922 l 419 736 l 79 736 l 79 0 l 274 0 l 274 578 l 604 578 z "},"ӷ":{"ha":-216,"x_min":0,"x_max":0,"o":"m 581 736 l 79 736 l 79 0 l 271 0 l 271 -239 l 467 -239 l 467 138 l 274 138 l 274 578 l 581 578 z "},"ғ":{"ha":0,"x_min":0,"x_max":0,"o":"l -216 0 l -216 195 l 120 195 l 120 335 l 239 335 l 239 195 l 361 195 l 361 502 "},"ҕ":{"ha":-66,"x_min":0,"x_max":0,"o":"m 581 736 l 79 736 l 79 0 l 274 0 l 274 283 l 316 283 b 509 118 429 283 510 228 b 366 -60 508 32 444 -24 l 449 -189 b 700 118 609 -131 702 -9 b 316 441 700 332 541 440 l 274 441 l 274 578 l 581 578 z "},"д":{"ha":58,"x_min":0,"x_max":0,"o":"m 19 -216 l 216 -216 l 216 0 l 670 0 l 670 -216 l 861 -216 l 861 160 l 747 160 l 747 736 l 186 736 l 167 494 b 76 160 155 347 140 201 l 19 160 z m 277 160 b 349 494 321 228 338 337 l 357 582 l 557 582 l 557 160 z "},"е":{"ha":-39,"x_min":0,"x_max":0,"o":""},"ѐ":{"ha":0,"x_min":0,"x_max":0,"o":""},"ё":{"ha":0,"x_min":0,"x_max":0,"o":""},"ж":{"ha":338,"x_min":0,"x_max":0,"o":""},"з":{"ha":-136,"x_min":0,"x_max":0,"o":""},"и":{"ha":-20,"x_min":0,"x_max":0,"o":""},"й":{"ha":0,"x_min":0,"x_max":0,"o":""},"ҋ":{"ha":0,"x_min":0,"x_max":0,"o":"l 0 100 l 136 100 l -24 100 l -24 725 l -223 725 "},"ѝ":{"ha":0,"x_min":0,"x_max":0,"o":""},"к":{"ha":-56,"x_min":0,"x_max":0,"o":""},"ќ":{"ha":0,"x_min":0,"x_max":0,"o":""},"л":{"ha":0,"x_min":0,"x_max":0,"o":"l -29 0 l -29 736 l -587 736 l -599 411 b -706 160 -607 222 -635 159 l -730 160 "},"м":{"ha":0,"x_min":0,"x_max":0,"o":"l 0 192 l 189 192 l 189 928 l -52 928 "},"н":{"ha":0,"x_min":0,"x_max":0,"o":"l -45 0 l -45 190 l 691 190 l 691 0 l 404 0 l 404 -256 "},"о":{"ha":-17,"x_min":0,"x_max":0,"o":""},"п":{"ha":0,"x_min":0,"x_max":0,"o":"l -39 0 l -39 736 l -680 736 "},"р":{"ha":9,"x_min":0,"x_max":0,"o":""},"с":{"ha":-54,"x_min":0,"x_max":0,"o":""},"т":{"ha":-93,"x_min":0,"x_max":0,"o":"m 39 578 l 275 578 l 275 0 l 467 0 l 467 578 l 704 578 l 704 736 l 39 736 z "},"у":{"ha":-55,"x_min":0,"x_max":0,"o":""},"ў":{"ha":0,"x_min":0,"x_max":0,"o":""},"ф":{"ha":222,"x_min":0,"x_max":0,"o":"m 429 -250 l 629 -250 l 629 -15 b 1009 366 853 -14 1009 140 b 629 746 1009 591 853 746 l 629 982 l 429 982 l 429 746 b 49 366 204 746 48 591 b 429 -15 48 140 204 -14 z m 254 366 b 429 590 254 490 317 589 l 429 142 b 254 366 318 143 254 241 z m 629 142 l 629 590 b 803 366 741 589 803 490 b 629 142 803 241 741 143 z "},"х":{"ha":-71,"x_min":0,"x_max":0,"o":""},"ч":{"ha":-47,"x_min":0,"x_max":0,"o":""},"ц":{"ha":0,"x_min":0,"x_max":0,"o":"l 39 0 l 39 564 l -79 564 "},"ш":{"ha":313,"x_min":0,"x_max":0,"o":"m 79 736 l 79 0 l 1076 0 l 1076 736 z "},"щ":{"ha":431,"x_min":0,"x_max":0,"o":"m 1229 159 l 1076 159 l 1076 736 l 884 736 l 884 0 l 1836 0 l 1836 -212 l 2021 -212 z "},"џ":{"ha":0,"x_min":0,"x_max":0,"o":"l -39 0 l -39 225 l -276 225 l -276 419 l -39 419 l -39 642 "},"ь":{"ha":-52,"x_min":0,"x_max":0,"o":""},"ы":{"ha":257,"x_min":0,"x_max":0,"o":"m 389 -159 z "},"ъ":{"ha":105,"x_min":0,"x_max":0,"o":"m 235 736 l 45 736 l 45 576 l 235 576 "},"љ":{"ha":440,"x_min":0,"x_max":0,"o":"m 62 0 l 122 0 b 373 351 279 0 360 104 l 385 578 l 570 578 l 570 736 l 205 736 l 191 411 b 85 160 184 222 156 159 l 61 160 "},"њ":{"ha":395,"x_min":0,"x_max":0,"o":"m 79 0 b 270 256 270 0 574 256 b NaN NaN 362 256 168 NaN l NaN NaN l NaN NaN l NaN NaN l NaN NaN l NaN NaN l NaN NaN l NaN NaN z m NaN NaN l NaN NaN l NaN NaN b NaN NaN NaN NaN NaN NaN b NaN NaN NaN NaN NaN NaN z "},"ѕ":{"ha":-87,"x_min":0,"x_max":0,"o":""},"є":{"ha":-64,"x_min":0,"x_max":0,"o":"m 442 426 l 235 426 b 393 586 249 524 300 586 b 534 468 475 586 515 539 l 720 499 b 393 746 691 650 566 746 b 39 369 174 746 39 590 b 393 -15 39 145 174 -14 b 719 224 563 -14 687 81 l 530 254 b 393 148 513 193 471 149 b 236 307 301 149 250 210 l 442 307 z "},"э":{"ha":-98,"x_min":0,"x_max":0,"o":""},"і":{"ha":-479,"x_min":0,"x_max":0,"o":""},"ї":{"ha":0,"x_min":0,"x_max":0,"o":""},"ј":{"ha":0,"x_min":0,"x_max":0,"o":""},"ћ":{"ha":0,"x_min":0,"x_max":0,"o":""},"ю":{"ha":276,"x_min":0,"x_max":0,"o":"m 240 736 l 39 736 l 39 0 l 240 0 l 240 285 l 357 285 b 704 -15 386 106 513 -14 b 1058 368 922 -14 1057 144 b 704 746 1057 591 922 746 b 355 444 511 746 383 625 l 240 444 z m 541 368 b 704 586 541 496 589 586 b 865 368 819 586 866 494 b 704 148 866 241 819 149 b 541 368 589 149 541 240 z "},"я":{"ha":-64,"x_min":0,"x_max":0,"o":"m 510 0 l 697 0 l 697 736 l 370 736 b 62 496 180 736 62 640 b 200 298 62 406 113 336 l 41 0 l 233 0 l 376 267 l 510 267 z m 254 491 b 370 579 254 538 294 579 l 510 579 l 510 404 l 368 404 b 254 491 293 404 254 441 z "},"ђ":{"ha":-3,"x_min":0,"x_max":0,"o":"m 556 434 l 556 -46 b 453 -119 555 -104 505 -119 b 403 -115 435 -119 420 -118 l 403 -270 b 506 -277 428 -273 460 -276 b 757 -46 644 -276 756 -225 l 1272 -46 l 1272 137 l 1411 137 l 1411 256 l 1272 256 l 1272 328 l 1077 328 l 1077 256 l 935 256 l 935 137 l 1077 137 l 1077 -654 l 1278 -654 l 1278 -228 z "},"ѡ":{"ha":338,"x_min":0,"x_max":0,"o":"m 79 301 b 377 -14 79 95 203 -14 b 591 84 467 -14 543 20 b 800 -14 639 20 711 -14 b 1101 301 977 -14 1101 96 l 1101 736 l 909 736 l 909 301 b 800 145 909 199 870 145 b 688 301 725 145 688 199 l 688 736 l 496 736 l 496 301 b 377 145 497 199 455 145 b 270 301 309 145 271 203 l 270 736 l 79 736 z "},"ѣ":{"ha":5,"x_min":0,"x_max":0,"o":"m 506 838 l 328 838 l 328 1070 l 136 1070 l 136 838 l 28 838 l 28 716 l 136 716 l 136 0 l 483 0 b 791 254 677 0 791 102 b 483 509 791 408 677 509 l 328 509 l 328 716 l 506 716 "},"ѥ":{"ha":284,"x_min":0,"x_max":0,"o":"m 789 419 l 570 419 b 728 586 581 521 633 586 b 869 468 809 586 851 540 l 1057 499 b 728 746 1026 650 901 746 b 377 419 526 746 396 613 l 274 419 l 274 736 l 73 736 l 73 0 l 274 0 l 274 297 l 379 297 b 728 -15 405 112 533 -14 b 1054 224 898 -14 1022 81 l 867 254 b 728 148 848 192 804 149 b 572 297 639 149 589 206 l 789 297 z "},"ѧ":{"ha":28,"x_min":0,"x_max":0,"o":"m 411 434 l 432 528 l 453 434 l 500 302 l 364 302 z m 53 0 l 256 0 l 319 175 l 363 175 l 363 0 l 492 0 l 492 175 l 546 175 l 609 0 l 811 0 l 533 732 l 328 732 z "},"ѩ":{"ha":317,"x_min":0,"x_max":0,"o":"m 940 0 l 1142 0 l 864 736 l 658 736 l 496 302 l 275 302 l 275 736 l 76 736 l 76 0 l 275 0 l 275 178 l 449 178 l 382 0 l 585 0 l 646 175 l 696 175 l 696 0 l 818 0 l 818 175 l 878 175 z m 691 302 l 739 438 l 762 536 l 784 438 l 832 302 z "},"ѫ":{"ha":184,"x_min":0,"x_max":0,"o":"m 274 0 l 274 121 b 401 255 274 228 318 255 l 415 255 l 415 0 l 613 0 l 613 255 l 620 255 b 746 121 709 255 746 221 l 746 0 l 945 0 l 945 121 b 692 402 945 302 851 385 l 891 736 l 140 736 l 338 403 b 75 121 171 387 74 306 l 75 0 z m 426 609 l 609 609 l 516 419 z "},"ѭ":{"ha":562,"x_min":0,"x_max":0,"o":"m 271 736 l 71 736 l 71 0 l 271 0 l 271 262 l 467 262 b 441 121 450 224 441 177 l 441 0 l 640 0 l 640 121 b 768 255 641 228 685 255 l 781 255 l 781 0 l 979 0 l 979 255 l 986 255 b 1114 121 1075 255 1113 221 l 1114 0 l 1312 0 l 1312 121 b 1058 402 1312 302 1217 385 l 1257 736 l 506 736 l 703 406 l 271 406 z m 792 609 l 977 609 l 883 418 z "},"ѯ":{"ha":-124,"x_min":0,"x_max":0,"o":"m 260 736 l 85 736 l 85 593 l 260 593 b 399 519 355 593 397 573 b 277 434 399 467 356 434 l 164 434 l 164 313 l 271 313 b 429 224 375 313 429 285 b 282 130 430 162 378 130 l 244 130 b 22 -46 100 130 21 67 b 224 -285 22 -153 100 -245 l 279 -178 b 194 -76 222 -151 193 -116 b 279 -14 193 -35 223 -14 l 313 -14 b 629 212 511 -14 629 81 b 479 378 629 296 576 350 b 598 545 556 412 597 471 b 260 736 599 674 480 736 z m 92 1010 l 301 825 l 423 825 l 631 1010 l 631 1017 l 468 1017 l 362 925 l 258 1017 l 92 1017 z "},"ѱ":{"ha":0,"x_min":0,"x_max":0,"o":""},"ѳ":{"ha":-17,"x_min":0,"x_max":0,"o":""},"ѵ":{"ha":-9,"x_min":0,"x_max":0,"o":""},"ѷ":{"ha":0,"x_min":0,"x_max":0,"o":""},"ѹ":{"ha":0,"x_min":0,"x_max":0,"o":""},"җ":{"ha":-164,"x_min":0,"x_max":0,"o":"l 338 0 l 338 137 l 101 137 l 101 332 l 478 332 l 478 140 "},"ҙ":{"ha":-136,"x_min":0,"x_max":0,"o":"m 235 208 l 39 208 b 299 -12 44 79 150 2 l 282 -94 b 377 -159 349 -101 379 -120 l 382 -134 z "},"қ":{"ha":66,"x_min":0,"x_max":0,"o":"m 79 0 l 279 0 l 279 263 l 351 263 l 540 0 l 670 0 l 670 -237 l 865 -237 l 865 140 l 677 140 l 514 363 l 777 736 l 540 736 l 343 449 l 279 449 l 279 736 l 79 736 z "},"ҝ":{"ha":12,"x_min":0,"x_max":0,"o":"m 79 0 l 279 0 l 279 263 l 338 263 l 338 145 l 439 145 l 439 263 l 484 263 l 616 0 l 848 0 l 642 372 l 845 736 l 616 736 l 468 449 l 439 449 l 439 568 l 338 568 l 338 449 l 279 449 l 279 736 l 79 736 z "},"ҡ":{"ha":173,"x_min":0,"x_max":0,"o":"m 509 736 l 39 736 l 39 576 l 308 576 l 308 0 z "},"ң":{"ha":0,"x_min":0,"x_max":0,"o":"l 111 0 l 111 189 l -83 189 l -83 785 l -273 785 l -273 498 l -530 498 "},"ҥ":{"ha":151,"x_min":0,"x_max":0,"o":"m 963 736 l 526 736 l 526 449 l 270 449 l 270 736 l 460 736 l 460 1314 l 707 1314 z "},"ҧ":{"ha":0,"x_min":0,"x_max":0,"o":"l 405 0 l 405 288 l 479 288 b 687 123 599 288 688 234 b 541 -54 685 38 631 -12 l 625 -183 b 876 123 803 -123 876 18 b 479 446 876 340 713 447 l 405 446 l 405 736 l -237 736 "},"ҩ":{"ha":158,"x_min":0,"x_max":0,"o":"m 901 -19 l 901 90 b 793 99 862 90 826 93 b 886 321 852 157 886 235 l 886 439 b 643 746 886 612 789 746 b 411 472 503 746 411 626 l 411 349 b 480 138 411 269 433 197 b 297 347 373 140 298 236 l 297 433 b 388 583 298 518 336 576 l 388 746 b 96 433 213 745 96 611 l 96 347 b 483 -14 96 142 252 -14 b 661 17 549 -14 608 -3 b 901 -19 727 -6 807 -19 z m 548 338 l 548 458 b 621 582 548 532 578 582 b 696 453 665 582 695 530 l 696 332 b 618 181 695 272 666 217 b 548 338 572 224 548 278 z "},"ҫ":{"ha":0,"x_min":0,"x_max":0,"o":""},"ҭ":{"ha":-93,"x_min":0,"x_max":0,"o":"m 39 578 l 275 578 l 275 0 l 463 0 l 463 -239 l 658 -239 l 658 138 l 467 138 l 467 578 l 704 578 l 704 736 l 39 736 z "},"ү":{"ha":0,"x_min":0,"x_max":0,"o":""},"ұ":{"ha":-106,"x_min":0,"x_max":0,"o":"m 20 736 l 228 130 l 127 130 l 127 11 l 269 11 l 270 7 l 270 -277 l 461 -277 l 461 7 l 463 11 l 604 11 l 604 130 l 503 130 "},"ҳ":{"ha":-71,"x_min":0,"x_max":0,"o":"m 245 736 l 26 368 l 107 368 l 107 130 l 302 130 l 302 507 l 149 507 l 11 736 l 227 1104 l 19 1104 l -121 845 z "},"ҵ":{"ha":153,"x_min":0,"x_max":0,"o":"m 537 736 l 57 736 l 57 576 l 201 576 l 201 0 l 754 0 l 754 -212 l 940 -212 l 952 159 l 842 159 l 842 736 l 652 736 l 652 159 l 393 159 l 393 576 l 537 576 z "},"ҷ":{"ha":0,"x_min":0,"x_max":0,"o":"l 0 106 l 186 106 l 186 -132 l 381 -132 l 381 245 l 190 245 "},"ҹ":{"ha":-47,"x_min":0,"x_max":0,"o":"m 453 548 l 338 548 l 338 379 b 269 487 288 393 268 426 l 269 738 l 79 738 l 79 487 b 338 216 79 321 175 236 l 338 114 l 453 114 l 453 214 b 525 224 477 216 501 219 l 525 0 l 715 0 l 715 736 l 525 736 l 525 383 b 453 372 500 378 477 374 z "},"һ":{"ha":-3,"x_min":0,"x_max":0,"o":""},"ҽ":{"ha":0,"x_min":0,"x_max":0,"o":"b 152 -24 0 181 18 -24 b 235 157 26 -24 235 -24 b 386 246 235 158 357 246 b 332 -5 522 246 332 115 b NaN NaN 332 -189 304 NaN b NaN NaN NaN NaN NaN NaN "},"ҿ":{"ha":0,"x_min":0,"x_max":0,"o":"b -124 301 181 16 -3 126 b NaN NaN -146 284 -229 NaN l NaN NaN b NaN NaN NaN NaN NaN NaN l NaN NaN b NaN NaN NaN NaN NaN NaN b NaN NaN NaN NaN NaN NaN b NaN NaN NaN NaN NaN NaN b NaN NaN NaN NaN NaN NaN "},"ӏ":{"ha":-467,"x_min":0,"x_max":0,"o":""},"ӂ":{"ha":0,"x_min":0,"x_max":0,"o":""},"ӄ":{"ha":-3,"x_min":0,"x_max":0,"o":"m 79 0 l 279 0 l 279 263 l 382 263 b 590 102 509 263 591 199 b 448 -68 589 26 532 -41 l 530 -203 b 780 102 682 -149 780 -29 b 531 391 780 246 686 351 l 777 736 l 540 736 l 338 449 l 279 449 l 279 736 l 79 736 z "},"ӆ":{"ha":0,"x_min":0,"x_max":0,"o":"l 96 0 l 96 138 l -64 138 l -64 763 l -622 763 l -634 437 b -741 186 -642 248 -670 186 l -766 186 "},"ӈ":{"ha":-45,"x_min":0,"x_max":0,"o":"m 716 -31 l 716 736 l 526 736 l 526 449 l 270 449 l 270 736 l 269 736 l 269 705 b 180 608 269 639 233 607 b 111 614 158 607 136 608 l 102 458 b 202 449 137 451 165 449 b 460 705 361 449 460 535 z "},"ӊ":{"ha":0,"x_min":0,"x_max":0,"o":"l 78 0 l 78 135 l 33 -123 l 178 -123 l 293 245 l 133 245 l 133 871 l -57 871 l -57 584 l -313 584 "},"ӌ":{"ha":-47,"x_min":0,"x_max":0,"o":"m -387 -239 l -191 -239 l -191 138 l -387 138 z "},"ӎ":{"ha":0,"x_min":0,"x_max":0,"o":"l 0 317 l 135 317 l -26 317 l -26 942 l -267 942 "},"ӑ":{"ha":-62,"x_min":0,"x_max":0,"o":"m 632 993 l 492 993 z "},"ӓ":{"ha":0,"x_min":0,"x_max":0,"o":""},"ӕ":{"ha":0,"x_min":0,"x_max":0,"o":""},"ӗ":{"ha":0,"x_min":0,"x_max":0,"o":""},"ә":{"ha":0,"x_min":0,"x_max":0,"o":""},"ӛ":{"ha":0,"x_min":0,"x_max":0,"o":""},"ӝ":{"ha":0,"x_min":0,"x_max":0,"o":""},"ӟ":{"ha":0,"x_min":0,"x_max":0,"o":""},"ӡ":{"ha":0,"x_min":0,"x_max":0,"o":""},"ӣ":{"ha":0,"x_min":0,"x_max":0,"o":""},"ӥ":{"ha":0,"x_min":0,"x_max":0,"o":""},"ӧ":{"ha":0,"x_min":0,"x_max":0,"o":""},"ө":{"ha":-17,"x_min":0,"x_max":0,"o":""},"ӫ":{"ha":0,"x_min":0,"x_max":0,"o":""},"ӭ":{"ha":0,"x_min":0,"x_max":0,"o":""},"ӯ":{"ha":0,"x_min":0,"x_max":0,"o":""},"ӱ":{"ha":0,"x_min":0,"x_max":0,"o":""},"ӳ":{"ha":0,"x_min":0,"x_max":0,"o":""},"ӵ":{"ha":0,"x_min":0,"x_max":0,"o":""},"ӹ":{"ha":257,"x_min":0,"x_max":0,"o":"m 220 -935 z "},"ӻ":{"ha":0,"x_min":0,"x_max":0,"o":"l 0 -216 l 1 -216 l 1 139 l 141 139 l 141 258 l 1 258 l 1 380 l 308 380 "},"ӽ":{"ha":-98,"x_min":0,"x_max":0,"o":"m 30 0 l 239 0 l 372 224 l 456 88 b 505 -35 492 28 507 -3 b 414 -130 506 -100 465 -131 b 355 -121 396 -131 370 -126 l 346 -278 b 442 -288 380 -286 408 -288 b 697 -72 605 -288 690 -187 b 606 183 705 31 644 118 l 496 369 l 707 736 l 500 736 l 372 509 l 245 736 l 38 736 l 245 369 z "},"ӿ":{"ha":-71,"x_min":0,"x_max":0,"o":"m 245 736 l 38 736 l 214 431 l 144 431 l 144 312 l 216 312 l 30 0 l -157 312 l -85 312 l -85 431 l -155 431 l 24 736 l -183 736 l -323 477 z "},"ҁ":{"ha":-71,"x_min":0,"x_max":0,"o":"m 532 145 l 403 145 b 260 347 290 145 261 245 l 260 372 b 397 587 261 486 291 588 b 515 446 476 588 516 532 l 704 446 b 401 746 704 639 581 746 b 64 372 180 746 63 587 l 64 347 b 332 -8 63 167 155 22 l 332 -239 l 532 -239 z "},"ҍ":{"ha":5,"x_min":0,"x_max":0,"o":"m 506 962 l 328 962 l 328 1070 l 136 1070 l 136 962 l 28 962 l 28 838 l 136 838 l 136 0 l 483 0 b 791 254 677 0 791 102 b 483 509 791 408 677 509 l 328 509 l 328 838 l 506 838 "},"ҏ":{"ha":-18,"x_min":0,"x_max":0,"o":"m 477 311 l 408 254 l 488 157 b 435 148 473 151 455 148 b 279 369 336 149 279 236 b 363 557 279 501 279 557 b 402 493 464 557 402 545 b NaN NaN 402 469 363 NaN z m NaN NaN l NaN NaN l NaN NaN l NaN NaN b NaN NaN NaN NaN NaN NaN b NaN NaN NaN NaN NaN NaN l NaN NaN l NaN NaN l NaN NaN b NaN NaN NaN NaN NaN NaN l NaN NaN z "},"ԯ":{"ha":0,"x_min":0,"x_max":0,"o":"l 130 0 l 130 -275 l 325 -275 l 325 102 l 130 102 l 130 736 l -428 736 l -440 411 b -547 160 -448 222 -476 159 l -572 160 "},"Α":{"ha":161,"x_min":0,"x_max":0,"o":""},"Β":{"ha":48,"x_min":0,"x_max":0,"o":""},"Γ":{"ha":0,"x_min":0,"x_max":0,"o":""},"Δ":{"ha":161,"x_min":0,"x_max":0,"o":"m 27 0 z m -41 -814 l 901 -618 l 1493 NaN l 1500 NaN l 1694 NaN z "},"∆":{"ha":161,"x_min":0,"x_max":0,"o":"m 27 0 z m -41 -814 l 901 -618 l 1493 NaN l 1500 NaN l 1694 NaN z "},"Ε":{"ha":-18,"x_min":0,"x_max":0,"o":""},"Ζ":{"ha":54,"x_min":0,"x_max":0,"o":""},"Η":{"ha":163,"x_min":0,"x_max":0,"o":""},"Θ":{"ha":210,"x_min":0,"x_max":0,"o":"m 693 557 l 353 557 l 353 425 l 693 425 z m 64 491 b NaN NaN 64 229 NaN NaN z m NaN NaN z "},"Ι":{"ha":-467,"x_min":0,"x_max":0,"o":""},"Κ":{"ha":85,"x_min":0,"x_max":0,"o":""},"Λ":{"ha":161,"x_min":0,"x_max":0,"o":"m 247 0 l 495 761 l 502 761 l 750 0 l 968 -340 l -14 NaN z "},"Μ":{"ha":390,"x_min":0,"x_max":0,"o":""},"Ν":{"ha":149,"x_min":0,"x_max":0,"o":""},"Ξ":{"ha":31,"x_min":0,"x_max":0,"o":"m 99 0 l 768 0 l 768 164 l 99 164 z m 117 815 l 739 815 l 739 982 l 117 982 z m 180 418 l 690 418 l 690 575 l 180 575 z "},"Ο":{"ha":210,"x_min":0,"x_max":0,"o":""},"Π":{"ha":0,"x_min":0,"x_max":0,"o":""},"Ρ":{"ha":0,"x_min":0,"x_max":0,"o":""},"Σ":{"ha":60,"x_min":0,"x_max":0,"o":"m 799 170 l 383 170 l 613 484 l 613 494 l 383 808 l 784 808 l 784 978 l 98 978 l 98 876 l 395 488 l 98 100 l 98 0 l 799 0 z "},"Τ":{"ha":56,"x_min":0,"x_max":0,"o":""},"Υ":{"ha":130,"x_min":0,"x_max":0,"o":""},"Φ":{"ha":295,"x_min":0,"x_max":0,"o":"m 666 982 l 471 982 l 471 861 b 76 484 238 854 75 708 b 471 121 75 267 238 127 l 471 0 l 666 0 l 666 121 b 1057 486 897 129 1057 270 b 666 861 1056 709 897 853 z m 270 484 b 471 684 270 611 355 678 l 471 299 b 270 484 355 305 270 366 z m 666 299 l 666 684 b 864 486 781 677 864 612 b 666 299 863 369 781 306 z "},"Χ":{"ha":0,"x_min":0,"x_max":0,"o":""},"Ψ":{"ha":0,"x_min":0,"x_max":0,"o":""},"Ω":{"ha":205,"x_min":0,"x_max":0,"o":""},"Ω":{"ha":205,"x_min":0,"x_max":0,"o":""},"Ά":{"ha":161,"x_min":0,"x_max":0,"o":""},"Έ":{"ha":210,"x_min":0,"x_max":0,"o":"m 311 0 l 971 0 l 971 168 "},"Ή":{"ha":406,"x_min":0,"x_max":0,"o":"m 326 0 "},"Ί":{"ha":-328,"x_min":0,"x_max":0,"o":"m 426 982 "},"Ό":{"ha":241,"x_min":0,"x_max":0,"o":"m 1044 491 "},"Ύ":{"ha":452,"x_min":0,"x_max":0,"o":"m 290 982 l 648 350 l 1006 982 l 777 982 l 552 559 l 543 559 l 316 982 "},"Ώ":{"ha":260,"x_min":0,"x_max":0,"o":"m 114 0 "},"Ϊ":{"ha":0,"x_min":0,"x_max":0,"o":""},"Ϋ":{"ha":0,"x_min":0,"x_max":0,"o":""},"Ͱ":{"ha":62,"x_min":0,"x_max":0,"o":"m 779 574 l 328 574 l 328 982 l 121 982 l 121 0 l 328 0 l 328 410 l 779 410 z "},"Ͳ":{"ha":60,"x_min":0,"x_max":0,"o":"m 856 594 l 856 982 l 52 982 l 52 594 l 220 594 l 220 814 l 353 814 l 353 0 l 555 0 l 555 814 l 689 814 l 689 594 z "},"Ͷ":{"ha":200,"x_min":0,"x_max":0,"o":"m 107 982 l 107 0 l 283 0 l 716 624 l 723 624 l 723 0 l 926 0 l 926 982 l 747 982 l 319 358 l 311 358 l 311 982 z "},"Ϙ":{"ha":181,"x_min":0,"x_max":0,"o":"m 954 490 b 510 996 953 810 762 996 b 64 490 256 996 64 810 b 408 -3 64 214 206 40 l 408 -274 l 612 -274 l 612 -3 b 954 490 811 41 953 214 z m 269 490 b 510 814 269 715 371 814 b 749 490 648 814 748 717 b 510 168 748 262 648 169 b 269 490 372 169 269 262 z "},"Ϛ":{"ha":185,"x_min":0,"x_max":0,"o":"m 564 -102 l 566 -259 b 879 -27 759 -257 880 -168 b 731 161 880 66 829 130 l 500 235 b 317 509 376 275 317 361 l 317 567 b 529 826 317 739 387 827 b 709 655 643 827 700 774 l 914 655 b 524 996 895 865 745 996 b 107 566 276 996 107 821 l 107 509 b 414 71 107 274 213 130 l 609 12 b 670 -43 654 -1 670 -17 b 564 -102 670 -83 633 -102 z "},"Ϝ":{"ha":63,"x_min":0,"x_max":0,"o":"m 720 553 l 703 553 l 703 575 l 316 575 l 316 814 l 770 814 l 770 982 l 111 982 l 111 0 l 316 0 l 316 407 l 553 407 l 553 247 l 720 247 z "},"Ϟ":{"ha":151,"x_min":0,"x_max":0,"o":"m 161 130 l 659 488 l 642 256 b 639 159 637 221 636 187 b 871 -14 646 50 726 -14 b 935 -8 888 -14 916 -12 l 947 136 b 918 134 938 134 926 134 b 806 205 853 134 815 159 b 806 282 802 220 802 247 l 854 825 l 834 850 l 330 479 l 349 735 b 349 821 351 767 351 795 b 121 996 336 940 265 996 b 54 991 104 996 73 995 l 43 845 b 77 848 52 847 60 848 b 184 772 149 848 179 826 b 184 723 186 757 186 741 l 137 155 z "},"Ϡ":{"ha":286,"x_min":0,"x_max":0,"o":"m 96 566 l 290 566 b 532 827 300 717 381 827 b 750 701 628 827 702 783 l 247 416 l 327 278 l 805 548 b 819 380 814 498 819 441 l 819 378 l 389 137 l 471 -1 l 812 193 b 544 -94 789 12 705 -94 l 544 -288 b 1027 308 855 -288 1027 -60 l 1027 378 b 543 996 1027 758 853 996 b 96 566 245 996 115 785 z "},"Ϗ":{"ha":158,"x_min":0,"x_max":0,"o":"m 300 982 l 94 982 l 94 0 l 300 0 l 300 273 l 406 383 l 652 5 l 506 -119 l 616 -241 l 901 0 l 543 534 l 909 982 l 654 982 l 388 650 l 300 529 z "},"ϒ":{"ha":108,"x_min":0,"x_max":0,"o":""},"ϓ":{"ha":309,"x_min":0,"x_max":0,"o":"m 575 0 l 773 0 l 773 323 l 974 779 b 1040 823 985 805 1007 824 b 1081 821 1053 824 1076 822 l 1105 978 b 1006 996 1076 987 1040 996 b 800 827 907 996 844 941 l 675 514 l 552 833 b 345 996 505 958 435 996 b 245 978 306 996 273 987 l 269 821 b 309 823 273 822 297 824 b 376 779 342 824 363 808 l 575 321 "},"ϔ":{"ha":0,"x_min":0,"x_max":0,"o":""},"ϴ":{"ha":0,"x_min":0,"x_max":0,"o":""},"Ϸ":{"ha":0,"x_min":0,"x_max":0,"o":""},"Ϲ":{"ha":169,"x_min":0,"x_max":0,"o":""},"Ϻ":{"ha":390,"x_min":0,"x_max":0,"o":""},"Ͻ":{"ha":157,"x_min":0,"x_max":0,"o":"m 300 328 l 92 328 b 483 -14 111 123 258 -14 b 901 452 743 -14 900 163 l 901 532 b 490 996 900 817 751 996 b 94 659 267 996 109 870 l 300 659 b 484 826 311 785 380 827 b 690 532 645 827 691 726 l 690 449 b 480 153 691 256 635 153 b 300 328 368 153 310 208 z "},"Ͼ":{"ha":0,"x_min":0,"x_max":0,"o":""},"Ͽ":{"ha":0,"x_min":0,"x_max":0,"o":""},"Ἀ":{"ha":161,"x_min":0,"x_max":0,"o":""},"Ἁ":{"ha":161,"x_min":0,"x_max":0,"o":""},"Ἂ":{"ha":161,"x_min":0,"x_max":0,"o":""},"Ἃ":{"ha":161,"x_min":0,"x_max":0,"o":""},"Ἄ":{"ha":161,"x_min":0,"x_max":0,"o":""},"Ἅ":{"ha":161,"x_min":0,"x_max":0,"o":""},"Ἆ":{"ha":161,"x_min":0,"x_max":0,"o":""},"Ἇ":{"ha":161,"x_min":0,"x_max":0,"o":""},"Ὰ":{"ha":161,"x_min":0,"x_max":0,"o":""},"Ά":{"ha":161,"x_min":0,"x_max":0,"o":""},"Ᾰ":{"ha":161,"x_min":0,"x_max":0,"o":""},"Ᾱ":{"ha":161,"x_min":0,"x_max":0,"o":""},"ᾼ":{"ha":0,"x_min":0,"x_max":0,"o":""},"ᾈ":{"ha":0,"x_min":0,"x_max":0,"o":""},"ᾉ":{"ha":0,"x_min":0,"x_max":0,"o":""},"ᾊ":{"ha":0,"x_min":0,"x_max":0,"o":""},"ᾋ":{"ha":0,"x_min":0,"x_max":0,"o":""},"ᾌ":{"ha":0,"x_min":0,"x_max":0,"o":""},"ᾍ":{"ha":0,"x_min":0,"x_max":0,"o":""},"ᾎ":{"ha":0,"x_min":0,"x_max":0,"o":""},"ᾏ":{"ha":0,"x_min":0,"x_max":0,"o":""},"Ἐ":{"ha":177,"x_min":0,"x_max":0,"o":"m 278 0 l 939 0 l 939 168 "},"Ἑ":{"ha":178,"x_min":0,"x_max":0,"o":"m 279 0 l 940 0 l 940 168 z "},"Ἒ":{"ha":437,"x_min":0,"x_max":0,"o":"m 538 0 l 1199 0 l 1199 168 z "},"Ἓ":{"ha":397,"x_min":0,"x_max":0,"o":"m 498 0 l 1158 0 l 1158 168 "},"Ἔ":{"ha":409,"x_min":0,"x_max":0,"o":"m 510 0 l 1171 0 l 1171 168 "},"Ἕ":{"ha":428,"x_min":0,"x_max":0,"o":"m 529 0 l 1190 0 l 1190 168 "},"Ὲ":{"ha":231,"x_min":0,"x_max":0,"o":"m 332 0 z "},"Έ":{"ha":216,"x_min":0,"x_max":0,"o":"m 317 0 l 978 0 l 978 168 "},"Ἠ":{"ha":0,"x_min":0,"x_max":0,"o":""},"Ἡ":{"ha":375,"x_min":0,"x_max":0,"o":""},"Ἢ":{"ha":634,"x_min":0,"x_max":0,"o":""},"Ἣ":{"ha":0,"x_min":0,"x_max":0,"o":""},"Ἤ":{"ha":0,"x_min":0,"x_max":0,"o":""},"Ἥ":{"ha":0,"x_min":0,"x_max":0,"o":""},"Ἦ":{"ha":0,"x_min":0,"x_max":0,"o":""},"Ἧ":{"ha":532,"x_min":0,"x_max":0,"o":""},"Ὴ":{"ha":428,"x_min":0,"x_max":0,"o":"m 347 0 z "},"Ή":{"ha":0,"x_min":0,"x_max":0,"o":""},"ῌ":{"ha":0,"x_min":0,"x_max":0,"o":""},"ᾘ":{"ha":360,"x_min":0,"x_max":0,"o":"m 281 0 "},"ᾙ":{"ha":0,"x_min":0,"x_max":0,"o":""},"ᾚ":{"ha":0,"x_min":0,"x_max":0,"o":""},"ᾛ":{"ha":0,"x_min":0,"x_max":0,"o":""},"ᾜ":{"ha":0,"x_min":0,"x_max":0,"o":""},"ᾝ":{"ha":0,"x_min":0,"x_max":0,"o":""},"ᾞ":{"ha":0,"x_min":0,"x_max":0,"o":""},"ᾟ":{"ha":0,"x_min":0,"x_max":0,"o":""},"Ἰ":{"ha":-264,"x_min":0,"x_max":0,"o":"m 492 982 "},"Ἱ":{"ha":-281,"x_min":0,"x_max":0,"o":"m 475 982 z "},"Ἲ":{"ha":-22,"x_min":0,"x_max":0,"o":"m 734 982 z "},"Ἳ":{"ha":-63,"x_min":0,"x_max":0,"o":"m 693 982 "},"Ἴ":{"ha":-50,"x_min":0,"x_max":0,"o":"m 707 982 "},"Ἵ":{"ha":-31,"x_min":0,"x_max":0,"o":"m 726 982 "},"Ἶ":{"ha":-142,"x_min":0,"x_max":0,"o":"m 614 982 "},"Ἷ":{"ha":-124,"x_min":0,"x_max":0,"o":"m 632 982 z "},"Ὶ":{"ha":-227,"x_min":0,"x_max":0,"o":"m 528 982 z "},"Ί":{"ha":-243,"x_min":0,"x_max":0,"o":"m 513 982 "},"Ῐ":{"ha":0,"x_min":0,"x_max":0,"o":""},"Ῑ":{"ha":0,"x_min":0,"x_max":0,"o":""},"Ὀ":{"ha":260,"x_min":0,"x_max":0,"o":"m 1063 491 "},"Ὁ":{"ha":304,"x_min":0,"x_max":0,"o":"m 1108 491 "},"Ὂ":{"ha":0,"x_min":0,"x_max":0,"o":""},"Ὃ":{"ha":0,"x_min":0,"x_max":0,"o":""},"Ὄ":{"ha":0,"x_min":0,"x_max":0,"o":""},"Ὅ":{"ha":0,"x_min":0,"x_max":0,"o":""},"Ὸ":{"ha":296,"x_min":0,"x_max":0,"o":"m 1100 491 "},"Ό":{"ha":211,"x_min":0,"x_max":0,"o":"m 1015 491 "},"Ῥ":{"ha":237,"x_min":0,"x_max":0,"o":"m 275 0 z "},"Ὑ":{"ha":382,"x_min":0,"x_max":0,"o":"m 220 982 l 578 350 l 936 982 l 707 982 l 481 559 l 472 559 l 245 982 z "},"Ὓ":{"ha":592,"x_min":0,"x_max":0,"o":"m 431 982 l 789 350 l 1147 982 l 918 982 l 693 559 l 684 559 l 457 982 "},"Ὕ":{"ha":671,"x_min":0,"x_max":0,"o":"m 509 982 l 867 350 l 1225 982 l 996 982 l 770 559 l 761 559 l 534 982 "},"Ὗ":{"ha":578,"x_min":0,"x_max":0,"o":"m 416 982 l 774 350 l 1133 982 l 903 982 l 678 559 l 669 559 l 442 982 z "},"Ὺ":{"ha":409,"x_min":0,"x_max":0,"o":"m 247 982 l 605 350 l 963 982 l 734 982 l 509 559 l 499 559 l 273 982 z "},"Ύ":{"ha":399,"x_min":0,"x_max":0,"o":"m 237 982 l 595 350 l 954 982 l 724 982 l 499 559 l 490 559 l 263 982 "},"Ῠ":{"ha":0,"x_min":0,"x_max":0,"o":""},"Ῡ":{"ha":0,"x_min":0,"x_max":0,"o":""},"Ὠ":{"ha":0,"x_min":0,"x_max":0,"o":""},"Ὡ":{"ha":326,"x_min":0,"x_max":0,"o":""},"Ὢ":{"ha":532,"x_min":0,"x_max":0,"o":""},"Ὣ":{"ha":0,"x_min":0,"x_max":0,"o":""},"Ὤ":{"ha":0,"x_min":0,"x_max":0,"o":""},"Ὥ":{"ha":0,"x_min":0,"x_max":0,"o":""},"Ὦ":{"ha":0,"x_min":0,"x_max":0,"o":""},"Ὧ":{"ha":431,"x_min":0,"x_max":0,"o":""},"Ὼ":{"ha":328,"x_min":0,"x_max":0,"o":""},"Ώ":{"ha":267,"x_min":0,"x_max":0,"o":"m 119 0 "},"ῼ":{"ha":0,"x_min":0,"x_max":0,"o":""},"ᾨ":{"ha":0,"x_min":0,"x_max":0,"o":""},"ᾩ":{"ha":0,"x_min":0,"x_max":0,"o":""},"ᾪ":{"ha":0,"x_min":0,"x_max":0,"o":""},"ᾫ":{"ha":0,"x_min":0,"x_max":0,"o":""},"ᾬ":{"ha":0,"x_min":0,"x_max":0,"o":""},"ᾭ":{"ha":0,"x_min":0,"x_max":0,"o":""},"ᾮ":{"ha":0,"x_min":0,"x_max":0,"o":""},"ᾯ":{"ha":0,"x_min":0,"x_max":0,"o":""},"Ϳ":{"ha":0,"x_min":0,"x_max":0,"o":""},"α":{"ha":35,"x_min":0,"x_max":0,"o":""},"β":{"ha":-22,"x_min":0,"x_max":0,"o":"m 407 996 b 79 696 224 996 79 879 l 79 -277 l 273 -277 l 273 52 l 279 54 b 465 -9 334 7 399 -10 b 768 281 635 -10 768 110 b 632 524 768 382 721 473 b 726 732 693 578 726 657 b 407 996 726 892 578 996 z m 273 307 l 273 684 b 407 821 273 771 330 821 b 532 701 483 821 532 771 b 404 579 532 646 500 578 l 359 579 l 359 433 l 425 433 b 575 297 507 432 575 381 b 425 159 575 220 516 159 b 273 307 329 159 273 226 z "},"γ":{"ha":0,"x_min":0,"x_max":0,"o":""},"δ":{"ha":31,"x_min":0,"x_max":0,"o":"m 168 825 b 296 647 168 749 212 690 l 297 643 b 85 349 177 613 85 492 l 85 336 b 435 -14 85 132 220 -14 b 783 347 646 -14 782 136 l 783 359 b 463 741 782 543 680 667 b 358 822 380 769 357 797 b 463 876 357 857 391 876 b 625 846 524 876 587 862 l 625 997 b 448 1027 562 1017 510 1027 b 168 825 275 1027 168 947 z m 282 358 l 282 369 b 435 575 282 485 336 574 b 585 369 523 557 585 464 l 585 358 b 435 145 585 234 533 145 b 282 358 335 145 282 235 z "},"ε":{"ha":0,"x_min":0,"x_max":0,"o":""},"ζ":{"ha":-101,"x_min":0,"x_max":0,"o":"m 677 982 l 47 982 l 47 815 l 418 815 l 281 648 b 98 252 163 506 98 420 b 334 4 98 130 181 42 l 382 -8 b 458 -72 432 -22 460 -45 b 397 -182 457 -101 438 -140 l 498 -258 b 656 -33 600 -189 657 -109 b 458 142 657 44 587 107 l 406 159 b 290 282 331 180 290 224 b 431 567 290 380 340 453 l 677 871 z "},"η":{"ha":-6,"x_min":0,"x_max":0,"o":""},"θ":{"ha":33,"x_min":0,"x_max":0,"o":"m 769 406 l 769 572 b 434 991 769 858 632 991 b 99 572 235 991 99 857 l 99 406 b 437 -14 99 119 236 -14 b 769 406 634 -14 769 119 z m 294 381 l 294 414 l 574 414 l 574 381 b 437 149 574 212 520 149 b 294 381 345 149 294 220 z m 294 566 l 294 602 b 434 830 294 758 343 829 b 574 602 519 829 574 765 l 574 566 z "},"ɩ":{"ha":-414,"x_min":0,"x_max":0,"o":""},"ι":{"ha":-414,"x_min":0,"x_max":0,"o":""},"κ":{"ha":0,"x_min":0,"x_max":0,"o":""},"λ":{"ha":-26,"x_min":0,"x_max":0,"o":"m 701 -12 b 781 -1 728 -12 762 -7 l 762 146 b 742 145 757 146 748 144 b 674 221 707 144 694 167 l 448 817 b 193 996 404 932 314 996 b 84 977 151 996 117 989 l 130 821 b 278 749 216 845 244 831 l 295 705 l 30 0 l 236 0 l 388 444 l 397 444 l 511 121 b 701 -12 545 33 612 -12 z "},"μ":{"ha":54,"x_min":0,"x_max":0,"o":""},"ν":{"ha":10,"x_min":0,"x_max":0,"o":"m 307 0 l 498 0 b 779 736 676 217 774 477 l 583 736 b 426 197 574 522 545 391 l 418 197 l 237 736 l 30 736 z "},"ξ":{"ha":-71,"x_min":0,"x_max":0,"o":"m 627 807 l 656 962 b 461 996 595 984 530 996 b 129 745 258 996 128 899 b 269 555 128 652 176 589 b 69 292 138 513 70 425 b 307 30 70 152 139 76 l 425 -9 b 498 -76 475 -23 498 -45 b 435 -184 498 -102 479 -141 l 537 -260 b 696 -23 627 -197 694 -104 b 510 137 696 54 642 109 l 431 155 b 270 313 318 180 270 231 b 486 473 270 418 346 473 l 582 473 l 582 639 l 480 639 b 327 738 380 639 327 671 b 472 833 327 800 378 832 b 627 807 519 832 564 825 z "},"ο":{"ha":-17,"x_min":0,"x_max":0,"o":""},"π":{"ha":154,"x_min":0,"x_max":0,"o":"m 897 736 l 79 736 l 79 587 l 197 587 l 197 0 l 392 0 l 392 587 l 583 587 l 583 205 b 792 -8 584 53 665 -9 b 913 9 840 -9 880 0 l 913 159 b 856 155 899 157 878 155 b 777 229 804 155 778 170 l 777 587 l 897 587 z "},"ρ":{"ha":-47,"x_min":0,"x_max":0,"o":""},"ς":{"ha":-71,"x_min":0,"x_max":0,"o":"m 403 746 b 62 366 191 746 62 600 l 62 347 b 370 3 62 163 155 60 b 442 -61 424 -9 442 -28 b 378 -171 442 -94 420 -128 l 483 -247 b 637 -9 569 -183 637 -102 b 431 153 637 60 600 108 b 258 347 304 188 257 240 l 258 366 b 403 587 257 507 309 588 b 517 446 476 588 517 541 l 704 446 b 403 746 704 633 589 746 z "},"σ":{"ha":58,"x_min":0,"x_max":0,"o":"m 80 365 l 80 349 b 427 -14 80 143 205 -14 b 762 323 642 -14 763 134 l 762 336 b 648 555 763 425 713 503 l 815 555 l 815 713 l 426 713 b 80 365 203 713 80 563 z m 279 349 l 279 365 b 426 555 279 467 319 555 l 428 555 b 563 365 529 554 563 467 l 563 349 b 427 145 563 237 528 145 b 279 349 317 145 279 237 z "},"τ":{"ha":-94,"x_min":0,"x_max":0,"o":"m 704 736 l 39 736 l 39 579 l 266 579 l 266 222 b 484 -14 266 63 347 -14 b 612 8 536 -14 571 -9 l 591 157 b 525 146 570 152 554 147 b 461 221 486 147 460 163 l 461 579 l 704 579 z "},"υ":{"ha":-50,"x_min":0,"x_max":0,"o":""},"φ":{"ha":287,"x_min":0,"x_max":0,"o":"m 464 548 l 464 155 b 278 399 321 184 278 280 b 370 644 279 503 312 583 l 235 746 b 83 399 149 680 83 557 b 464 -7 83 203 180 26 l 464 -277 l 651 -277 l 651 -9 b 1040 376 940 18 1040 189 b 692 746 1040 597 896 746 b 464 548 551 746 463 675 z m 651 151 l 651 521 b 705 590 650 562 669 589 b 848 376 791 589 846 499 b 651 151 847 261 793 175 z "},"χ":{"ha":-12,"x_min":0,"x_max":0,"o":"m 46 -277 l 248 -277 l 422 49 l 515 -130 b 770 -277 578 -248 633 -276 l 814 -277 l 814 -121 l 770 -121 b 677 -57 716 -121 708 -117 l 524 230 l 800 736 l 600 736 l 423 415 l 331 591 b 76 741 267 709 213 740 l 33 741 l 33 585 l 76 585 b 170 517 131 585 135 582 l 323 234 z "},"ψ":{"ha":0,"x_min":0,"x_max":0,"o":""},"ω":{"ha":410,"x_min":0,"x_max":0,"o":""},"ί":{"ha":0,"x_min":0,"x_max":0,"o":""},"ϊ":{"ha":0,"x_min":0,"x_max":0,"o":""},"ΐ":{"ha":0,"x_min":0,"x_max":0,"o":""},"ύ":{"ha":0,"x_min":0,"x_max":0,"o":""},"ϋ":{"ha":0,"x_min":0,"x_max":0,"o":""},"ΰ":{"ha":0,"x_min":0,"x_max":0,"o":""},"ό":{"ha":0,"x_min":0,"x_max":0,"o":""},"ώ":{"ha":0,"x_min":0,"x_max":0,"o":""},"ά":{"ha":0,"x_min":0,"x_max":0,"o":""},"έ":{"ha":0,"x_min":0,"x_max":0,"o":""},"ή":{"ha":0,"x_min":0,"x_max":0,"o":""},"ͱ":{"ha":-73,"x_min":0,"x_max":0,"o":"m 411 0 l 411 271 l 716 271 l 716 430 l 411 430 l 411 518 b 155 746 411 708 277 746 b 49 738 113 746 77 743 l 49 605 b 100 609 66 607 82 609 b 212 518 153 609 211 590 l 212 0 z "},"ͳ":{"ha":25,"x_min":0,"x_max":0,"o":"m 796 982 l 65 982 l 65 628 l 225 628 l 225 823 l 334 823 l 334 0 l 530 0 l 530 823 l 636 823 l 636 628 l 796 628 z "},"ͷ":{"ha":58,"x_min":0,"x_max":0,"o":"m 286 0 l 528 457 l 528 236 b 722 -14 528 66 602 -14 b 807 1 751 -14 777 -12 l 788 151 b 776 148 786 149 782 148 b 727 236 743 148 728 172 l 727 736 l 528 736 l 286 281 l 286 736 l 87 736 l 87 0 z "},"ͻ":{"ha":0,"x_min":0,"x_max":0,"o":""},"ͼ":{"ha":-71,"x_min":0,"x_max":0,"o":"m 309 361 b 401 275 309 315 346 276 b 495 361 458 276 495 313 b 401 446 494 410 459 446 b 309 361 346 446 310 410 z m 60 357 b 400 -14 60 144 174 -14 b 705 259 568 -14 704 94 l 518 259 b 397 146 516 186 467 146 b 260 357 277 146 260 254 l 260 376 b 396 587 260 477 277 588 b 518 456 475 588 516 531 l 705 456 b 677 NaN 888 456 677 455 z "},"ͽ":{"ha":-71,"x_min":0,"x_max":0,"o":"m 247 248 l 60 248 b 366 -14 61 94 185 -14 b 705 357 591 -14 705 146 l 705 376 b 365 746 705 588 592 746 b 60 445 197 746 61 639 l 247 445 b 368 587 249 547 298 587 b 506 376 489 587 505 478 l 506 357 b 369 145 505 256 488 145 b 247 248 290 145 249 202 z m 270 351 b 363 266 271 302 307 266 b 456 351 419 266 455 302 b 363 435 456 398 419 436 b 270 351 307 436 271 399 z "},"ϙ":{"ha":-16,"x_min":0,"x_max":0,"o":"m 403 148 b 240 368 288 149 241 240 b 403 586 241 494 288 586 b 564 368 518 586 565 496 b 403 148 565 240 518 149 z m 49 368 b 301 -2 50 181 144 40 l 301 -275 l 499 -275 l 499 -3 b 757 368 661 37 757 179 b 403 746 757 591 621 746 b 49 368 185 746 50 591 z "},"ϛ":{"ha":-70,"x_min":0,"x_max":0,"o":"m 427 -110 l 427 -263 b 713 -57 582 -262 713 -217 b 579 122 713 48 657 97 l 430 165 b 252 366 326 195 252 241 l 252 404 b 389 587 252 505 278 588 b 511 446 467 588 508 531 l 697 446 b 392 746 696 639 572 746 b 53 400 164 746 53 592 l 53 363 b 308 34 53 148 170 77 l 464 -12 b 514 -60 497 -20 514 -36 b 427 -110 514 -94 481 -110 z "},"ϝ":{"ha":-68,"x_min":0,"x_max":0,"o":"m 681 736 l 88 736 l 88 -274 l 288 -274 l 288 233 l 463 233 l 463 106 l 623 106 l 623 392 l 288 392 l 288 579 l 681 579 z "},"ϟ":{"ha":29,"x_min":0,"x_max":0,"o":"m 780 559 l 326 559 l 510 983 l 300 983 l 87 515 l 87 401 l 549 401 l 373 0 l 585 0 l 780 453 z "},"ϡ":{"ha":180,"x_min":0,"x_max":0,"o":"m 236 1040 l 52 941 b 519 643 257 855 409 760 l 95 404 l 175 266 l 616 516 b 687 376 644 473 667 426 l 241 125 l 321 -14 l 735 220 b 781 -288 768 77 781 -90 l 966 -191 b 236 1040 966 439 812 807 z "},"ϗ":{"ha":182,"x_min":0,"x_max":0,"o":"m 307 0 l 640 441 b 675 262 647 365 661 309 b 781 -22 719 125 782 62 b 656 -114 782 -82 745 -113 b 625 -110 649 -113 636 -113 l 625 -255 b 712 -263 656 -260 687 -263 b 956 -43 902 -263 956 -132 b 822 343 956 103 879 176 b 779 624 799 412 784 503 l 864 736 b 937 524 864 691 969 524 b 886 494 891 524 886 519 l 886 350 b 937 355 903 353 922 355 b 1036 270 991 355 1036 337 l 1036 -165 l 977 -243 z "},"ϐ":{"ha":60,"x_min":0,"x_max":0,"o":"m 498 609 b 264 521 405 609 327 580 b 283 682 264 577 271 632 b 481 651 361 659 427 651 b 741 842 657 651 741 745 b 499 1027 741 947 656 1026 b 103 483 263 1026 103 825 l 103 442 b 458 -14 103 142 225 -14 b 795 304 670 -14 795 123 b 498 609 795 490 682 609 z m 302 304 b 450 449 302 403 365 449 b 597 304 547 449 597 402 b 449 145 597 206 549 145 b 302 304 351 145 302 206 z m 335 804 b 472 880 368 851 414 880 b 555 826 527 881 554 857 b 465 780 554 798 519 780 b 335 804 427 780 380 788 z "},"ϑ":{"ha":58,"x_min":0,"x_max":0,"o":"m 819 378 l 811 544 b 742 532 787 540 764 536 l 742 715 b 491 996 742 890 646 996 b 228 727 334 996 227 891 l 228 705 b 534 357 227 527 350 393 l 534 304 b 403 151 534 208 482 151 b 264 304 320 151 265 211 l 264 461 l 77 461 l 77 304 b 408 -14 77 119 211 -14 b 742 304 600 -14 742 111 l 742 359 b 819 378 765 364 791 371 z m 415 715 l 416 739 b 475 819 416 795 439 819 b 534 736 513 819 534 793 l 534 539 b 415 715 456 568 414 631 z "},"ϕ":{"ha":218,"x_min":0,"x_max":0,"o":"m 434 -277 l 620 -277 l 620 -10 b 990 369 856 12 991 157 b 620 744 991 576 855 721 l 620 997 l 434 997 l 434 744 b 64 369 200 721 64 576 b 434 -10 64 157 199 13 z m 259 369 b 434 613 259 496 325 591 l 434 120 b 259 369 325 142 259 240 z m 620 120 l 620 614 b 796 369 730 591 796 496 b 620 120 796 239 730 142 z "},"ϖ":{"ha":412,"x_min":0,"x_max":0,"o":"m 1191 736 l 57 736 l 57 600 l 150 600 b 107 366 123 526 108 448 b 399 -14 106 115 219 -14 b 624 126 507 -14 582 38 b 849 -14 667 38 741 -14 b 1141 366 1029 -14 1142 115 b 1098 600 1140 448 1125 526 l 1191 600 z m 300 366 b 345 600 300 440 314 515 l 903 600 b 947 366 935 515 947 440 b 834 146 947 230 907 146 b 728 327 771 146 728 210 l 728 469 l 519 469 l 519 327 b 414 146 519 210 477 146 b 300 366 341 146 300 230 z "},"ϰ":{"ha":184,"x_min":0,"x_max":0,"o":"m 165 0 l 320 0 l 631 412 l 631 221 b 842 -14 631 104 668 -14 b 947 -3 873 -14 921 -9 l 947 140 b 897 136 929 137 910 136 b 798 220 838 136 797 155 l 798 632 l 876 736 b 948 525 876 692 981 525 b 897 495 902 525 897 520 l 899 351 b 949 357 913 355 932 357 b 1046 271 1001 357 1046 338 l 1048 -161 z "},"ϱ":{"ha":60,"x_min":0,"x_max":0,"o":"m 570 -313 l 730 -313 b 469 -79 730 -174 659 -114 b 267 123 359 -57 293 3 b 486 39 329 67 400 39 b 795 373 685 39 795 182 l 795 393 b 449 746 795 602 671 746 b 103 359 228 746 104 590 l 103 343 l 103 341 l 103 323 b 434 -231 103 -20 228 -186 b 570 -313 532 -252 570 -266 z m 301 373 l 301 393 b 449 587 301 503 337 588 b 597 393 564 588 597 498 l 597 373 b 449 198 597 280 558 198 b 301 373 340 198 301 281 z "},"ϲ":{"ha":-54,"x_min":0,"x_max":0,"o":""},"ϳ":{"ha":0,"x_min":0,"x_max":0,"o":""},"ϵ":{"ha":-197,"x_min":0,"x_max":0,"o":"m 389 149 b 252 293 295 149 262 216 l 496 293 l 496 434 l 252 434 b 389 578 262 521 299 578 l 593 578 l 593 736 l 389 736 b 49 374 164 736 48 580 l 49 354 b 389 -9 48 146 163 -9 l 593 -9 l 593 149 z "},"ϸ":{"ha":0,"x_min":0,"x_max":0,"o":""},"ϻ":{"ha":182,"x_min":0,"x_max":0,"o":"m 507 232 l 319 736 l 73 736 l 73 -274 l 273 -274 l 273 438 l 442 0 l 575 0 l 747 446 l 747 0 l 948 0 l 948 736 l 697 736 z "},"ϼ":{"ha":-47,"x_min":0,"x_max":0,"o":"m 76 389 l 76 -47 l -65 -47 l -65 -167 l 76 -167 l 76 -274 l 271 -274 l 271 -167 l 411 -167 l 411 -47 l 271 -47 l 271 65 z "},"ἀ":{"ha":0,"x_min":0,"x_max":0,"o":""},"ἁ":{"ha":35,"x_min":0,"x_max":0,"o":""},"ἂ":{"ha":0,"x_min":0,"x_max":0,"o":""},"ἃ":{"ha":0,"x_min":0,"x_max":0,"o":""},"ἄ":{"ha":0,"x_min":0,"x_max":0,"o":""},"ἅ":{"ha":35,"x_min":0,"x_max":0,"o":""},"ἆ":{"ha":0,"x_min":0,"x_max":0,"o":""},"ἇ":{"ha":35,"x_min":0,"x_max":0,"o":""},"ὰ":{"ha":35,"x_min":0,"x_max":0,"o":"m 0 669 z "},"ά":{"ha":0,"x_min":0,"x_max":0,"o":""},"ᾶ":{"ha":35,"x_min":0,"x_max":0,"o":""},"ᾰ":{"ha":35,"x_min":0,"x_max":0,"o":""},"ᾱ":{"ha":35,"x_min":0,"x_max":0,"o":""},"ᾳ":{"ha":0,"x_min":0,"x_max":0,"o":""},"ᾲ":{"ha":35,"x_min":0,"x_max":0,"o":"m 0 669 "},"ᾴ":{"ha":0,"x_min":0,"x_max":0,"o":""},"ᾀ":{"ha":0,"x_min":0,"x_max":0,"o":""},"ᾁ":{"ha":0,"x_min":0,"x_max":0,"o":""},"ᾂ":{"ha":0,"x_min":0,"x_max":0,"o":""},"ᾃ":{"ha":0,"x_min":0,"x_max":0,"o":""},"ᾄ":{"ha":35,"x_min":0,"x_max":0,"o":""},"ᾅ":{"ha":35,"x_min":0,"x_max":0,"o":""},"ᾆ":{"ha":0,"x_min":0,"x_max":0,"o":""},"ᾇ":{"ha":35,"x_min":0,"x_max":0,"o":""},"ᾷ":{"ha":0,"x_min":0,"x_max":0,"o":""},"ἐ":{"ha":0,"x_min":0,"x_max":0,"o":""},"ἑ":{"ha":0,"x_min":0,"x_max":0,"o":""},"ἒ":{"ha":-75,"x_min":0,"x_max":0,"o":""},"ἓ":{"ha":0,"x_min":0,"x_max":0,"o":""},"ἔ":{"ha":-75,"x_min":0,"x_max":0,"o":""},"ἕ":{"ha":-75,"x_min":0,"x_max":0,"o":""},"ὲ":{"ha":0,"x_min":0,"x_max":0,"o":""},"έ":{"ha":0,"x_min":0,"x_max":0,"o":""},"ἠ":{"ha":0,"x_min":0,"x_max":0,"o":""},"ἡ":{"ha":-6,"x_min":0,"x_max":0,"o":""},"ἢ":{"ha":-6,"x_min":0,"x_max":0,"o":""},"ἣ":{"ha":0,"x_min":0,"x_max":0,"o":""},"ἤ":{"ha":0,"x_min":0,"x_max":0,"o":""},"ἥ":{"ha":0,"x_min":0,"x_max":0,"o":""},"ἦ":{"ha":0,"x_min":0,"x_max":0,"o":""},"ἧ":{"ha":-6,"x_min":0,"x_max":0,"o":""},"ὴ":{"ha":-6,"x_min":0,"x_max":0,"o":""},"ή":{"ha":0,"x_min":0,"x_max":0,"o":""},"ῆ":{"ha":0,"x_min":0,"x_max":0,"o":""},"ῃ":{"ha":-6,"x_min":0,"x_max":0,"o":""},"ῂ":{"ha":-6,"x_min":0,"x_max":0,"o":""},"ῄ":{"ha":0,"x_min":0,"x_max":0,"o":""},"ᾐ":{"ha":0,"x_min":0,"x_max":0,"o":""},"ᾑ":{"ha":-6,"x_min":0,"x_max":0,"o":""},"ᾒ":{"ha":-6,"x_min":0,"x_max":0,"o":"m 66 930 l 119 891 b 244 1074 199 932 245 998 l 244 1128 l 121 1128 l 121 1078 b 66 930 121 1017 102 971 "},"ᾓ":{"ha":0,"x_min":0,"x_max":0,"o":""},"ᾔ":{"ha":0,"x_min":0,"x_max":0,"o":""},"ᾕ":{"ha":0,"x_min":0,"x_max":0,"o":""},"ᾖ":{"ha":0,"x_min":0,"x_max":0,"o":""},"ᾗ":{"ha":-6,"x_min":0,"x_max":0,"o":""},"ῇ":{"ha":0,"x_min":0,"x_max":0,"o":""},"ἰ":{"ha":0,"x_min":0,"x_max":0,"o":""},"ἱ":{"ha":-414,"x_min":0,"x_max":0,"o":""},"ἲ":{"ha":-414,"x_min":0,"x_max":0,"o":""},"ἳ":{"ha":0,"x_min":0,"x_max":0,"o":""},"ἴ":{"ha":0,"x_min":0,"x_max":0,"o":""},"ἵ":{"ha":0,"x_min":0,"x_max":0,"o":""},"ἶ":{"ha":0,"x_min":0,"x_max":0,"o":""},"ἷ":{"ha":-414,"x_min":0,"x_max":0,"o":""},"ὶ":{"ha":-414,"x_min":0,"x_max":0,"o":""},"ί":{"ha":0,"x_min":0,"x_max":0,"o":""},"ῖ":{"ha":0,"x_min":0,"x_max":0,"o":""},"ῐ":{"ha":0,"x_min":0,"x_max":0,"o":""},"ῑ":{"ha":0,"x_min":0,"x_max":0,"o":""},"ῒ":{"ha":-414,"x_min":0,"x_max":0,"o":"m 110 208 l -247 433 l -144 307 l -38 307 l -103 433 "},"ΐ":{"ha":-414,"x_min":0,"x_max":0,"o":"m 194 81 l -160 81 l -160 307 l -54 307 l 47 433 l -95 433 "},"ῗ":{"ha":0,"x_min":0,"x_max":0,"o":""},"ὀ":{"ha":0,"x_min":0,"x_max":0,"o":""},"ὁ":{"ha":-17,"x_min":0,"x_max":0,"o":""},"ὂ":{"ha":0,"x_min":0,"x_max":0,"o":""},"ὃ":{"ha":0,"x_min":0,"x_max":0,"o":""},"ὄ":{"ha":-17,"x_min":0,"x_max":0,"o":""},"ὅ":{"ha":-17,"x_min":0,"x_max":0,"o":""},"ὸ":{"ha":-17,"x_min":0,"x_max":0,"o":""},"ό":{"ha":0,"x_min":0,"x_max":0,"o":""},"ῤ":{"ha":0,"x_min":0,"x_max":0,"o":""},"ῥ":{"ha":-47,"x_min":0,"x_max":0,"o":""},"ὐ":{"ha":0,"x_min":0,"x_max":0,"o":""},"ὑ":{"ha":-50,"x_min":0,"x_max":0,"o":""},"ὒ":{"ha":-50,"x_min":0,"x_max":0,"o":""},"ὓ":{"ha":0,"x_min":0,"x_max":0,"o":""},"ὔ":{"ha":0,"x_min":0,"x_max":0,"o":""},"ὕ":{"ha":0,"x_min":0,"x_max":0,"o":""},"ὖ":{"ha":0,"x_min":0,"x_max":0,"o":""},"ὗ":{"ha":-50,"x_min":0,"x_max":0,"o":""},"ὺ":{"ha":-50,"x_min":0,"x_max":0,"o":""},"ύ":{"ha":0,"x_min":0,"x_max":0,"o":""},"ῦ":{"ha":0,"x_min":0,"x_max":0,"o":""},"ῠ":{"ha":0,"x_min":0,"x_max":0,"o":""},"ῡ":{"ha":0,"x_min":0,"x_max":0,"o":""},"ῢ":{"ha":-50,"x_min":0,"x_max":0,"o":"m 110 208 l -45 433 l 58 307 l 164 307 l 99 433 "},"ΰ":{"ha":-50,"x_min":0,"x_max":0,"o":"m 194 81 l 43 81 l 43 307 l 149 307 l 251 433 l 109 433 "},"ῧ":{"ha":0,"x_min":0,"x_max":0,"o":""},"ὠ":{"ha":0,"x_min":0,"x_max":0,"o":""},"ὡ":{"ha":410,"x_min":0,"x_max":0,"o":""},"ὢ":{"ha":410,"x_min":0,"x_max":0,"o":""},"ὣ":{"ha":0,"x_min":0,"x_max":0,"o":""},"ὤ":{"ha":0,"x_min":0,"x_max":0,"o":""},"ὥ":{"ha":0,"x_min":0,"x_max":0,"o":""},"ὦ":{"ha":0,"x_min":0,"x_max":0,"o":""},"ὧ":{"ha":410,"x_min":0,"x_max":0,"o":""},"ὼ":{"ha":410,"x_min":0,"x_max":0,"o":""},"ώ":{"ha":0,"x_min":0,"x_max":0,"o":""},"ῶ":{"ha":0,"x_min":0,"x_max":0,"o":""},"ῳ":{"ha":0,"x_min":0,"x_max":0,"o":""},"ῲ":{"ha":0,"x_min":0,"x_max":0,"o":""},"ῴ":{"ha":0,"x_min":0,"x_max":0,"o":""},"ᾠ":{"ha":0,"x_min":0,"x_max":0,"o":""},"ᾡ":{"ha":0,"x_min":0,"x_max":0,"o":""},"ᾢ":{"ha":0,"x_min":0,"x_max":0,"o":""},"ᾣ":{"ha":0,"x_min":0,"x_max":0,"o":""},"ᾤ":{"ha":410,"x_min":0,"x_max":0,"o":""},"ᾥ":{"ha":410,"x_min":0,"x_max":0,"o":""},"ᾦ":{"ha":0,"x_min":0,"x_max":0,"o":""},"ᾧ":{"ha":410,"x_min":0,"x_max":0,"o":""},"ῷ":{"ha":0,"x_min":0,"x_max":0,"o":""},"ι":{"ha":0,"x_min":0,"x_max":0,"o":""},"ͺ":{"ha":0,"x_min":0,"x_max":0,"o":""},"가":{"ha":0,"x_min":0,"x_max":0,"o":"l 616 0 l 616 175 l 758 175 l 758 0 "},"각":{"ha":-997,"x_min":0,"x_max":0,"o":"l -718 0 l -718 174 l -433 174 l -433 340 l -289 340 l -289 174 m -123 -148 l -418 -148 l -418 510 l -747 510 l -747 684 l -279 684 l -279 -148 z "},"갂":{"ha":0,"x_min":0,"x_max":0,"o":""},"갃":{"ha":0,"x_min":0,"x_max":0,"o":""},"간":{"ha":0,"x_min":0,"x_max":0,"o":""},"갅":{"ha":1015,"x_min":0,"x_max":0,"o":"m 258 -290 l 324 -425 b 905 205 690 -338 904 -123 z "},"갆":{"ha":0,"x_min":0,"x_max":0,"o":""},"갇":{"ha":0,"x_min":0,"x_max":0,"o":""},"갈":{"ha":0,"x_min":0,"x_max":0,"o":""},"갉":{"ha":0,"x_min":0,"x_max":0,"o":"l 1016 0 l 1016 -174 l 369 -174 l 369 0 l 621 0 "},"갊":{"ha":0,"x_min":0,"x_max":0,"o":""},"갋":{"ha":0,"x_min":0,"x_max":0,"o":""},"갌":{"ha":0,"x_min":0,"x_max":0,"o":""},"갍":{"ha":0,"x_min":0,"x_max":0,"o":""},"갎":{"ha":0,"x_min":0,"x_max":0,"o":""},"갏":{"ha":0,"x_min":0,"x_max":0,"o":"l -606 0 l -606 174 l -384 174 "},"감":{"ha":0,"x_min":0,"x_max":0,"o":""},"갑":{"ha":0,"x_min":0,"x_max":0,"o":""},"값":{"ha":0,"x_min":0,"x_max":0,"o":""},"갓":{"ha":0,"x_min":0,"x_max":0,"o":"m 1183 791 l 1016 791 l 1016 1111 l 842 1111 l 842 294 l 1016 294 l 1016 650 l 1183 650 z m 26 483 l 98 343 l 471 448 l 682 684 b 1088 925 874 717 1014 805 b 1497 685 1164 805 1304 717 l 1566 822 b 1175 1146 1304 861 1176 1003 l 1175 1184 l 1003 1184 l 1003 1146 b 611 821 1003 1002 872 859 z "},"갔":{"ha":0,"x_min":0,"x_max":0,"o":"m 1016 1111 "},"강":{"ha":0,"x_min":0,"x_max":0,"o":"l -716 0 l -716 174 l -431 174 "},"갖":{"ha":0,"x_min":0,"x_max":0,"o":"m 1016 1111 "},"갗":{"ha":114,"x_min":0,"x_max":0,"o":"m 1183 848 l 1016 848 l 1016 1109 l 842 1109 l 842 437 l 1016 437 l 1016 707 l 1183 707 z m 31 571 l 94 434 b 678 1039 469 511 677 711 z "},"갘":{"ha":-697,"x_min":0,"x_max":0,"o":"m 141 -406 l 315 -123 l -682 -434 l -666 -568 l 0 -530 l 0 -680 l 174 -680 l 174 -193 l -658 -193 l -658 -330 l 0 -330 l 0 -408 z "},"같":{"ha":0,"x_min":0,"x_max":0,"o":"l -648 0 l -648 174 l -397 174 "},"갚":{"ha":0,"x_min":0,"x_max":0,"o":""},"갛":{"ha":0,"x_min":0,"x_max":0,"o":"l -642 0 l -642 174 l -391 174 l -391 340 l -250 340 l -250 174 "},"개":{"ha":0,"x_min":0,"x_max":0,"o":"l 1101 0 l 1101 -167 l 633 -167 l 633 -279 l 1069 -279 l 1069 -441 l -79 -441 l -79 -279 l 495 -279 l 495 -167 l -133 -167 l -133 0 m -1213 373 l -1112 254 b -661 1082 -764 456 -661 738 l -1150 1082 l -1150 944 l -829 944 b -1213 373 -852 702 -961 521 z "},"객":{"ha":-283,"x_min":0,"x_max":0,"o":""},"갞":{"ha":0,"x_min":0,"x_max":0,"o":"l 277 0 l 277 111 l -7 111 l -7 275 l 699 275 l 699 111 l 415 111 l 415 0 l 677 0 l 677 -163 m 701 -1040 l 943 -1040 l 943 -1374 l 1115 -1374 l 1115 -905 l 701 -905 z "},"갟":{"ha":0,"x_min":0,"x_max":0,"o":""},"갠":{"ha":0,"x_min":0,"x_max":0,"o":"l -350 0 l -350 -111 l -22 -111 l -22 -274 l -884 -274 l -884 -111 l -490 -111 l -490 0 l -921 0 l -921 164 m -1991 434 l -1908 309 b -1447 968 -1587 441 -1447 658 l -1931 968 l -1931 831 l -1625 831 b -1991 434 -1649 656 -1761 528 z m -1763 -123 "},"갡":{"ha":0,"x_min":0,"x_max":0,"o":""},"갢":{"ha":-251,"x_min":0,"x_max":0,"o":""},"갣":{"ha":0,"x_min":0,"x_max":0,"o":""},"갤":{"ha":-251,"x_min":0,"x_max":0,"o":"m -232 81 l -343 311 l -506 -277 l -343 -54 l -232 26 l -358 NaN b 397 NaN -47 NaN 99 NaN b 69 NaN 250 NaN 140 NaN z m 289 NaN l 963 NaN l 963 NaN l 290 NaN l 290 NaN l 1176 NaN l 1176 NaN l 463 NaN l 463 NaN l 1134 NaN l 1134 NaN l 289 NaN z "},"갥":{"ha":0,"x_min":0,"x_max":0,"o":""},"갦":{"ha":15,"x_min":0,"x_max":0,"o":"l 233 0 l 233 111 l -5 111 l -5 -141 l -117 -141 l -117 90 l -279 90 "},"갧":{"ha":-251,"x_min":0,"x_max":0,"o":"m 156 -412 l 156 -524 l 385 -524 l 385 -686 l -213 -686 l -213 -524 l 18 -524 l 18 -412 l -218 -412 l -218 -267 l -103 -267 l -103 -412 z "},"갨":{"ha":0,"x_min":0,"x_max":0,"o":""},"갩":{"ha":0,"x_min":0,"x_max":0,"o":""},"갪":{"ha":0,"x_min":0,"x_max":0,"o":"l 233 0 l 233 111 l -5 111 l -5 -141 l -117 -141 l -117 90 l -279 90 m -88 -972 l -88 -707 l -19 -707 l -19 -972 z "},"갫":{"ha":0,"x_min":0,"x_max":0,"o":"l 217 0 l 217 111 l -12 111 l -12 275 l 604 275 l 604 111 l 355 111 l 355 0 l 582 0 l 582 -163 m 727 -1207 z "},"갬":{"ha":-1063,"x_min":0,"x_max":0,"o":"l -282 0 l -282 -111 l -22 -111 l -22 -274 l -696 -274 l -696 -111 l -419 -111 l -419 0 l -703 0 l -703 164 m -481 -441 l -388 -441 l -388 401 l 69 401 l 69 -441 z m 240 -760 l 240 -578 l 742 -578 l 742 -760 z "},"갭":{"ha":-273,"x_min":0,"x_max":0,"o":""},"갮":{"ha":0,"x_min":0,"x_max":0,"o":""},"갯":{"ha":0,"x_min":0,"x_max":0,"o":""},"갰":{"ha":-289,"x_min":0,"x_max":0,"o":""},"갱":{"ha":-292,"x_min":0,"x_max":0,"o":""},"갲":{"ha":274,"x_min":0,"x_max":0,"o":""},"갳":{"ha":0,"x_min":0,"x_max":0,"o":""},"갴":{"ha":0,"x_min":0,"x_max":0,"o":""},"갵":{"ha":0,"x_min":0,"x_max":0,"o":""},"갶":{"ha":277,"x_min":0,"x_max":0,"o":""},"갷":{"ha":-1065,"x_min":0,"x_max":0,"o":"l -248 0 l -248 -111 l -22 -111 l -22 -274 l -597 -274 l -597 -111 l -387 -111 l -387 0 l -656 0 l -656 164 "},"갸":{"ha":0,"x_min":0,"x_max":0,"o":"m 1184 802 l 1010 802 l 1010 1109 l 837 1109 l 837 -122 l 1010 -122 l 1010 293 l 1184 293 l 1184 437 l 1010 437 l 1010 661 l 1184 661 "},"갹":{"ha":-1164,"x_min":0,"x_max":0,"o":"m 1183 945 l 1016 945 l 1016 1109 l 842 1109 l 842 392 l 1016 392 l 1016 541 l 1141 541 l 1141 708 z m 1306 387 l 1025 387 l 1025 1044 l 696 1044 l 696 1218 l 1164 1218 l 1164 387 z "},"갺":{"ha":0,"x_min":0,"x_max":0,"o":"m 1180 959 l 1016 959 l 1016 1109 l 842 1109 l 842 410 l 1016 410 l 1016 560 l 1138 560 l 1138 724 "},"갻":{"ha":0,"x_min":0,"x_max":0,"o":"l -694 0 l -694 174 l -547 174 l -547 340 l -410 340 l -410 174 l -285 174 l -285 340 l -146 340 l -146 174 "},"갼":{"ha":0,"x_min":0,"x_max":0,"o":"m 1183 901 l 1016 901 l 1016 1109 l 841 1109 l 841 225 l 1016 225 l 1016 463 l 1175 463 l 1175 629 "},"갽":{"ha":-522,"x_min":0,"x_max":0,"o":"m 670 1047 l 736 913 b 1317 1542 1102 1000 1316 1215 z m 2010 1621 "},"갾":{"ha":0,"x_min":0,"x_max":0,"o":"l -616 0 l -616 174 l -510 174 l -510 338 l -370 338 l -370 174 l -278 174 "},"갿":{"ha":0,"x_min":0,"x_max":0,"o":""},"걀":{"ha":0,"x_min":0,"x_max":0,"o":"l -617 0 l -617 174 l -502 174 l -502 340 l -366 340 l -366 174 l -262 174 l -262 340 "},"걁":{"ha":0,"x_min":0,"x_max":0,"o":""},"걂":{"ha":0,"x_min":0,"x_max":0,"o":""},"걃":{"ha":0,"x_min":0,"x_max":0,"o":""},"걄":{"ha":0,"x_min":0,"x_max":0,"o":""},"걅":{"ha":0,"x_min":0,"x_max":0,"o":""},"걆":{"ha":0,"x_min":0,"x_max":0,"o":""},"걇":{"ha":0,"x_min":0,"x_max":0,"o":""},"걈":{"ha":0,"x_min":0,"x_max":0,"o":""},"걉":{"ha":0,"x_min":0,"x_max":0,"o":"l 1016 0 l 1016 -175 l 346 -175 l 346 0 l 475 0 l 475 167 l 612 167 l 612 0 l 734 0 l 734 167 l 873 167 l 873 0 "},"걊":{"ha":0,"x_min":0,"x_max":0,"o":""},"걋":{"ha":0,"x_min":0,"x_max":0,"o":"m 1180 922 l 1016 922 l 1016 1109 l 842 1109 l 842 294 l 1016 294 l 1016 491 l 1164 491 l 1164 655 z m 9 357 l 81 217 l 454 325 l 665 557 b 1072 800 859 590 998 679 l 1072 875 l 952 875 l 952 1015 l 863 1015 l 863 1208 l 830 1208 l 830 1277 l 968 1277 l 968 1314 l 796 1314 l 796 1277 b 404 951 796 1133 665 989 z "},"걌":{"ha":0,"x_min":0,"x_max":0,"o":"m 1016 1111 "},"걍":{"ha":0,"x_min":0,"x_max":0,"o":"m 1179 941 l 1016 941 l 1016 1109 l 842 1109 l 842 393 l 1016 393 l 1016 540 l 1179 540 l 1179 681 l 1016 681 l 1016 800 l 1179 800 "},"걎":{"ha":0,"x_min":0,"x_max":0,"o":"m 1016 1111 "},"걏":{"ha":-533,"x_min":0,"x_max":0,"o":"m 678 1039 l 741 902 b 1325 1507 1116 979 1324 1179 z m 2022 1934 "},"걐":{"ha":-697,"x_min":0,"x_max":0,"o":"m 141 -406 l 315 -256 l 438 -1253 l 1 -1237 l -133 -571 l -95 NaN l -95 NaN l 79 NaN l 79 NaN l -753 NaN l -753 NaN l -95 NaN l -95 NaN z "},"걑":{"ha":0,"x_min":0,"x_max":0,"o":"l -648 0 l -648 174 l -522 174 l -522 340 l -385 340 l -385 174 l -270 174 l -270 340 l -134 340 l -134 174 "},"걒":{"ha":0,"x_min":0,"x_max":0,"o":""},"걓":{"ha":0,"x_min":0,"x_max":0,"o":"m 1183 975 l 1016 975 l 1016 1109 l 842 1109 l 842 468 l 1016 468 l 1016 587 l 1126 587 l 1126 754 "},"걔":{"ha":0,"x_min":0,"x_max":0,"o":"l 1101 0 l 1101 -167 l 802 -167 l 802 -279 l 1069 -279 l 1069 -441 l -79 -441 l -79 -279 l 319 -279 l 319 -167 l -133 -167 l -133 0 m -1213 373 l -1112 254 b -661 1082 -764 456 -661 738 l -1150 1082 l -1150 944 l -829 944 b -1213 373 -852 702 -961 521 z m -412 590 l -412 796 l -300 796 l -300 590 z "},"걕":{"ha":-153,"x_min":0,"x_max":0,"o":"m 586 340 l 586 229 l 718 229 l 718 66 l 22 66 l 22 229 l 172 229 l 172 340 l 16 340 l 16 479 l 127 479 l 127 340 z "},"걖":{"ha":0,"x_min":0,"x_max":0,"o":"l 140 0 l 140 111 l -7 111 l -7 275 l 699 275 l 699 111 l 543 111 l 543 0 l 677 0 l 677 -163 m 701 -1040 l 943 -1040 l 943 -1374 l 1115 -1374 l 1115 -905 l 701 -905 z m 840 -562 l 840 -438 l 951 -438 l 951 -562 z "},"걗":{"ha":0,"x_min":0,"x_max":0,"o":""},"걘":{"ha":0,"x_min":0,"x_max":0,"o":"l -218 0 l -218 -111 l -22 -111 l -22 -274 l -884 -274 l -884 -111 l -648 -111 l -648 0 l -921 0 l -921 164 m -1991 434 l -1908 309 b -1447 968 -1587 441 -1447 658 l -1931 968 l -1931 831 l -1625 831 b -1991 434 -1649 656 -1761 528 z m -1763 -123 l -887 -123 l -887 16 l -1590 16 l -1590 274 l -1763 274 z m -1196 574 l -1196 728 l -1085 728 l -1085 574 z "},"걙":{"ha":0,"x_min":0,"x_max":0,"o":"l 138 0 l 138 111 l -4 111 l -4 -45 l -115 -45 l -115 90 l -278 90 "},"걚":{"ha":-136,"x_min":0,"x_max":0,"o":"m 50 696 l 50 585 l 164 585 l 164 422 l -429 422 l -429 585 l -324 585 l -324 696 l -439 696 l -439 791 l -328 791 l -328 696 z "},"걛":{"ha":0,"x_min":0,"x_max":0,"o":""},"걜":{"ha":-1065,"x_min":0,"x_max":0,"o":"l -141 0 l -141 -111 l -22 -111 l -22 -274 l -609 -274 l -609 -111 l -502 -111 l -502 0 l -618 0 l -618 164 m -399 -99 l -319 -99 l -319 575 l -395 575 l -395 -98 l -738 -98 l -738 788 l -602 788 l -602 75 l -521 75 l -521 746 l -186 746 l -186 -99 z m 384 199 l 384 297 l 495 297 l 495 199 z "},"걝":{"ha":0,"x_min":0,"x_max":0,"o":""},"걞":{"ha":0,"x_min":0,"x_max":0,"o":"l 121 0 l 121 111 l -5 111 l -5 275 l 625 275 l 625 111 l 484 111 l 484 0 l 604 0 l 604 -163 m 618 -1360 l 1042 -1360 l 1042 -826 l 618 -826 z m 766 -514 l 766 -414 l 878 -414 l 878 -514 z m 768 -1233 l 768 -954 l 892 -954 l 892 -1233 z "},"걟":{"ha":-138,"x_min":0,"x_max":0,"o":"m 151 302 l 151 191 l 267 191 l 267 28 l -331 28 l -331 191 l -214 191 l -214 302 l -336 302 l -336 406 l -225 406 l -225 302 z m -331 -412 l -331 -267 l -216 -267 l -216 -412 z "},"걠":{"ha":0,"x_min":0,"x_max":0,"o":""},"걡":{"ha":114,"x_min":0,"x_max":0,"o":"m 121 -357 l 121 -245 l 1 -245 l 1 -81 l 632 -81 l 632 -245 l 490 -245 l 490 -357 l 595 -357 l 595 -245 l 490 -245 z "},"걢":{"ha":119,"x_min":0,"x_max":0,"o":"m 119 -353 l 119 -241 l -5 -241 l -5 -382 l -117 -382 l -117 -281 l -5 -281 l -5 -382 z m -88 -1092 l -88 -826 l -19 -826 l -19 -1092 z "},"걣":{"ha":0,"x_min":0,"x_max":0,"o":"l 100 0 l 100 111 l -12 111 l -12 275 l 604 275 l 604 111 l 465 111 l 465 0 l 582 0 l 582 -163 m 727 -1207 z m 745 -510 l 745 -411 l 856 -411 l 856 -510 z "},"걤":{"ha":-1063,"x_min":0,"x_max":0,"o":"l -674 0 l -674 163 l -532 163 l -532 274 l -681 274 l -681 438 m -460 -167 l -366 -167 l -366 675 l 95 675 l 95 -167 z m 266 -490 l 266 -305 l 768 -305 l 768 -490 "},"걥":{"ha":0,"x_min":0,"x_max":0,"o":""},"걦":{"ha":0,"x_min":0,"x_max":0,"o":"l 126 0 l 126 111 l -11 111 l -11 -35 l -122 -35 l -122 90 l -285 90 "},"걧":{"ha":0,"x_min":0,"x_max":0,"o":""},"걨":{"ha":0,"x_min":0,"x_max":0,"o":""},"걩":{"ha":0,"x_min":0,"x_max":0,"o":""},"걪":{"ha":0,"x_min":0,"x_max":0,"o":""},"걫":{"ha":0,"x_min":0,"x_max":0,"o":""},"걬":{"ha":0,"x_min":0,"x_max":0,"o":"l 142 0 l 142 111 l -7 111 l -7 -43 l -118 -43 l -118 90 l -281 90 "},"걭":{"ha":0,"x_min":0,"x_max":0,"o":""},"걮":{"ha":0,"x_min":0,"x_max":0,"o":""},"걯":{"ha":-138,"x_min":0,"x_max":0,"o":"m 342 699 l 342 587 l 458 587 l 458 425 l -117 425 l -117 587 l -18 587 l -18 699 l -182 699 l -182 817 l -87 817 l -87 928 l -182 928 z "},"거":{"ha":0,"x_min":0,"x_max":0,"o":"l -475 0 l -475 -245 l -616 -245 l -616 0 l -1234 0 l -1234 172 m -2287 522 l -2197 387 b -1645 1278 -1767 600 -1646 905 l -2228 1278 l -2228 1142 l -1820 1142 b -2287 522 -1845 871 -1975 676 z "},"걱":{"ha":-28,"x_min":0,"x_max":0,"o":"m 680 1038 l 113 1038 l 113 899 l 494 899 z m 44 66 l -122 66 l -122 -84 l -258 -84 l -258 -353 l 418 -353 l 418 -680 l 590 -680 l 590 -215 l -258 -215 z m 205 109 l 418 109 l 418 -166 l 590 -166 l 590 550 l 418 550 l 418 252 l 205 252 z "},"걲":{"ha":-826,"x_min":0,"x_max":0,"o":"m 19 328 l 239 328 l 239 50 l 411 50 l 411 757 l 239 757 l 239 471 l 19 471 z "},"걳":{"ha":0,"x_min":0,"x_max":0,"o":"m NaN -829 l NaN -829 l NaN -1157 l NaN -1157 l NaN -1042 z m NaN -713 l NaN -713 l NaN -992 l NaN -992 l NaN -1212 z "},"건":{"ha":0,"x_min":0,"x_max":0,"o":"l -357 0 l -357 -221 l -499 -221 l -499 0 l -902 0 l -902 172 m -1926 433 l -1855 296 b -1284 983 -1495 408 -1284 652 l -1862 983 l -1862 842 l -1473 842 b -1926 433 -1505 661 -1670 513 z m -1716 -137 "},"걵":{"ha":0,"x_min":0,"x_max":0,"o":"b -214 225 -135 43 -202 131 l -34 225 l -34 363 l -564 363 l -564 225 l -382 225 b -574 9 -393 136 -454 54 l -610 99 b -807 40 -662 67 -736 49 l -1097 40 l -1097 519 l -1352 519 l -1352 692 l -663 692 l -663 519 l -956 519 l -956 300 "},"걶":{"ha":0,"x_min":0,"x_max":0,"o":"l -263 0 l -263 -222 l -403 -222 l -403 0 l -618 0 l -618 172 m -1647 256 l -1586 119 b -1029 746 -1217 214 -1029 420 l -1575 746 l -1575 606 l -1214 606 b -1647 256 -1239 447 -1373 323 z m -1510 -411 l -1510 -73 l -1678 -73 "},"걷":{"ha":-418,"x_min":0,"x_max":0,"o":"m 678 1038 l 110 1038 l 110 899 l 492 899 b 43 522 463 729 311 595 l 110 388 b 678 1038 474 488 678 712 z m 1103 1344 l 1322 1344 l 1322 1092 l 1025 1092 l 1025 872 z "},"걸":{"ha":0,"x_min":0,"x_max":0,"o":"l -263 0 l -263 -222 l -403 -222 l -403 0 l -618 0 l -618 172 m -1643 277 l -1586 140 b -1028 746 -1221 226 -1027 424 l -1575 746 l -1575 606 l -1214 606 b -1643 277 -1239 457 -1373 336 "},"걹":{"ha":0,"x_min":0,"x_max":0,"o":"l -278 0 l -278 -218 l -416 -218 l -416 0 l -652 0 l -652 172 "},"걺":{"ha":0,"x_min":0,"x_max":0,"o":"l -275 0 l -275 -218 l -414 -218 l -414 0 l -637 0 l -637 172 l -1664 172 l -1664 289 l -1957 289 l -1957 823 l -2371 823 m -2222 416 l -2222 696 l -2108 696 l -2108 416 z "},"걻":{"ha":0,"x_min":0,"x_max":0,"o":"l -220 0 l -220 172 l -1246 172 l -1246 279 l -1539 279 l -1539 825 l -1691 825 l -1691 685 l -1804 685 l -1804 825 l -1953 825 m -1804 412 l -1804 557 l -1691 557 l -1691 412 z "},"걼":{"ha":0,"x_min":0,"x_max":0,"o":"l -228 0 l -228 172 "},"걽":{"ha":0,"x_min":0,"x_max":0,"o":"l -220 0 l -220 172 "},"걾":{"ha":-1043,"x_min":0,"x_max":0,"o":"m 506 273 l 804 273 l 804 -20 l 1023 -20 l 1023 -244 l 747 -244 l 747 -463 z m 895 -1272 l 895 -1006 l 964 -1006 l 964 -1272 z "},"걿":{"ha":0,"x_min":0,"x_max":0,"o":"l -256 0 l -256 -218 l -395 -218 l -395 0 l -613 0 l -613 172 m -1640 271 l -1580 136 b -1010 741 -1210 217 -1010 417 l -1575 741 l -1575 601 l -1197 601 b -1640 271 -1221 451 -1360 329 "},"검":{"ha":-28,"x_min":0,"x_max":0,"o":"m 677 1038 l 110 1038 l 110 899 l 492 899 z m 74 -248 l -92 -248 l -92 -401 l -228 -401 l -228 -668 l 590 -668 l 590 -189 l -228 -189 z m -58 -532 l -58 -325 l 419 -325 l 419 -532 z m 198 116 l 418 116 l 418 -140 l 125 -140 l 125 -360 z "},"겁":{"ha":0,"x_min":0,"x_max":0,"o":"l -285 0 l -285 -222 l -423 -222 l -423 0 l -667 0 l -667 172 "},"겂":{"ha":-292,"x_min":0,"x_max":0,"o":"m 209 666 l 491 666 l 491 958 l -35 958 l -35 1180 l -279 1180 l -279 1352 l 388 1352 l 388 1180 l 103 1180 l 103 958 z "},"것":{"ha":0,"x_min":0,"x_max":0,"o":"l -326 0 l -326 -218 l -467 -218 l -467 0 l -819 0 l -819 172 m -1846 362 l -1771 227 b -1219 898 -1396 343 -1219 564 l -1780 898 l -1780 761 l -1406 761 b -1846 362 -1432 582 -1566 445 l -1846 492 l -2308 492 l -2308 536 l -2479 536 l -2479 492 b -2873 170 -2481 352 -2610 208 z "},"겄":{"ha":0,"x_min":0,"x_max":0,"o":"m 677 1038 l 113 1038 l 113 899 l 492 899 l 463 733 l 310 597 l 43 12 b -860 221 -979 53 -904 128 b -633 -1 -821 124 -749 42 b -637 -5 -521 44 -597 161 b -336 NaN -585 -75 -465 -74 l -336 NaN l -504 NaN l -504 NaN b -651 NaN -505 NaN -548 NaN b -793 NaN -751 NaN -793 NaN l -793 NaN l -961 NaN l -961 NaN b -1193 NaN -962 NaN -1030 NaN z m -597 NaN l -379 NaN l -379 NaN l -672 NaN l -672 NaN z "},"겅":{"ha":0,"x_min":0,"x_max":0,"o":"l -316 0 l -316 -213 l -458 -213 l -458 0 l -707 0 l -707 172 m -1739 278 l -1671 141 b -1103 796 -1295 243 -1103 461 l -1670 796 l -1670 658 l -1291 658 b -1739 278 -1315 488 -1455 352 z m -1539 -94 b -1539 NaN -1697 -94 -1539 -93 b -1960 NaN -1540 NaN -1710 NaN b -2382 NaN -2214 NaN -2382 NaN z m -2209 NaN b -1960 NaN -2209 NaN -2117 NaN b -1713 NaN -1807 NaN -1714 NaN b -1960 NaN -1714 NaN -1807 NaN b -2209 NaN -2117 NaN -2209 NaN z "},"겆":{"ha":-499,"x_min":0,"x_max":0,"o":"m 696 1038 l 115 1038 l 115 899 l 507 899 b 45 548 482 741 333 610 l 106 410 b 696 1038 484 496 695 709 z m 1184 1694 l 156 1694 l 156 1914 l -88 1914 l -88 2086 l 598 2086 l 598 1914 l 298 1914 l 298 1694 z "},"겇":{"ha":-347,"x_min":0,"x_max":0,"o":"m 1095 347 z m 45 677 l 165 500 l 45 562 l -92 939 b 533 NaN -7 1151 206 1152 l -47 NaN l -47 NaN l 344 NaN b -118 NaN 319 NaN 170 NaN z m 522 NaN l 742 NaN l 742 NaN l 914 NaN l 914 NaN l 742 NaN l 742 NaN l 522 NaN z "},"겈":{"ha":0,"x_min":0,"x_max":0,"o":"l -1034 0 l -1034 650 l -1290 650 l -1290 357 l -1510 357 "},"겉":{"ha":0,"x_min":0,"x_max":0,"o":"m -1032 277 l -968 142 b -397 765 -595 231 -398 437 l -970 765 l -970 628 l -587 628 b -1032 277 -610 470 -747 341 z m -396 400 l -176 400 l -176 176 l -461 176 l -461 -43 z "},"겊":{"ha":-465,"x_min":0,"x_max":0,"o":"m 682 1039 l 113 1039 l 113 902 l 494 902 b 47 541 467 740 317 606 l 113 404 b 682 1039 474 496 682 715 z m 605 1675 l -540 1675 l -540 1898 l -769 1898 l -769 2070 l -100 2070 l -100 1898 l -399 1898 l -399 1675 z "},"겋":{"ha":-448,"x_min":0,"x_max":0,"o":"m 663 1048 l 114 1048 l 114 913 l 476 913 b 45 575 456 758 331 637 l 103 439 b 663 1048 481 528 664 720 z m 863 1706 l 79 1706 l 79 1927 l -170 1927 l -170 2100 l 480 2100 l 480 1927 l 217 1927 l 217 1706 z "},"게":{"ha":1107,"x_min":0,"x_max":0,"o":"m -1085 378 l -987 256 b -627 621 -812 358 -697 480 l -425 621 l -425 54 l -873 54 l -873 -94 b -831 235 -844 7 -831 117 l -1318 235 l -1318 96 l -1002 96 b -1385 -474 -1026 -146 -1136 -326 z "},"겍":{"ha":0,"x_min":0,"x_max":0,"o":"m NaN 612 l NaN 487 b NaN 765 NaN 557 NaN 648 l NaN 765 l NaN 518 l NaN 518 l NaN 1210 l NaN 1210 l NaN 905 l NaN 905 b NaN 1138 NaN 975 NaN 1053 l NaN 1138 l NaN 1000 l NaN 1000 b NaN 612 NaN 827 NaN 703 z m NaN 509 "},"겎":{"ha":-374,"x_min":0,"x_max":0,"o":"m 581 1013 b 222 637 555 846 444 724 l 307 514 b 665 787 473 580 591 670 l 860 787 l 860 538 l 1023 538 l 1023 1223 l 860 1223 l 860 924 l 729 924 b 762 1152 751 993 762 1069 z m -49 1204 "},"겏":{"ha":0,"x_min":0,"x_max":0,"o":"l 497 168 b 772 NaN 564 286 655 361 l 965 NaN l 965 NaN l 1128 NaN l 1128 NaN l 965 NaN l 965 NaN l 836 NaN b 867 NaN 857 NaN 867 NaN l 390 NaN l 390 NaN l 685 NaN b 328 NaN 659 NaN 549 NaN m 1220 NaN z "},"겐":{"ha":0,"x_min":0,"x_max":0,"o":"l -918 273 b -568 534 -758 338 -643 425 l -355 534 l -355 160 l -193 160 l -193 1024 l -355 1024 l -355 670 l -498 670 b -457 932 -471 749 -457 836 l -933 932 l -933 795 l -637 795 b -1004 400 -662 620 -772 490 "},"겑":{"ha":-313,"x_min":0,"x_max":0,"o":"m 894 -83 l 1340 -83 z "},"겒":{"ha":-170,"x_min":0,"x_max":0,"o":"m 376 380 z m 35 873 l -437 958 l -560 1126 b -308 NaN -498 1244 -416 1317 l -109 NaN l -109 NaN l 54 NaN l 54 NaN l -109 NaN l -109 NaN l -242 NaN b -212 NaN -222 NaN -212 NaN l -680 NaN l -680 NaN l -393 NaN b -751 NaN -416 NaN -520 NaN z m -590 NaN l -64 NaN l -64 NaN z "},"겓":{"ha":-1078,"x_min":0,"x_max":0,"o":"m 1118 37 l 431 37 l 431 201 l 1107 201 l 1107 336 l 258 336 l 258 -102 l 1118 -102 z m 2011 -212 "},"겔":{"ha":0,"x_min":0,"x_max":0,"o":"l -618 0 l -618 164 l -1675 164 l -1675 244 l -1873 244 l -1873 407 l -1282 407 l -1282 618 l -1545 618 l -1545 274 l -659 274 l -659 410 l -1370 410 l -1370 490 l -701 490 l -701 825 l -1546 825 "},"겕":{"ha":-1057,"x_min":0,"x_max":0,"o":"m 487 61 l 579 61 l 579 -620 l 829 -620 l 829 -1027 l 1001 -1027 l 1001 -480 l 579 -480 z "},"겖":{"ha":0,"x_min":0,"x_max":0,"o":""},"겗":{"ha":0,"x_min":0,"x_max":0,"o":"l 0 -787 l 275 -787 l 275 -1066 l -58 -1066 l -58 -987 l 191 -987 l 191 -669 l -228 -669 m 411 -1067 l 411 -922 l 526 -922 l 526 -1067 z m 517 -611 z "},"겘":{"ha":-1057,"x_min":0,"x_max":0,"o":"l -635 0 l -635 164 m -538 -115 l -289 -115 l -289 -186 l -537 -186 l -537 -517 l -464 -517 z "},"겙":{"ha":0,"x_min":0,"x_max":0,"o":"l 0 -1073 l 681 -1073 l 681 -1347 l 343 -1347 l 343 -1027 l -76 -1027 m 669 -974 z "},"겚":{"ha":0,"x_min":0,"x_max":0,"o":""},"겛":{"ha":142,"x_min":0,"x_max":0,"o":"l -624 0 l -624 164 m -1681 258 l -1600 130 b -1240 374 -1433 187 -1314 267 l -1043 374 l -1043 175 l -880 175 l -880 765 l -1043 765 l -1043 510 l -1173 510 b -1143 720 -1153 573 -1143 643 l -1617 720 l -1617 583 l -1326 583 b -1681 258 -1351 436 -1457 326 z m -1242 75 l -1525 75 l -1525 606 l -1400 606 l -1400 420 l -1301 420 l -1301 252 l -1400 252 l -1400 75 z "},"겜":{"ha":840,"x_min":0,"x_max":0,"o":"l -241 0 l -241 163 l 433 163 l 433 0 l 137 0 l 137 -132 b 171 103 159 -60 170 18 m -152 -1028 z m 305 -659 z "},"겝":{"ha":0,"x_min":0,"x_max":0,"o":"m 575 1027 l 107 1027 l 107 891 l 394 891 b 35 533 372 732 271 612 l 119 407 b 480 665 290 470 407 554 l 678 665 l 678 441 l 841 441 l 841 1085 l 678 1085 l 678 803 l 545 803 b 575 1027 565 870 575 944 z m 256 -107 l 256 734 l 751 734 l 751 563 l 636 563 l 636 64 l 751 64 l 751 171 l 1251 171 l 1251 64 "},"겞":{"ha":0,"x_min":0,"x_max":0,"o":"l -301 269 b 60 526 -131 332 -14 416 l 258 526 l 258 313 l 420 313 l 420 947 l 258 947 l 258 665 l 124 665 b 155 888 144 732 155 806 l -313 888 l -313 753 l -26 753 b -385 395 -49 594 -150 474 m -84 -118 l -84 -1 l 47 -1 l 47 -118 z m 513 305 "},"겟":{"ha":0,"x_min":0,"x_max":0,"o":"m -803 155 l -715 27 b -352 327 -544 102 -425 202 l -157 327 l -157 104 l 5 104 l 5 780 l -157 780 l -157 465 l -292 465 b -260 700 -271 536 -260 615 l -741 700 l -741 563 l -438 563 b -803 155 -463 382 -576 250 z m -661 -289 l -594 -426 b -173 -190 -395 -396 -250 -309 b 251 -426 -95 -309 52 -396 l 317 -289 b -85 22 51 -254 -85 -113 l -85 61 l -259 61 l -259 22 b -661 -289 -259 -113 -393 -254 z "},"겠":{"ha":0,"x_min":0,"x_max":0,"o":"m 583 1024 l 100 1024 l 100 886 l 403 886 b 38 499 377 714 264 587 l 122 372 b 485 650 290 441 410 533 l 678 650 l 678 423 l 841 423 l 841 1085 l 678 1085 l 678 787 l 549 787 b 583 1024 572 859 583 937 "},"겡":{"ha":0,"x_min":0,"x_max":0,"o":"m 581 1020 l 95 1020 l 95 882 l 401 882 b 30 483 376 705 262 576 l 115 357 b 487 648 290 429 412 525 l 678 648 l 678 408 l 378 408 l 378 278 b 411 513 401 349 411 427 z m 80 -387 b 511 -627 80 -537 248 -627 b 940 -387 773 -627 939 -537 b 511 -146 939 -239 773 -146 b 80 -387 248 -146 80 -239 z m 252 -387 b 511 -278 252 -315 349 -278 b 766 -387 672 -278 766 -315 b 511 -498 766 -458 672 -498 b 252 -387 349 -498 252 -458 z m 764 -138 z "},"겢":{"ha":0,"x_min":0,"x_max":0,"o":"b -582 -454 -228 163 433 -213 b -369 NaN -558 -581 -465 -596 l -37 NaN l -37 NaN l -892 NaN l -892 NaN l -560 NaN b -943 NaN -576 NaN -701 NaN m -215 NaN z "},"겣":{"ha":0,"x_min":0,"x_max":0,"o":"m NaN 186 l NaN 61 b NaN 331 NaN 127 NaN 216 l NaN 331 l NaN 141 l NaN 141 l NaN 751 l NaN 751 l NaN 471 l NaN 471 b NaN 699 NaN 539 NaN 615 l NaN 699 l NaN 560 l NaN 560 b NaN 186 NaN 395 NaN 272 "},"겤":{"ha":0,"x_min":0,"x_max":0,"o":"b 359 278 167 70 285 161 l 555 278 l 555 39 l 718 39 l 718 713 l 555 713 l 555 415 l 422 415 b 457 652 446 487 456 566 m 91 -264 l 109 -400 l 802 -363 l 802 -496 l 974 -496 l 974 -18 l 117 -18 l 117 -153 l 802 -153 l 802 -239 z m 810 28 z "},"겥":{"ha":0,"x_min":0,"x_max":0,"o":"m -1066 275 l -983 148 b -618 406 -812 209 -692 293 l -426 406 l -426 189 l -263 189 l -263 793 l -426 793 l -426 541 l -555 541 b -526 749 -536 604 -526 673 l -1000 749 l -1000 612 l -709 612 b -1066 275 -734 461 -840 349 z m -171 180 l -7 180 l -7 817 l -171 817 z "},"겦":{"ha":-1067,"x_min":0,"x_max":0,"o":"m 1107 369 l 240 369 l 240 232 l 397 232 l 397 33 l 228 33 l 228 -106 l 1124 -106 l 1124 33 l 949 33 l 949 232 l 1107 232 z m 1636 -235 l 1636 33 l 1835 33 l 1835 247 l 1636 247 z m 1786 631 z "},"겧":{"ha":277,"x_min":0,"x_max":0,"o":"m 1118 378 l 760 378 l 760 475 l 586 475 l 586 378 l 227 378 l 227 251 l 1118 251 z m 35 543 l 119 418 b 479 680 290 482 406 568 l 678 680 l 678 510 l 841 510 l 841 1085 l 678 1085 l 678 818 l 543 818 b 572 1042 563 885 572 959 l 107 1042 l 107 903 l 393 903 b 35 543 370 742 268 624 z m -461 943 l -297 943 l -297 1605 l -461 1605 z "},"겨":{"ha":0,"x_min":0,"x_max":0,"o":"m 669 981 l 83 981 l 83 845 l 492 845 b 23 225 464 572 319 376 l 113 88 b 625 655 402 231 557 427 l 905 655 l 905 457 l 606 457 l 606 319 l 905 319 l 905 -125 l 1077 -125 l 1077 1111 l 905 1111 l 905 792 l 655 792 b 669 981 665 853 669 916 z "},"격":{"ha":0,"x_min":0,"x_max":0,"o":"m 697 1032 l 121 1032 l 121 892 l 511 892 b 50 515 484 726 328 587 l 115 377 b 646 773 381 448 564 582 l 905 773 l 905 648 l 624 648 l 624 510 l 905 510 l 905 376 l 705 376 l 705 157 b 716 281 713 197 716 238 z m 248 -562 l 924 -562 l 924 -873 l 1096 -873 l 1096 -426 l 248 -426 z "},"겪":{"ha":-507,"x_min":0,"x_max":0,"o":"m 696 1038 l 762 903 b 1289 1295 1025 972 1206 1105 l 1548 1295 l 1548 1169 l 1268 1169 l 1268 1031 l 1548 1031 l 1548 911 l 1720 911 l 1720 1618 l 1548 1618 l 1548 1434 l 1329 1434 b 1339 1548 1335 1470 1339 1508 z "},"겫":{"ha":0,"x_min":0,"x_max":0,"o":"m 977 285 l 977 145 l 1222 145 l 1222 -183 l 1392 -183 l 1392 -68 z m 468 174 l 534 40 b 1061 432 797 109 979 242 l 1320 432 l 1320 306 l 1040 306 l 1040 168 l 1320 168 l 1320 54 l 1492 54 l 1492 755 l 1320 755 l 1320 570 l 1101 570 b 1111 684 1107 607 1111 645 z "},"견":{"ha":0,"x_min":0,"x_max":0,"o":"l 1076 0 l 1076 -171 l 838 -171 l 838 -389 b 853 -244 848 -343 853 -294 l 271 -244 l 271 -382 l 663 -382 b 205 -795 633 -564 468 -711 l 277 -929 b 792 -528 526 -855 705 -715 l 1057 -528 l 1057 -666 l 774 -666 l 774 -804 l 1057 -804 l 1057 -1062 l 1227 -1062 m 415 -1363 "},"겭":{"ha":0,"x_min":0,"x_max":0,"o":"b -214 222 -134 42 -201 129 l -34 222 l -34 361 l -564 361 l -564 222 l -382 222 b -574 9 -395 135 -455 54 l -610 99 b -807 40 -662 67 -736 49 l -1096 40 l -1096 519 l -1225 519 l -1225 692 l -533 692 l -533 519 l -701 519 l -701 288 b -694 385 -696 319 -694 351 "},"겮":{"ha":-168,"x_min":0,"x_max":0,"o":"m 354 387 z m 49 922 l -430 983 l -567 1259 b -191 NaN -504 1435 -381 1511 l 76 NaN l 76 NaN l -206 NaN l -206 NaN l 76 NaN l 76 NaN l 248 NaN l 248 NaN l 76 NaN l 76 NaN l -157 NaN b -149 NaN -152 NaN -149 NaN l -708 NaN l -708 NaN l -341 NaN b -780 NaN -364 NaN -494 NaN "},"겯":{"ha":-423,"x_min":0,"x_max":0,"o":"m 684 1038 l 110 1038 l 110 899 l 497 899 b 46 528 469 733 315 599 l 113 393 b 639 796 377 464 559 601 l 905 796 l 905 666 l 623 666 l 623 528 l 905 528 l 905 418 l 731 418 l 731 189 b 739 292 736 222 739 257 z "},"결":{"ha":0,"x_min":0,"x_max":0,"o":"l -155 0 l -155 -233 b -146 -126 -149 -199 -146 -163 l -705 -126 l -705 -266 l -338 -266 b -774 -587 -361 -414 -492 -532 l -716 -728 b -190 -365 -443 -669 -267 -550 l 79 -365 l 79 -473 l -16 -473 l -16 -301 "},"겱":{"ha":0,"x_min":0,"x_max":0,"o":""},"겲":{"ha":0,"x_min":0,"x_max":0,"o":"l -111 0 l -111 172 l 526 172 l 526 -324 l -240 -324 l -240 210 l -654 210 m -505 -197 l -505 83 l -391 83 l -391 -197 z "},"겳":{"ha":0,"x_min":0,"x_max":0,"o":"l 1077 0 l 1077 -556 l 937 -556 l 937 -189 b 498 -513 914 -336 783 -456 l 559 -654 b 1084 -288 832 -592 1008 -474 l 1354 -288 l 1354 -397 l 1253 -397 l 1253 -583 l 1798 -583 l 1798 -734 l 1658 -734 l 1658 -847 l 1798 -847 l 1798 -996 m 1947 -1409 l 1947 -1263 l 2060 -1263 l 2060 -1409 z "},"겴":{"ha":0,"x_min":0,"x_max":0,"o":""},"겵":{"ha":0,"x_min":0,"x_max":0,"o":""},"겶":{"ha":132,"x_min":0,"x_max":0,"o":"m -1044 300 l -983 161 b -458 533 -709 224 -534 345 l -570 533 l -570 705 l 68 705 l 68 149 l -72 149 l -72 516 b -511 184 -95 366 -225 245 z "},"겷":{"ha":0,"x_min":0,"x_max":0,"o":"l -151 0 l -151 -233 b -142 -126 -145 -199 -142 -163 l -701 -126 l -701 -264 l -334 -264 b -770 -582 -357 -408 -489 -527 l -712 -720 b -186 -363 -442 -663 -264 -548 l 83 -363 l 83 -471 l -199 -471 l -199 -601 l 83 -601 l 83 -696 l 255 -696 "},"겸":{"ha":0,"x_min":0,"x_max":0,"o":"m 680 1038 l 548 1038 l 548 869 l 316 869 b 323 967 321 901 323 933 z m -98 -180 l 720 -180 l 720 296 l -98 296 z m 72 -45 l 72 160 l 549 160 l 549 -45 z "},"겹":{"ha":0,"x_min":0,"x_max":0,"o":"m 685 1042 l 747 905 b 1278 1299 1023 974 1202 1105 l 1539 1299 l 1539 1184 l 1264 1184 l 1264 1043 l 1539 1043 l 1539 937 l 1712 937 l 1712 1605 l 1539 1605 l 1539 1438 l 1313 1438 b 1320 1537 1318 1470 1320 1502 "},"겺":{"ha":290,"x_min":0,"x_max":0,"o":"m -290 282 l -228 145 b 302 540 48 214 227 345 l 564 540 l 564 427 l 289 427 l 289 288 l 564 288 l 564 172 l 736 172 l 736 845 l 564 845 l 564 678 l 338 678 b 345 777 342 710 345 743 z "},"겻":{"ha":265,"x_min":0,"x_max":0,"o":"l -205 0 l -205 -231 b -197 -120 -200 -195 -197 -159 l -762 -120 l -762 -257 l -385 -257 b -827 -656 -410 -437 -547 -574 l -753 -791 b -239 -370 -481 -709 -311 -568 m -460 -640 b -651 -777 -581 -918 -719 -640 b -182 NaN -457 -742 -316 -654 l NaN NaN b NaN NaN NaN NaN NaN NaN l NaN NaN l NaN NaN l NaN NaN b NaN NaN NaN NaN NaN NaN z "},"겼":{"ha":0,"x_min":0,"x_max":0,"o":"m 684 1038 l 113 1038 l 113 899 l 497 899 b 46 525 469 733 315 596 l 113 391 b 639 796 379 463 560 601 l 905 796 l 905 678 l 627 678 l 627 537 l 905 537 l 905 418 l 731 418 l 731 189 b 739 292 736 222 739 257 l 146 -730 b 355 NaN 187 -655 262 -611 b 582 NaN 395 NaN 467 NaN b 578 NaN 694 NaN 618 NaN b 880 NaN 630 NaN 750 NaN l 880 NaN l 711 NaN l 711 NaN b 564 NaN 710 NaN 667 NaN b 422 NaN 464 NaN 422 NaN l 422 NaN l 254 NaN l 254 NaN b 22 NaN 254 NaN 185 NaN z "},"경":{"ha":0,"x_min":0,"x_max":0,"o":"l -198 0 l -198 -230 b -189 -115 -192 -193 -189 -155 l -759 -115 l -759 -253 l -378 -253 b -825 -633 -402 -422 -542 -559 l -758 -770 b -233 -366 -486 -696 -311 -561 l 32 -366 l 32 -484 l -246 -484 l -246 -622 l 32 -622 l 32 -743 l 204 -743 m -629 -1007 b -629 NaN -783 -1007 -629 -1006 b -1049 NaN -629 NaN -799 NaN b -1471 NaN -1303 NaN -1472 NaN z m -1299 NaN b -1049 NaN -1299 NaN -1206 NaN b -802 NaN -896 NaN -803 NaN b -1049 NaN -803 NaN -896 NaN b -1299 NaN -1206 NaN -1299 NaN z "},"겾":{"ha":-880,"x_min":0,"x_max":0,"o":"l -168 0 l -168 -232 b -161 -134 -163 -201 -161 -168 l -285 -134 l -285 38 "},"겿":{"ha":-347,"x_min":0,"x_max":0,"o":"m 1095 347 z m 46 681 l 164 505 l 46 568 l -92 846 b 308 NaN -16 1017 115 1091 l 580 NaN l 580 NaN l 428 NaN l 428 NaN l 1117 NaN l 1117 NaN l 957 NaN l 957 NaN b 965 NaN 962 NaN 965 NaN l 410 NaN l 410 NaN l 777 NaN b 336 NaN 753 NaN 623 NaN z "},"곀":{"ha":0,"x_min":0,"x_max":0,"o":"l -1032 0 l -1032 650 l -1160 650 l -1160 481 l -1392 481 b -1385 579 -1387 513 -1385 545 "},"곁":{"ha":0,"x_min":0,"x_max":0,"o":"m -1031 277 l -968 142 b -439 530 -694 208 -515 336 l -176 530 l -176 418 l -286 418 l -286 256 l -516 256 b -509 359 -511 290 -509 323 l -1080 359 l -1080 222 l -696 222 b -1141 -129 -720 64 -858 -64 z "},"곂":{"ha":-860,"x_min":0,"x_max":0,"o":"l -168 0 l -168 -230 b -161 -132 -163 -199 -161 -166 l -733 -132 l -733 -271 l -350 -271 b -795 -619 -377 -425 -528 -555 l -732 -755 b -206 -367 -471 -689 -287 -558 l 62 -367 l 62 -488 l -218 -488 l -218 -627 l 62 -627 l 62 -730 l 234 -730 "},"곃":{"ha":-861,"x_min":0,"x_max":0,"o":"l -151 0 l -151 -233 b -143 -130 -146 -200 -143 -165 l -702 -130 l -702 -267 l -335 -267 b -774 -600 -356 -417 -487 -538 l -713 -740 b -184 -363 -437 -677 -259 -554 l 82 -363 l 82 -467 l -200 -467 l -200 -597 l 82 -597 l 82 -732 l 254 -732 "},"계":{"ha":1107,"x_min":0,"x_max":0,"o":"m -1089 378 l -987 256 b -573 769 -757 393 -631 565 l -422 769 l -422 601 l -597 601 l -597 461 l -422 461 l -422 54 l -258 54 l -258 1207 l -422 1207 l -422 909 l -545 909 b -533 1088 -537 966 -533 1026 l -1017 1088 l -1017 948 l -705 948 b -1089 378 -729 706 -839 526 z "},"곅":{"ha":0,"x_min":0,"x_max":0,"o":"m NaN 614 l NaN 487 b NaN 895 NaN 581 NaN 714 z m NaN 789 "},"곆":{"ha":-374,"x_min":0,"x_max":0,"o":"m 581 1019 l 663 891 b 1083 1299 886 985 1022 1118 z m 267 1345 "},"곇":{"ha":0,"x_min":0,"x_max":0,"o":"m NaN 503 l NaN 379 b NaN 764 NaN 467 NaN 591 l NaN 764 l NaN 650 l NaN 650 l NaN 810 l NaN 810 l NaN 650 l NaN 650 l NaN 539 b NaN 654 NaN 576 NaN 614 l NaN 654 l NaN 516 l NaN 516 b NaN 143 NaN 351 NaN 229 "},"곈":{"ha":0,"x_min":0,"x_max":0,"o":"l -916 0 l -916 164 l -1986 423 b -1569 817 -1767 515 -1633 645 l -1415 817 l -1415 681 l -1596 681 l -1596 544 l -1415 544 l -1415 321 l -1255 321 l -1255 1184 l -1415 1184 l -1415 954 l -1533 954 b -1523 1092 -1527 998 -1523 1044 l -1998 1092 l -1998 955 l -1705 955 b -2071 549 -1729 777 -1841 645 m -1832 -5 "},"곉":{"ha":0,"x_min":0,"x_max":0,"o":"m 353 336 b -34 37 186 -92 42 -50 b NaN NaN -41 121 NaN NaN l NaN NaN l NaN NaN l NaN NaN l NaN NaN l NaN NaN b NaN NaN NaN NaN NaN NaN l NaN NaN b NaN NaN NaN NaN NaN NaN z m NaN NaN l NaN NaN b NaN NaN NaN NaN NaN NaN l NaN NaN l NaN NaN l NaN NaN l NaN NaN l NaN NaN l NaN NaN l NaN NaN l NaN NaN b NaN NaN NaN NaN NaN NaN b NaN NaN NaN NaN NaN NaN z m NaN NaN "},"곊":{"ha":-170,"x_min":0,"x_max":0,"o":"m 376 384 z m 38 897 l -438 978 l -564 1204 b -189 NaN -482 1341 -361 1400 l -47 NaN l -47 NaN l -205 NaN l -205 NaN l -47 NaN l -47 NaN l 113 NaN l 113 NaN l -47 NaN l -47 NaN l -159 NaN b -154 NaN -156 NaN -154 NaN l -626 NaN l -626 NaN l -338 NaN b -692 NaN -363 NaN -468 NaN z m -169 NaN l 428 NaN l 428 NaN l 215 NaN l 215 NaN l 47 NaN l 47 NaN l -169 NaN z m -111 NaN b 128 NaN -111 NaN -12 NaN b 371 NaN 269 NaN 370 NaN b 128 NaN 370 NaN 269 NaN b NaN NaN 129 NaN NaN NaN z m NaN NaN b NaN NaN NaN NaN NaN NaN b NaN NaN NaN NaN NaN NaN b NaN NaN NaN NaN NaN NaN b NaN NaN NaN NaN NaN NaN "},"곋":{"ha":0,"x_min":0,"x_max":0,"o":"m NaN -1138 l NaN -1138 l NaN -1000 l NaN -1000 l NaN -826 l NaN -826 l NaN -689 l NaN -689 "},"곌":{"ha":0,"x_min":0,"x_max":0,"o":"l -620 0 l -620 164 m -1679 245 l -1596 119 b -1176 487 -1373 197 -1236 316 l -1034 487 l -1034 391 l -1192 391 l -1192 256 l -1034 256 l -1034 170 l -873 170 l -873 761 l -1034 761 l -1034 620 l -1146 620 b -1141 713 -1143 650 -1141 681 l -1613 713 l -1613 575 l -1326 575 b -1679 245 -1350 427 -1455 317 l -1465 245 l -1465 -18 l -1811 -18 l -1811 868 l -1674 868 l -1674 157 l -1594 157 l -1594 826 l -1259 826 l -1259 -19 z "},"곍":{"ha":0,"x_min":0,"x_max":0,"o":""},"곎":{"ha":0,"x_min":0,"x_max":0,"o":""},"곏":{"ha":0,"x_min":0,"x_max":0,"o":"l 0 -789 l 286 -789 l 286 -1080 l -47 -1080 l -47 -1000 l 202 -1000 l 202 -683 l -217 -683 m 422 -1080 l 422 -935 l 537 -935 l 537 -1080 "},"곐":{"ha":-947,"x_min":0,"x_max":0,"o":"m 895 -106 l 1152 -106 l 1152 58 l 1785 58 l 1785 -106 z "},"곑":{"ha":0,"x_min":0,"x_max":0,"o":"l -633 0 l -633 164 l -633 -895 l -528 -895 l -528 -1180 l -865 -1180 l -865 -860 l -1284 -860 m -799 -1396 l -359 -1396 l -359 -1263 z "},"곒":{"ha":0,"x_min":0,"x_max":0,"o":""},"곓":{"ha":144,"x_min":0,"x_max":0,"o":"m 1153 365 l 967 365 l 967 457 l 799 457 l 799 365 l 621 365 l 621 240 l 1153 240 z m 39 585 l 121 458 b 542 825 345 535 483 654 l 684 825 l 684 723 l 525 723 l 525 594 l 684 594 l 684 503 l 844 503 l 844 1090 l 684 1090 l 684 955 l 571 955 b 576 1046 574 984 576 1015 l 104 1046 l 104 910 l 392 910 b 39 585 368 764 263 656 z m 168 1032 "},"곔":{"ha":0,"x_min":0,"x_max":0,"o":"m NaN -1131 "},"곕":{"ha":-117,"x_min":0,"x_max":0,"o":"m -316 -1133 z m -205 -1481 l -205 -1321 l 445 -1321 l 445 -480 l 932 -480 l 932 -651 l 821 -651 l 821 -1150 l 925 -1150 l 925 -651 l 821 -651 z m 827 -258 z "},"곖":{"ha":-106,"x_min":0,"x_max":0,"o":"m -395 -1138 l -235 -1138 l -235 -499 l 216 -499 l 216 -406 l 285 -507 b 485 -314 380 -467 446 -398 b 690 -507 523 -401 589 -469 l 776 -378 b 572 -80 631 -326 572 -210 l 572 7 l 403 7 l 403 -80 b 216 -370 402 -193 345 -305 l 216 0 l 56 0 l 56 -123 l -76 -123 l -76 0 l -235 0 z m -76 -368 l -76 -251 l 56 -251 l 56 -368 z m 521 46 "},"곗":{"ha":0,"x_min":0,"x_max":0,"o":"m -822 171 l -731 43 b -314 475 -505 145 -372 286 l -174 475 l -174 363 l -326 363 l -326 225 l -174 225 l -174 109 l -363 109 l -363 -4 b -357 109 -359 32 -357 70 l -834 109 l -834 -31 l -536 -31 b -899 -442 -561 -212 -673 -345 z m -754 -884 l -690 -1019 b -267 -789 -490 -991 -344 -906 b 160 -1019 -189 -906 -41 -991 l 224 -884 b -179 -582 -45 -849 -179 -714 l -179 -547 l -353 -547 l -353 -582 b -754 -884 -353 -714 -486 -849 z "},"곘":{"ha":0,"x_min":0,"x_max":0,"o":"m 492 311 l 579 184 l 692 225 l 768 301 l 810 393 l 359 597 b 774 987 578 685 713 813 l 918 987 l 918 875 l 814 875 l 814 1035 l 1475 1035 l 1475 875 l 1304 875 l 1304 764 b 1312 880 1309 801 1312 840 l 834 880 l 834 741 l 1129 741 b 772 364 1104 572 993 449 z m 1664 267 "},"곙":{"ha":0,"x_min":0,"x_max":0,"o":"m 681 345 b 250 111 417 345 250 256 b 681 -125 250 -37 417 -125 b 1109 111 943 -125 1109 -37 b 681 345 1109 256 943 345 z m 41 498 l 125 374 b 543 776 347 467 481 598 l 684 776 l 684 652 l 564 652 l 564 812 l 1255 812 l 1255 652 l 1080 652 l 1080 542 b 1087 656 1084 578 1087 616 b 729 268 1061 485 951 359 z m 1110 -119 b 1369 -14 1110 -50 1204 -14 b 1624 -119 1530 -14 1624 -50 b 1369 -227 1624 -191 1530 -228 b 1110 -119 1204 -228 1110 -191 z m 1622 131 z "},"곚":{"ha":0,"x_min":0,"x_max":0,"o":"m 1111 359 l 256 359 l 256 222 l 588 222 b 205 9 572 125 448 33 l 262 -119 b 683 79 467 -98 612 -25 b 1104 -119 755 -24 899 -99 l 1162 9 b 779 222 921 33 795 127 l 1111 222 l 41 222 l 41 509 l -60 509 l -60 669 l 604 669 l 604 509 l 430 509 l 430 398 b 437 513 435 435 437 473 l -40 513 l -40 375 l 255 375 b -102 -5 230 205 119 84 z m 790 -102 "},"곛":{"ha":0,"x_min":0,"x_max":0,"o":"m 768 427 l 594 427 l 594 326 l 256 326 l 256 190 l 581 190 b 203 8 549 104 425 28 b -174 190 -14 31 -140 108 l 151 190 l 151 326 l -193 326 z m -928 525 l -841 399 b -422 792 -614 488 -480 615 l -277 792 l -277 686 l -430 686 l -430 555 l -277 555 l -277 463 l -117 463 l -117 1085 l -277 1085 l -277 921 l -395 921 l -395 456 l -533 456 l -533 742 b -894 374 -557 578 -660 458 "},"곜":{"ha":-1057,"x_min":0,"x_max":0,"o":"m 892 -109 l 1526 -109 z "},"곝":{"ha":0,"x_min":0,"x_max":0,"o":"m 1104 411 l 266 411 l 266 -117 l 1127 -117 l 1127 14 l 439 14 l 439 90 l 1089 90 l 1089 212 l 439 212 l 439 281 l 1104 281 l 34 555 b 450 924 258 635 391 754 l 450 924 l 598 924 l 598 819 l 445 819 l 445 686 l 598 686 l 598 590 l 758 590 l 758 1211 l 598 1211 l 598 1054 l 480 1054 b 487 1164 485 1088 487 1125 l 22 1164 l 22 1024 l 307 1024 b -52 681 283 871 177 758 "},"곞":{"ha":-1066,"x_min":0,"x_max":0,"o":"m 1107 353 l 240 353 l 240 216 l 397 216 l 397 33 l 228 33 l 228 -106 l 1124 -106 l 1124 33 l 949 33 l 949 216 l 1107 216 z m 1634 -260 l 1634 33 l 1817 33 l 1817 247 l 1634 247 z m 1785 614 z "},"곟":{"ha":0,"x_min":0,"x_max":0,"o":"m 1118 378 l 760 378 l 760 469 l 586 469 l 586 378 l 227 378 l 227 248 l 1118 248 z m 34 553 l 119 431 b 538 811 347 514 481 636 l 684 811 l 684 713 l 530 713 l 530 581 l 684 581 l 684 502 l 844 502 l 844 1085 l 684 1085 l 684 941 l 567 941 b 572 1042 570 973 572 1006 l 107 1042 l 107 903 l 393 903 b 34 553 369 747 264 634 "},"고":{"ha":0,"x_min":0,"x_max":0,"o":"m 1054 1002 l 153 1002 l 153 865 l 880 865 b 830 313 880 720 878 547 l 1004 296 b 1054 886 1053 557 1053 731 l 37 886 l 37 26 l -514 26 l -514 450 l -686 450 l -686 26 l -1089 26 z "},"곡":{"ha":0,"x_min":0,"x_max":0,"o":"m 1160 543 l 631 543 l 631 773 l 460 773 l 460 543 l 39 543 l 39 404 l 1160 404 z m 153 160 l 842 160 l 842 -125 l 1016 -125 l 1016 298 l 153 298 z m 165 913 l 854 913 b 823 623 853 833 848 742 l 997 606 b 1027 960 1026 754 1026 869 l 1027 1048 l 165 1048 z "},"곢":{"ha":0,"x_min":0,"x_max":0,"o":"m 1160 544 l 631 544 l 631 776 l 460 776 l 460 544 l 39 544 l 39 406 l 1160 406 z m 148 163 l 400 163 l 400 -125 l 570 -125 l 570 301 l 148 301 z m 165 913 l 854 913 b 823 627 853 834 848 745 l 997 612 b 1027 960 1026 755 1026 870 l 1027 1048 l 165 1048 "},"곣":{"ha":-1039,"x_min":0,"x_max":0,"o":"m 1162 556 l 631 556 l 631 776 l 460 776 l 460 556 l 37 556 l 37 416 l 1162 416 z m 1204 1010 l 971 1010 l 971 1699 b 941 1419 970 1623 966 1534 l 1114 1404 b 1144 1749 1143 1546 1143 1659 l 1144 1834 l 283 1834 z "},"곤":{"ha":0,"x_min":0,"x_max":0,"o":"m 1027 1040 l 165 1040 l 165 905 l 854 905 b 821 605 853 823 848 730 l 993 587 b 1027 954 1026 739 1026 859 l 39 954 l 39 381 l -490 381 l -490 613 l -661 613 l -661 381 l -1081 381 z m -951 -243 "},"곥":{"ha":-9,"x_min":0,"x_max":0,"o":"m 315 320 b -53 22 148 -98 19 -58 b NaN NaN -62 103 NaN NaN l NaN NaN l NaN NaN l NaN NaN l NaN NaN l NaN NaN z "},"곦":{"ha":0,"x_min":0,"x_max":0,"o":"m -277 434 l 848 434 l 848 572 l 316 572 l 316 772 l 145 772 l 145 572 l -277 572 z m -149 888 l 539 888 b 509 633 538 822 532 741 l 678 617 b 712 945 711 758 711 867 l 712 1025 l -149 1025 "},"곧":{"ha":0,"x_min":0,"x_max":0,"o":"m 1027 1057 b NaN NaN 165 920 145 NaN l NaN NaN b NaN NaN NaN NaN NaN NaN z m NaN NaN l NaN NaN l NaN NaN l NaN NaN l NaN NaN l NaN NaN l NaN NaN l NaN NaN l NaN NaN l NaN NaN l NaN NaN l NaN NaN l NaN NaN l NaN NaN z "},"골":{"ha":0,"x_min":0,"x_max":0,"o":"m 1027 1063 "},"곩":{"ha":-529,"x_min":0,"x_max":0,"o":"m 568 395 l 568 -26 l 446 -26 z m 903 -825 l 1294 -825 l 1294 -581 l 911 -581 l 911 -407 l 1431 -407 l 1431 -825 z "},"곪":{"ha":0,"x_min":0,"x_max":0,"o":"l -496 0 l -496 -529 l -302 -529 l -302 -700 l -496 -700 l -496 -1120 "},"곫":{"ha":0,"x_min":0,"x_max":0,"o":"m 773 412 l 627 412 l 627 -117 l 1036 -117 l 1036 412 l 887 412 l 887 267 l 773 267 l 39 267 l 39 483 l -490 483 l -490 674 l -661 674 l -661 483 l -1081 483 z m -970 141 l -970 454 l -1378 454 z m -1363 974 l -675 974 b -700 739 -676 909 -680 834 b NaN NaN -596 739 -518 NaN l NaN NaN l NaN NaN z m NaN NaN l NaN NaN l NaN NaN l NaN NaN z "},"곬":{"ha":0,"x_min":0,"x_max":0,"o":"m 924 300 l 924 420 l 762 420 l 762 300 b 571 9 762 189 707 71 l 570 28 l 570 -48 l 556 -48 l 556 -110 l 553 -110 l 553 203 l 145 203 l 145 77 l 217 77 z m -667 260 l 453 260 l 453 399 l -76 399 l -76 595 l -247 595 l -247 399 l -667 399 z m -541 707 l 147 707 b 122 469 146 639 142 566 l 294 450 b 320 751 319 568 319 671 l 320 841 l -541 841 z "},"곭":{"ha":0,"x_min":0,"x_max":0,"o":"m 1048 14 l 640 14 l 640 -517 l 1065 -517 l 56 -517 l 56 92 l -473 92 l -473 277 l -644 277 l -644 92 l -1065 92 l -1065 203 l -1409 203 l -1409 -129 l -1323 -129 l -1323 110 l -1007 110 l -1007 -298 z m -992 212 l -304 212 b -330 -9 -305 151 -311 80 l -158 -26 b -131 269 -130 92 -130 195 l -131 345 l -992 345 z "},"곮":{"ha":111,"x_min":0,"x_max":0,"o":"l 206 0 l 206 -529 l 396 -529 l 396 -700 l 206 -700 l 206 -1120 m 221 -609 l -114 -609 l -114 79 b -139 -154 -115 14 -119 -61 b NaN NaN -36 -155 43 NaN l NaN NaN l NaN NaN z m NaN NaN l NaN NaN l NaN NaN l NaN NaN z "},"곯":{"ha":106,"x_min":0,"x_max":0,"o":"m 1114 358 l 929 358 l 929 449 l 764 449 l 764 358 l 581 358 l 581 233 l 1114 233 l 39 233 l 39 500 l -490 500 l -490 693 l -661 693 l -661 500 l -1081 500 z m -1061 1019 l -1407 1019 l -1407 1707 b -1432 1479 -1408 1643 -1413 1571 l -1261 1459 b -1234 1764 -1233 1583 -1233 1687 l -1234 1843 l -2095 1843 z m -1635 812 b -1415 648 -1635 711 -1544 648 b -1193 812 -1285 648 -1194 711 b -1415 979 -1194 913 -1285 977 b -1635 812 -1544 977 -1635 913 z m -1489 812 b -1415 865 -1489 847 -1455 865 b -1341 812 -1371 865 -1341 847 b -1415 760 -1341 778 -1371 760 b -1489 812 -1455 760 -1489 778 z "},"곰":{"ha":553,"x_min":0,"x_max":0,"o":"m 172 -1032 l 172 -853 l 688 -853 l 688 -1032 z "},"곱":{"ha":-989,"x_min":0,"x_max":0,"o":"m 1027 1066 l 165 1066 l 165 929 l 854 929 b 823 666 852 859 847 774 l 993 650 b 1027 987 1026 793 1026 904 z m 1161 281 z m 1279 -77 l 1279 -608 l 2131 -608 l 2131 -111 l 1959 -111 l 1959 -229 l 1451 -229 l 1451 -119 l 1959 -119 l 1959 -229 z "},"곲":{"ha":-269,"x_min":0,"x_max":0,"o":"m 127 331 l 324 331 l 324 1019 b 294 759 323 950 317 867 l 463 745 b 497 1078 496 886 496 994 l 497 1156 l -364 1156 "},"곳":{"ha":0,"x_min":0,"x_max":0,"o":"m 1027 1053 l 165 1053 l 165 917 l 854 917 b 825 635 853 837 850 751 l 997 618 b 1027 956 1027 756 1027 862 l 39 956 l 39 415 l -490 415 l -490 644 l -661 644 l -661 415 l -1081 415 "},"곴":{"ha":126,"x_min":0,"x_max":0,"o":"m -435 126 l 685 126 l 685 264 l 156 264 l 156 479 l -15 479 l -15 264 l -435 264 z "},"공":{"ha":0,"x_min":0,"x_max":0,"o":"m 593 340 b 153 107 325 340 153 255 l -400 107 l -400 186 l -929 186 l -929 401 l -1100 401 l -1100 186 l -1520 186 z m -1394 545 l -705 545 b -738 266 -707 461 -710 378 l -568 250 b -533 581 -532 376 -532 482 l -533 681 l -1394 681 z m -1234 -266 "},"곶":{"ha":0,"x_min":0,"x_max":0,"o":"m 1036 362 l 164 362 l 164 228 l 505 228 b 113 -201 477 128 349 37 b 330 NaN 139 -329 230 -355 l 671 NaN l -326 NaN l -326 NaN l -854 NaN l -854 NaN l -1025 NaN l -1025 NaN l -1446 NaN z m -1320 NaN l -631 NaN b -663 NaN -632 NaN -636 NaN l -492 NaN b -458 NaN -459 NaN -459 NaN l -458 NaN l -1320 NaN z "},"곷":{"ha":-982,"x_min":0,"x_max":0,"o":"m 1021 317 l 686 317 l 686 418 l 515 418 l 515 317 l 176 317 l 176 183 l 504 183 b 122 4 474 101 351 24 b -260 183 -105 25 -229 102 l 65 183 z "},"곸":{"ha":0,"x_min":0,"x_max":0,"o":"m 1024 338 l 170 338 l 170 202 l 853 202 l 853 126 l 151 104 l 171 -26 l 853 9 l 853 -125 l 1024 -125 l 39 -125 l 39 431 l -490 431 l -490 648 l -661 648 l -661 431 l -1081 431 z m -955 784 l -971 NaN b -937 NaN -938 NaN -938 NaN l -937 NaN l -1799 NaN z "},"곹":{"ha":0,"x_min":0,"x_max":0,"o":"l -498 0 l -498 -529 l -302 -529 l -302 -700 l -498 -700 l -498 -1120 m -363 -1853 l -286 -1853 l -286 -1187 l -167 -1187 l -167 -1853 l -94 -1853 l -94 -1164 l 30 -1164 l 30 -2024 z "},"곺":{"ha":0,"x_min":0,"x_max":0,"o":"m -1002 237 l 118 237 l 118 376 l -411 376 l -411 582 l -582 582 l -582 376 l -1002 376 z m -876 709 l -188 709 b -220 449 -189 633 -193 553 l -49 427 b -15 747 -16 554 -16 656 l -15 845 l -876 845 "},"곻":{"ha":-1019,"x_min":0,"x_max":0,"o":"m 126 282 l 126 544 l 199 544 l 199 -317 "},"과":{"ha":0,"x_min":0,"x_max":0,"o":"m 731 986 l 91 986 l 91 848 l 559 848 b 526 427 557 739 555 606 l 697 414 b 731 887 730 619 730 771 z m 26 266 l 42 127 b 792 174 258 126 538 131 l 781 302 b 423 274 667 288 545 279 l 423 632 l 252 632 l 252 269 b 26 266 172 267 95 266 z m 840 -125 "},"곽":{"ha":0,"x_min":0,"x_max":0,"o":"m 731 1031 l 94 1031 l 94 892 l 558 892 b 532 629 557 821 553 737 l 701 612 b 731 948 730 751 730 865 z m 20 525 l 35 388 b 796 441 247 389 538 390 l 784 566 b 422 532 669 548 544 538 l 422 758 l 250 758 l 250 526 b 20 525 167 525 90 525 z m 186 153 l 853 153 l 853 -121 l 1031 -121 l 1031 290 l 186 290 z m 853 339 "},"곾":{"ha":0,"x_min":0,"x_max":0,"o":"m 568 301 l 151 301 l 151 164 l 397 164 l 397 -125 l 568 -125 z m 20 534 l 35 396 b 796 452 247 396 538 400 l 784 574 b 422 542 669 557 544 547 l 422 762 l 250 762 l 250 536 b 20 534 167 534 90 534 z m 94 892 l 558 892 b 532 635 557 823 552 741 l 697 618 b 727 952 727 757 727 868 l 727 1031 l 94 1031 z m 621 164 l 856 164 l 856 -125 l 1028 -125 l 1028 301 l 621 301 z m 853 354 "},"곿":{"ha":0,"x_min":0,"x_max":0,"o":"m 940 273 l 940 316 l 768 316 l 768 273 b 557 9 767 168 703 62 l 557 308 l 146 308 l 146 170 l 384 170 l 384 -118 l 557 -118 l 557 -6 l 635 -126 b 852 56 737 -91 808 -25 b 1070 -126 894 -26 965 -92 b 852 140 918 -79 851 28 z m -68 408 l -53 270 b 708 324 161 271 446 273 l 696 448 b 334 416 581 430 456 421 l 334 635 l 161 635 l 161 410 b -68 408 79 409 1 409 z m 5 764 l 470 764 b 444 509 469 693 464 613 l 609 491 b 639 825 639 629 639 741 l 639 903 l 5 903 z m 765 227 l 943 227 l 943 526 l 1093 526 l 1093 671 l 943 671 l 943 977 l 765 977 z "},"관":{"ha":0,"x_min":0,"x_max":0,"o":"m 728 1020 l 94 1020 l 94 879 l 559 879 b 530 597 558 805 553 715 l 700 581 b 728 943 728 734 728 857 z m 20 491 l 35 353 b 796 406 250 353 539 358 l 787 530 b 422 498 671 513 545 504 l 422 735 l 250 735 l 250 493 b 20 491 168 491 90 491 z m 202 -103 l 1069 -103 l 1069 35 l 376 35 l 376 269 l 202 269 z m 853 186 l 1031 186 l 1031 589 l 1180 589 l 1180 734 l 1031 734 l 1031 1109 l 853 1109 z "},"괁":{"ha":-300,"x_min":0,"x_max":0,"o":"m 320 319 l 152 319 l 152 -100 l 221 -100 b 549 -41 339 -100 454 -89 l 593 -119 b 821 43 701 -92 777 -32 b 1050 -119 865 -31 941 -91 l 1124 9 b 907 199 994 46 919 121 l 1076 199 l 1076 332 l 564 332 l 564 199 l 737 199 b 542 16 724 124 659 53 l 517 98 b 320 43 464 66 393 51 z m 834 -618 l 1012 -618 l 1012 -335 l 1162 -335 l 1162 -190 l 1012 -190 l 1012 107 l 834 107 z "},"괂":{"ha":75,"x_min":0,"x_max":0,"o":"m 312 340 l 146 340 l 146 -92 l 214 -92 b 547 -47 341 -92 444 -85 l 519 90 b 312 49 456 64 387 53 z m 19 597 l 34 460 b 798 509 254 460 538 464 l 785 629 b 419 603 669 615 543 607 l 419 799 l 250 799 l 250 599 b 19 597 168 597 90 597 z m 427 -251 l 750 -251 l 750 363 l 873 363 l 873 140 l 959 140 l 959 -27 l 873 -27 l 873 -251 z m 941 -556 b 1180 -708 941 -650 1039 -708 b 1420 -556 1322 -708 1419 -650 b 1180 -399 1419 -455 1322 -398 b 941 -556 1039 -398 941 -455 z m 1095 -556 b 1180 -509 1094 -523 1131 -509 b 1264 -556 1227 -509 1264 -523 b 1180 -598 1264 -585 1227 -598 b 1095 -556 1131 -598 1094 -585 z m 1225 -134 "},"괃":{"ha":0,"x_min":0,"x_max":0,"o":"m 1055 27 l 370 27 l 370 178 l 1042 178 l 1042 316 l 198 316 l 198 -111 l 1055 -111 z m 20 552 l 35 414 b 796 461 256 413 540 418 l 787 586 b 422 558 671 571 545 563 l 422 765 l 250 765 l 250 553 b 20 552 169 552 91 552 z m 94 909 l 558 909 b 532 656 557 841 552 759 l 701 643 b 731 966 730 779 730 887 l 731 1046 l 94 1046 z m 853 372 "},"괄":{"ha":0,"x_min":0,"x_max":0,"o":"m 731 1055 l 94 1055 l 94 920 l 558 920 b 534 693 556 858 552 785 l 703 675 b 731 983 730 804 730 910 z m 19 605 l 34 471 b 798 517 257 471 541 473 l 785 636 b 419 610 669 622 543 614 l 419 804 l 250 804 l 250 606 b 19 605 168 605 90 605 z m 178 282 l 856 282 l 856 212 l 182 212 l 182 -114 l 1070 -114 l 1070 15 l 353 15 l 353 91 l 1031 91 l 1031 408 l 178 408 z m 853 452 "},"괅":{"ha":-1012,"x_min":0,"x_max":0,"o":"m 1031 382 l 627 382 l 627 247 l 853 247 l 853 -125 l 1031 -125 z m 1092 -1297 l 1816 -1297 l 1816 -1218 b 2235 -1187 2038 -1218 2131 -1214 l 2214 -1063 b 1904 -1092 2130 -1084 2056 -1090 l 1904 -1020 l 2162 -1020 l 2162 -719 l 1737 -719 l 1737 -841 l 1994 -841 l 1994 -906 l 1737 -906 "},"괆":{"ha":-537,"x_min":0,"x_max":0,"o":"m 556 382 l 141 382 l 141 260 l 388 260 l 388 195 l 142 195 l 142 -117 l 213 -117 b NaN NaN 202 11 NaN NaN l NaN NaN l NaN NaN z m NaN NaN l NaN NaN l NaN NaN l NaN NaN l NaN NaN z m NaN NaN l NaN NaN l NaN NaN l NaN NaN "},"괇":{"ha":-755,"x_min":0,"x_max":0,"o":"m 774 397 l 620 397 l 620 -117 l 1031 -117 l 1031 397 l 873 397 l 873 258 l 774 258 z m 1119 -532 l 1366 -532 l 1366 -600 l 1120 -600 l 1120 -914 l 1191 -914 b NaN NaN 1180 -787 NaN NaN l NaN NaN l NaN NaN l NaN NaN l NaN NaN z m NaN NaN l NaN NaN l NaN NaN l NaN NaN "},"괈":{"ha":0,"x_min":0,"x_max":0,"o":"m 935 308 l 935 396 l 765 396 l 765 308 b 573 7 764 187 709 69 l 571 30 l 571 102 l 818 102 l 818 403 l 403 403 l 403 281 l 650 281 l 650 216 l 404 216 l 404 -96 l 475 -96 l 468 -15 l 544 -123 b 744 78 642 -83 707 -10 b 847 14 783 -8 847 -81 b 703 -19 847 -28 703 40 b 815 NaN 703 106 815 NaN z m -100 NaN l -85 NaN b 678 NaN 130 NaN 419 NaN l 678 NaN l 509 NaN l 509 NaN b 278 NaN 427 NaN 349 NaN z m 353 NaN l 817 NaN b 793 NaN 816 NaN 811 NaN l 962 NaN b 990 NaN 989 NaN 989 NaN l 990 NaN l 353 NaN "}}}
